M48
; DRILL file {KiCad 7.0.2} date Thu Apr 27 22:28:48 2023
; FORMAT={-:-/ absolute / inch / decimal}
; #@! TF.CreationDate,2023-04-27T22:28:48+02:00
; #@! TF.GenerationSoftware,Kicad,Pcbnew,7.0.2
; #@! TF.FileFunction,Plated,1,2,PTH
FMAT,2
INCH
; #@! TA.AperFunction,Plated,PTH,ViaDrill
T1C0.0157
; #@! TA.AperFunction,Plated,PTH,ComponentDrill
T2C0.0394
; #@! TA.AperFunction,Plated,PTH,ComponentDrill
T3C0.0500
; #@! TA.AperFunction,Plated,PTH,ComponentDrill
T4C0.1260
%
G90
G05
T1
X2.8669Y-2.2657
X3.1346Y-2.2264
X3.1445Y-4.1457
X3.1543Y-2.7283
X3.1543Y-4.8543
X3.2232Y-4.1457
X3.2232Y-4.8543
X3.2331Y-2.2264
X3.2331Y-2.7283
X3.3217Y-2.5925
X3.3807Y-1.3996
X3.3807Y-1.439
X3.3807Y-1.4783
X3.4496Y-1.6063
X3.4496Y-1.8228
X3.4496Y-3.0531
X3.4496Y-3.1024
X3.4496Y-3.1614
X3.489Y-1.6063
X3.489Y-1.8228
X3.489Y-1.9213
X3.5283Y-1.6063
X3.5283Y-1.8228
X3.5283Y-1.9213
X3.5382Y-5.061
X3.548Y-5.1791
X3.5677Y-1.6063
X3.5677Y-1.8228
X3.5677Y-1.9213
X3.5677Y-3.2106
X3.6071Y-1.6063
X3.6071Y-1.8228
X3.6071Y-1.9213
X3.6465Y-1.6063
X3.6465Y-1.8228
X3.6465Y-1.9213
X3.676Y-2.2657
X3.6858Y-1.6063
X3.6858Y-1.8228
X3.6858Y-1.9213
X3.7252Y-1.6063
X3.7252Y-1.8228
X3.7252Y-1.9213
X3.7744Y-1.3996
X3.7744Y-1.439
X3.7744Y-1.4783
X3.9417Y-2.0197
X3.9516Y-3.4272
X3.9516Y-4.1457
X3.9516Y-4.8543
X3.9713Y-2.7185
X4.0402Y-2.7185
X4.0402Y-4.1457
X4.05Y-3.4173
X4.05Y-4.8543
X4.0598Y-2.0197
X4.1091Y-1.5571
X4.1091Y-1.6063
X4.1091Y-1.6555
X4.1307Y-2.5925
X4.1681Y-2.7677
X4.1681Y-2.8661
X4.2075Y-1.6949
X4.2567Y-1.6457
X4.3059Y-1.5965
X4.3059Y-1.7146
X4.3846Y-1.7146
X4.4142Y-1.6358
X4.4831Y-2.9055
X4.4831Y-5.1398
X4.4929Y-2.7283
X4.5028Y-1.6358
X4.5421Y-2.7283
X4.5421Y-2.9055
X4.6406Y-2.7579
X4.6504Y-3.2697
X4.6602Y-2.561
X4.6701Y-2.0492
X4.6701Y-3.9783
X4.6799Y-4.687
X4.739Y-2.561
X4.7587Y-2.0492
X4.7587Y-3.2697
X4.7587Y-3.9783
X4.7587Y-4.687
X4.798Y-2.7579
X4.8276Y-2.8465
X4.8276Y-2.8858
X4.8492Y-2.4252
X5.1622Y-4.9724
X5.2016Y-2.561
X5.2114Y-4.9724
X5.2508Y-2.561
X5.3689Y-3.1024
X5.3787Y-1.8819
X5.3886Y-2.3937
X5.3886Y-3.811
X5.3984Y-4.5197
X5.4772Y-2.3937
X5.4772Y-4.5197
X5.487Y-1.8819
X5.487Y-3.0925
X5.487Y-3.811
X5.5461Y-3.3878
X5.5461Y-3.437
X5.5677Y-2.2579
X5.7724Y-3.5256
X5.7823Y-3.565
X5.7823Y-4.2638
X5.7921Y-2.2362
X5.8118Y-3.5256
X5.8315Y-3.565
X5.8512Y-2.2362
X5.8512Y-4.2736
X5.8709Y-4.4606
X5.9201Y-2.7087
X5.9496Y-4.4705
X5.9791Y-2.7087
X5.989Y-4.8445
X6.0087Y-4.7854
X6.0776Y-4.1654
X6.0972Y-2.0492
X6.0972Y-3.2795
X6.1071Y-2.561
X6.1957Y-2.561
X6.2055Y-2.0492
X6.2154Y-3.2795
X6.235Y-4.1555
X6.2646Y-2.8465
X6.2646Y-2.8957
X6.2862Y-2.4232
X6.3531Y-5.0512
X6.422Y-3.7028
X6.4614Y-4.8839
X6.4713Y-1.7933
X6.4713Y-2.8465
X6.4713Y-2.9252
X6.4811Y-3.7028
X6.5186Y-4.7106
X6.5303Y-4.3031
X6.5303Y-4.3917
X6.5402Y-1.7933
X6.6018Y-2.3471
X6.6018Y-2.416
X6.6018Y-2.5046
X6.6484Y-2.9843
X6.7173Y-2.6693
X6.7173Y-2.7677
X6.7173Y-2.9843
X6.7567Y-2.8957
X6.7961Y-2.935
X6.8059Y-4.3537
X6.8256Y-2.128
X6.8256Y-2.6299
X6.8256Y-4.0571
X6.8354Y-3.3484
X6.8354Y-5.061
X6.8453Y-4.3031
X6.865Y-1.3996
X6.865Y-1.4488
X6.865Y-1.5472
X6.865Y-1.626
X6.8748Y-4.9724
X6.8945Y-1.6555
X6.8945Y-3.3484
X6.9043Y-4.0571
X6.9142Y-2.6299
X6.924Y-2.128
X6.9437Y-1.685
X6.9634Y-1.7146
X6.9732Y-1.8425
X6.9831Y-1.7441
X6.9831Y-4.372
X7.0037Y-2.5039
X7.0126Y-2.9547
X7.0421Y-2.689
X7.0421Y-2.7972
X7.0717Y-1.5965
X7.0717Y-1.6555
X7.0913Y-1.4094
X7.0913Y-2.3051
X7.0913Y-2.4134
X7.1012Y-1.8228
X7.111Y-1.5571
X7.1117Y-1.6503
X7.1307Y-4.4902
X7.1391Y-1.7426
X7.1406Y-2.2559
X7.1502Y-1.4831
X7.1504Y-1.626
X7.1504Y-3.7913
X7.1504Y-3.8504
X7.1602Y-2.3445
X7.1701Y-1.8031
X7.1767Y-1.4233
X7.1799Y-1.5965
X7.1799Y-4.5295
X7.2094Y-1.3987
X7.2094Y-1.5669
X7.2193Y-2.8661
X7.2193Y-2.9154
X7.2193Y-2.9646
X7.2193Y-3.2284
X7.2488Y-3.2106
X7.2587Y-1.5818
X7.2587Y-1.6251
X7.2587Y-1.6684
X7.2587Y-1.8849
X7.2587Y-1.9282
X7.2685Y-4.372
X7.2685Y-4.4213
X7.2783Y-2.0935
X7.2882Y-5.2382
X7.3079Y-1.7539
X7.3128Y-1.7117
X7.3158Y-2.1073
X7.3591Y-2.1073
X7.3669Y-1.8228
X7.3669Y-1.9016
X7.3669Y-5.1102
X7.3971Y-5.3587
X7.4063Y-3.6535
X7.4441Y-4.3469
X7.4457Y-2.1073
X7.4752Y-3.6535
X7.489Y-2.1073
X7.5047Y-4.628
X7.5244Y-3.2598
X7.5323Y-2.1073
X7.5343Y-2.374
X7.5441Y-4.6772
X7.5736Y-2.1506
X7.5736Y-3.4961
X7.5755Y-2.1073
X7.5835Y-1.626
X7.6188Y-2.1073
X7.6228Y-3.2598
X7.6327Y-3.4961
X7.6425Y-2.374
X7.6524Y-1.8228
X7.6622Y-1.9409
X7.7213Y-3.8307
X7.7222Y-2.2382
X7.7508Y-1.8228
X7.7508Y-1.9409
X7.7508Y-4.4606
X7.7803Y-2.0098
X7.7891Y-1.5385
X7.8098Y-4.3425
X7.8689Y-3.811
X7.8984Y-5.3661
X7.9181Y-4.3622
X7.9378Y-3.2205
X7.9476Y-3.811
X7.9476Y-5.3957
X7.9673Y-2.0197
X7.9673Y-2.4134
X7.9673Y-4.3425
X8.0089Y-5.713
X8.0543Y-4.7012
X8.1051Y-4.2146
X8.1543Y-4.2343
X8.361Y-4.815
X8.4398Y-4.6772
X8.6465Y-4.4902
X8.6858Y-4.5295
T2
X3.0372Y-2.4724
X3.0372Y-3.1516
X3.0372Y-3.8602
X3.0372Y-4.5689
X3.0431Y-5.2776
X3.3443Y-2.4724
X3.3443Y-3.1516
X3.3443Y-3.8602
X3.3443Y-4.5689
X3.3502Y-5.2776
X3.8502Y-2.4724
X3.8502Y-3.1516
X3.8502Y-3.8602
X3.8502Y-4.5689
X3.8502Y-5.2776
X4.1573Y-2.4724
X4.1573Y-3.1516
X4.1573Y-3.8602
X4.1573Y-4.5689
X4.1573Y-5.2776
X4.5687Y-2.3051
X4.5687Y-2.9843
X4.5687Y-3.6929
X4.5687Y-4.4016
X4.5687Y-5.1102
X4.8758Y-2.3051
X4.8758Y-2.9843
X4.8758Y-3.6929
X4.8758Y-4.4016
X4.8758Y-5.1102
X5.2872Y-2.1378
X5.2872Y-2.8169
X5.2872Y-3.5256
X5.2872Y-4.2343
X5.2872Y-4.9429
X5.5943Y-2.1378
X5.5943Y-2.8169
X5.5943Y-3.5256
X5.5943Y-4.2343
X5.5943Y-4.9429
X6.0057Y-2.3051
X6.0057Y-2.9843
X6.0057Y-3.6929
X6.0057Y-4.4016
X6.2934Y-4.5095
X6.3128Y-2.3051
X6.3128Y-2.9843
X6.3128Y-3.6929
X6.3128Y-4.4016
X6.59Y-4.589
X6.7144Y-2.3839
X6.7144Y-3.063
X6.7144Y-3.7717
X6.7144Y-4.4803
X6.894Y-5.4483
X7.0215Y-2.3839
X7.0215Y-3.063
X7.0215Y-3.7717
X7.0215Y-4.4803
X7.1599Y-5.6019
X7.3276Y-3.9461
X7.3276Y-4.0461
X7.3276Y-4.1461
X7.3276Y-4.2461
X7.3369Y-4.6412
X7.4427Y-2.8465
X7.4427Y-3.7618
X7.5239Y-5.8125
X7.6028Y-4.7948
X7.7498Y-2.8465
X7.7498Y-3.7618
X7.7898Y-5.966
X7.9471Y-5.0349
X8.2131Y-5.1885
T3
X2.9959Y-1.9685
X2.9959Y-2.9764
X2.9959Y-3.685
X2.9959Y-4.3937
X2.9959Y-5.1024
X3.1927Y-1.8858
X3.1927Y-3.0591
X3.1927Y-3.7677
X3.1927Y-4.4764
X3.1927Y-5.185
X3.3896Y-1.9685
X3.3896Y-2.9764
X3.3896Y-3.685
X3.3896Y-4.3937
X3.3896Y-5.1024
X3.8049Y-1.9685
X3.8049Y-2.9764
X3.8049Y-3.685
X3.8049Y-4.3937
X3.8049Y-5.1024
X4.0018Y-1.8858
X4.0018Y-3.0591
X4.0018Y-3.7677
X4.0018Y-4.4764
X4.0018Y-5.185
X4.1986Y-1.9685
X4.1986Y-2.9764
X4.1986Y-3.685
X4.1986Y-4.3937
X4.1986Y-5.1024
X4.5224Y-1.8031
X4.5234Y-2.8091
X4.5234Y-3.5177
X4.5234Y-4.2264
X4.5234Y-4.935
X4.7193Y-1.7205
X4.7203Y-2.8917
X4.7203Y-3.6004
X4.7203Y-4.3091
X4.7203Y-5.0177
X4.9161Y-1.8031
X4.9171Y-2.8091
X4.9171Y-3.5177
X4.9171Y-4.2264
X4.9171Y-4.935
X5.2409Y-1.6358
X5.2419Y-2.6417
X5.2419Y-3.3484
X5.2419Y-4.0571
X5.2419Y-4.7657
X5.4378Y-1.5531
X5.4388Y-2.7244
X5.4388Y-3.4311
X5.4388Y-4.1398
X5.4388Y-4.8484
X5.6346Y-1.6358
X5.6356Y-2.6417
X5.6356Y-3.3484
X5.6356Y-4.0571
X5.6356Y-4.7657
X5.9594Y-1.8031
X5.9604Y-2.8071
X5.9604Y-3.5177
X5.9604Y-4.2264
X6.1046Y-4.9971
X6.1563Y-1.7205
X6.1573Y-2.8898
X6.1573Y-3.6004
X6.1573Y-4.3091
X6.2733Y-5.1279
X6.3531Y-1.8031
X6.3541Y-2.8071
X6.3541Y-3.5177
X6.3541Y-4.2264
X6.4849Y-5.099
X6.678Y-1.8799
X6.678Y-2.8878
X6.678Y-3.5965
X6.678Y-4.3051
X6.8748Y-1.7972
X6.8748Y-2.9705
X6.8748Y-3.6791
X6.8748Y-4.3878
X7.0307Y-5.2256
X7.0575Y-5.0138
X7.0717Y-1.8799
X7.0717Y-2.8878
X7.0717Y-3.5965
X7.0717Y-4.3051
X7.2275Y-4.8846
X7.361Y-3.3484
X7.3965Y-2.622
X7.4437Y-3.1516
X7.4437Y-3.5453
X7.5933Y-2.7047
X7.6425Y-5.5799
X7.6693Y-5.3681
X7.7426Y-4.5976
X7.7902Y-2.622
X7.8394Y-5.239
X7.9126Y-4.4685
X7.9394Y-4.2567
X8.3528Y-4.952
X8.5228Y-4.8228
X8.5496Y-4.611
T4
X2.928Y-1.6457
X3.5776Y-4.5984
X6.9929Y-4.6575
X7.0028Y-1.5177
X7.9083Y-3.9587
T0
M30
