G04 #@! TF.GenerationSoftware,KiCad,Pcbnew,7.0.2*
G04 #@! TF.CreationDate,2023-04-27T22:28:51+02:00*
G04 #@! TF.ProjectId,redox_rev1,7265646f-785f-4726-9576-312e6b696361,1.0*
G04 #@! TF.SameCoordinates,Original*
G04 #@! TF.FileFunction,Soldermask,Top*
G04 #@! TF.FilePolarity,Negative*
%FSLAX46Y46*%
G04 Gerber Fmt 4.6, Leading zero omitted, Abs format (unit mm)*
G04 Created by KiCad (PCBNEW 7.0.2) date 2023-04-27 22:28:51*
%MOMM*%
%LPD*%
G01*
G04 APERTURE LIST*
G04 Aperture macros list*
%AMRotRect*
0 Rectangle, with rotation*
0 The origin of the aperture is its center*
0 $1 length*
0 $2 width*
0 $3 Rotation angle, in degrees counterclockwise*
0 Add horizontal line*
21,1,$1,$2,0,0,$3*%
G04 Aperture macros list end*
%ADD10R,1.200000X1.200000*%
%ADD11R,1.600000X1.600000*%
%ADD12C,1.600000*%
%ADD13RotRect,1.200000X1.200000X150.000000*%
%ADD14RotRect,1.600000X1.600000X150.000000*%
%ADD15RotRect,1.200000X1.200000X165.000000*%
%ADD16RotRect,1.600000X1.600000X165.000000*%
%ADD17C,1.701800*%
%ADD18C,3.000000*%
%ADD19C,3.429000*%
%ADD20C,2.032000*%
%ADD21R,2.600000X2.600000*%
%ADD22RotRect,2.600000X2.600000X60.000000*%
%ADD23RotRect,2.600000X2.600000X345.000000*%
%ADD24RotRect,2.600000X2.600000X240.000000*%
%ADD25C,4.000000*%
%ADD26R,1.198880X0.698500*%
%ADD27R,0.698500X1.198880*%
%ADD28R,1.270000X5.080000*%
%ADD29R,3.960000X3.960000*%
%ADD30C,0.900000*%
%ADD31R,1.250000X2.500000*%
%ADD32R,1.700000X1.700000*%
%ADD33O,1.700000X1.700000*%
%ADD34C,0.600000*%
G04 APERTURE END LIST*
D10*
X79470000Y-62800000D03*
D11*
X77145000Y-62800000D03*
D12*
X84945000Y-62800000D03*
D10*
X82620000Y-62800000D03*
X100120000Y-62800000D03*
D11*
X97795000Y-62800000D03*
D12*
X105595000Y-62800000D03*
D10*
X103270000Y-62800000D03*
X118370000Y-58550000D03*
D11*
X116045000Y-58550000D03*
D12*
X123845000Y-58550000D03*
D10*
X121520000Y-58550000D03*
X136620000Y-54300000D03*
D11*
X134295000Y-54300000D03*
D12*
X142095000Y-54300000D03*
D10*
X139770000Y-54300000D03*
X154870000Y-58550000D03*
D11*
X152545000Y-58550000D03*
D12*
X160345000Y-58550000D03*
D10*
X158020000Y-58550000D03*
X172870000Y-60550000D03*
D11*
X170545000Y-60550000D03*
D12*
X178345000Y-60550000D03*
D10*
X176020000Y-60550000D03*
X191370000Y-72300000D03*
D11*
X189045000Y-72300000D03*
D12*
X196845000Y-72300000D03*
D10*
X194520000Y-72300000D03*
X79470000Y-80050000D03*
D11*
X77145000Y-80050000D03*
D12*
X84945000Y-80050000D03*
D10*
X82620000Y-80050000D03*
X100120000Y-80050000D03*
D11*
X97795000Y-80050000D03*
D12*
X105595000Y-80050000D03*
D10*
X103270000Y-80050000D03*
X118370000Y-75800000D03*
D11*
X116045000Y-75800000D03*
D12*
X123845000Y-75800000D03*
D10*
X121520000Y-75800000D03*
X136620000Y-71550000D03*
D11*
X134295000Y-71550000D03*
D12*
X142095000Y-71550000D03*
D10*
X139770000Y-71550000D03*
X154870000Y-75800000D03*
D11*
X152545000Y-75800000D03*
D12*
X160345000Y-75800000D03*
D10*
X158020000Y-75800000D03*
X172870000Y-77800000D03*
D11*
X170545000Y-77800000D03*
D12*
X178345000Y-77800000D03*
D10*
X176020000Y-77800000D03*
X191370000Y-95550000D03*
D11*
X189045000Y-95550000D03*
D12*
X196845000Y-95550000D03*
D10*
X194520000Y-95550000D03*
X79470000Y-98050000D03*
D11*
X77145000Y-98050000D03*
D12*
X84945000Y-98050000D03*
D10*
X82620000Y-98050000D03*
X100120000Y-98050000D03*
D11*
X97795000Y-98050000D03*
D12*
X105595000Y-98050000D03*
D10*
X103270000Y-98050000D03*
X118370000Y-93800000D03*
D11*
X116045000Y-93800000D03*
D12*
X123845000Y-93800000D03*
D10*
X121520000Y-93800000D03*
X136620000Y-89550000D03*
D11*
X134295000Y-89550000D03*
D12*
X142095000Y-89550000D03*
D10*
X139770000Y-89550000D03*
X154870000Y-93800000D03*
D11*
X152545000Y-93800000D03*
D12*
X160345000Y-93800000D03*
D10*
X158020000Y-93800000D03*
X172870000Y-95800000D03*
D11*
X170545000Y-95800000D03*
D12*
X178345000Y-95800000D03*
D10*
X176020000Y-95800000D03*
D13*
X188370000Y-119050000D03*
D14*
X186356491Y-117887500D03*
D12*
X193111489Y-121787500D03*
D13*
X191097980Y-120625000D03*
D10*
X79470000Y-116050000D03*
D11*
X77145000Y-116050000D03*
D12*
X84945000Y-116050000D03*
D10*
X82620000Y-116050000D03*
X100120000Y-116050000D03*
D11*
X97795000Y-116050000D03*
D12*
X105595000Y-116050000D03*
D10*
X103270000Y-116050000D03*
X118370000Y-111800000D03*
D11*
X116045000Y-111800000D03*
D12*
X123845000Y-111800000D03*
D10*
X121520000Y-111800000D03*
X136620000Y-107550000D03*
D11*
X134295000Y-107550000D03*
D12*
X142095000Y-107550000D03*
D10*
X139770000Y-107550000D03*
X154870000Y-111800000D03*
D11*
X152545000Y-111800000D03*
D12*
X160345000Y-111800000D03*
D10*
X158020000Y-111800000D03*
X172870000Y-113800000D03*
D11*
X170545000Y-113800000D03*
D12*
X178345000Y-113800000D03*
D10*
X176020000Y-113800000D03*
D13*
X203870000Y-129050000D03*
D14*
X201856491Y-127887500D03*
D12*
X208611489Y-131787500D03*
D13*
X206597980Y-130625000D03*
D10*
X79620000Y-134050000D03*
D11*
X77295000Y-134050000D03*
D12*
X85095000Y-134050000D03*
D10*
X82770000Y-134050000D03*
X100120000Y-134050000D03*
D11*
X97795000Y-134050000D03*
D12*
X105595000Y-134050000D03*
D10*
X103270000Y-134050000D03*
X118370000Y-129800000D03*
D11*
X116045000Y-129800000D03*
D12*
X123845000Y-129800000D03*
D10*
X121520000Y-129800000D03*
X136620000Y-125550000D03*
D11*
X134295000Y-125550000D03*
D12*
X142095000Y-125550000D03*
D10*
X139770000Y-125550000D03*
D15*
X162098667Y-115142360D03*
D16*
X159852889Y-114540606D03*
D12*
X167387111Y-116559394D03*
D15*
X165141333Y-115957640D03*
D13*
X177120000Y-139550000D03*
D14*
X175106491Y-138387500D03*
D12*
X181861489Y-142287500D03*
D13*
X179847980Y-141125000D03*
X193120000Y-148800000D03*
D14*
X191106491Y-147637500D03*
D12*
X197861489Y-151537500D03*
D13*
X195847980Y-150375000D03*
D17*
X86595000Y-53800000D03*
D18*
X86095000Y-57550000D03*
X81095000Y-59750000D03*
D19*
X81095000Y-53800000D03*
D18*
X76095000Y-57550000D03*
D17*
X75595000Y-53800000D03*
D20*
X81095000Y-47900000D03*
D21*
X77820000Y-59750000D03*
X89370000Y-57550000D03*
D20*
X86095000Y-50000000D03*
X76095000Y-50000000D03*
D17*
X107145000Y-53800000D03*
D18*
X106645000Y-57550000D03*
X101645000Y-59750000D03*
D19*
X101645000Y-53800000D03*
D18*
X96645000Y-57550000D03*
D17*
X96145000Y-53800000D03*
D20*
X101645000Y-47900000D03*
D21*
X98370000Y-59750000D03*
X109920000Y-57550000D03*
D20*
X106645000Y-50000000D03*
X96645000Y-50000000D03*
D17*
X125370000Y-49600000D03*
D18*
X124870000Y-53350000D03*
X119870000Y-55550000D03*
D19*
X119870000Y-49600000D03*
D18*
X114870000Y-53350000D03*
D17*
X114370000Y-49600000D03*
D20*
X119870000Y-43700000D03*
D21*
X116595000Y-55550000D03*
X128145000Y-53350000D03*
D20*
X124870000Y-45800000D03*
X114870000Y-45800000D03*
D17*
X143620000Y-45350000D03*
D18*
X143120000Y-49100000D03*
X138120000Y-51300000D03*
D19*
X138120000Y-45350000D03*
D18*
X133120000Y-49100000D03*
D17*
X132620000Y-45350000D03*
D20*
X138120000Y-39450000D03*
D21*
X134845000Y-51300000D03*
X146395000Y-49100000D03*
D20*
X143120000Y-41550000D03*
X133120000Y-41550000D03*
D17*
X161870000Y-49600000D03*
D18*
X161370000Y-53350000D03*
X156370000Y-55550000D03*
D19*
X156370000Y-49600000D03*
D18*
X151370000Y-53350000D03*
D17*
X150870000Y-49600000D03*
D20*
X156370000Y-43700000D03*
D21*
X153095000Y-55550000D03*
X164645000Y-53350000D03*
D20*
X161370000Y-45800000D03*
X151370000Y-45800000D03*
D17*
X180120000Y-51550000D03*
D18*
X179620000Y-55300000D03*
X174620000Y-57500000D03*
D19*
X174620000Y-51550000D03*
D18*
X169620000Y-55300000D03*
D17*
X169120000Y-51550000D03*
D20*
X174620000Y-45650000D03*
D21*
X171345000Y-57500000D03*
X182895000Y-55300000D03*
D20*
X179620000Y-47750000D03*
X169620000Y-47750000D03*
D17*
X187370000Y-62800000D03*
D18*
X187870000Y-59050000D03*
X192870000Y-56850000D03*
D19*
X192870000Y-62800000D03*
D18*
X197870000Y-59050000D03*
D17*
X198370000Y-62800000D03*
D20*
X192870000Y-68700000D03*
D21*
X196145000Y-56850000D03*
X184595000Y-59050000D03*
D20*
X187870000Y-66600000D03*
X197870000Y-66600000D03*
D17*
X75595000Y-71800000D03*
D18*
X76095000Y-68050000D03*
X81095000Y-65850000D03*
D19*
X81095000Y-71800000D03*
D18*
X86095000Y-68050000D03*
D17*
X86595000Y-71800000D03*
D20*
X81095000Y-77700000D03*
D21*
X84370000Y-65850000D03*
X72820000Y-68050000D03*
D20*
X76095000Y-75600000D03*
X86095000Y-75600000D03*
D17*
X96145000Y-71800000D03*
D18*
X96645000Y-68050000D03*
X101645000Y-65850000D03*
D19*
X101645000Y-71800000D03*
D18*
X106645000Y-68050000D03*
D17*
X107145000Y-71800000D03*
D20*
X101645000Y-77700000D03*
D21*
X104920000Y-65850000D03*
X93370000Y-68050000D03*
D20*
X96645000Y-75600000D03*
X106645000Y-75600000D03*
D17*
X114395000Y-67550000D03*
D18*
X114895000Y-63800000D03*
X119895000Y-61600000D03*
D19*
X119895000Y-67550000D03*
D18*
X124895000Y-63800000D03*
D17*
X125395000Y-67550000D03*
D20*
X119895000Y-73450000D03*
D21*
X123170000Y-61600000D03*
X111620000Y-63800000D03*
D20*
X114895000Y-71350000D03*
X124895000Y-71350000D03*
D17*
X132645000Y-63300000D03*
D18*
X133145000Y-59550000D03*
X138145000Y-57350000D03*
D19*
X138145000Y-63300000D03*
D18*
X143145000Y-59550000D03*
D17*
X143645000Y-63300000D03*
D20*
X138145000Y-69200000D03*
D21*
X141420000Y-57350000D03*
X129870000Y-59550000D03*
D20*
X133145000Y-67100000D03*
X143145000Y-67100000D03*
D17*
X150895000Y-67500000D03*
D18*
X151395000Y-63750000D03*
X156395000Y-61550000D03*
D19*
X156395000Y-67500000D03*
D18*
X161395000Y-63750000D03*
D17*
X161895000Y-67500000D03*
D20*
X156395000Y-73400000D03*
D21*
X159670000Y-61550000D03*
X148120000Y-63750000D03*
D20*
X151395000Y-71300000D03*
X161395000Y-71300000D03*
D17*
X169120000Y-69550000D03*
D18*
X169620000Y-65800000D03*
X174620000Y-63600000D03*
D19*
X174620000Y-69550000D03*
D18*
X179620000Y-65800000D03*
D17*
X180120000Y-69550000D03*
D20*
X174620000Y-75450000D03*
D21*
X177895000Y-63600000D03*
X166345000Y-65800000D03*
D20*
X169620000Y-73350000D03*
X179620000Y-73350000D03*
D17*
X192870000Y-79550000D03*
D18*
X196620000Y-80050000D03*
X198820000Y-85050000D03*
D19*
X192870000Y-85050000D03*
D18*
X196620000Y-90050000D03*
D17*
X192870000Y-90550000D03*
D20*
X186970000Y-85050000D03*
D21*
X198820000Y-88325000D03*
X196620000Y-76775000D03*
D20*
X189070000Y-80050000D03*
X189070000Y-90050000D03*
D17*
X75595000Y-89800000D03*
D18*
X76095000Y-86050000D03*
X81095000Y-83850000D03*
D19*
X81095000Y-89800000D03*
D18*
X86095000Y-86050000D03*
D17*
X86595000Y-89800000D03*
D20*
X81095000Y-95700000D03*
D21*
X84370000Y-83850000D03*
X72820000Y-86050000D03*
D20*
X76095000Y-93600000D03*
X86095000Y-93600000D03*
D17*
X96145000Y-89800000D03*
D18*
X96645000Y-86050000D03*
X101645000Y-83850000D03*
D19*
X101645000Y-89800000D03*
D18*
X106645000Y-86050000D03*
D17*
X107145000Y-89800000D03*
D20*
X101645000Y-95700000D03*
D21*
X104920000Y-83850000D03*
X93370000Y-86050000D03*
D20*
X96645000Y-93600000D03*
X106645000Y-93600000D03*
D17*
X114395000Y-85550000D03*
D18*
X114895000Y-81800000D03*
X119895000Y-79600000D03*
D19*
X119895000Y-85550000D03*
D18*
X124895000Y-81800000D03*
D17*
X125395000Y-85550000D03*
D20*
X119895000Y-91450000D03*
D21*
X123170000Y-79600000D03*
X111620000Y-81800000D03*
D20*
X114895000Y-89350000D03*
X124895000Y-89350000D03*
D17*
X132645000Y-81250000D03*
D18*
X133145000Y-77500000D03*
X138145000Y-75300000D03*
D19*
X138145000Y-81250000D03*
D18*
X143145000Y-77500000D03*
D17*
X143645000Y-81250000D03*
D20*
X138145000Y-87150000D03*
D21*
X141420000Y-75300000D03*
X129870000Y-77500000D03*
D20*
X133145000Y-85050000D03*
X143145000Y-85050000D03*
D17*
X150895000Y-85550000D03*
D18*
X151395000Y-81800000D03*
X156395000Y-79600000D03*
D19*
X156395000Y-85550000D03*
D18*
X161395000Y-81800000D03*
D17*
X161895000Y-85550000D03*
D20*
X156395000Y-91450000D03*
D21*
X159670000Y-79600000D03*
X148120000Y-81800000D03*
D20*
X151395000Y-89350000D03*
X161395000Y-89350000D03*
D17*
X169120000Y-87550000D03*
D18*
X169620000Y-83800000D03*
X174620000Y-81600000D03*
D19*
X174620000Y-87550000D03*
D18*
X179620000Y-83800000D03*
D17*
X180120000Y-87550000D03*
D20*
X174620000Y-93450000D03*
D21*
X177895000Y-81600000D03*
X166345000Y-83800000D03*
D20*
X169620000Y-91350000D03*
X179620000Y-91350000D03*
D17*
X193120000Y-115313140D03*
D18*
X190122405Y-113005127D03*
X190717149Y-107575000D03*
D19*
X195870000Y-110550000D03*
D18*
X195122405Y-104344873D03*
D17*
X198620000Y-105786860D03*
D20*
X200979550Y-113500000D03*
D22*
X192354649Y-104738767D03*
X188484905Y-115841360D03*
D20*
X196660897Y-116780127D03*
X201660897Y-108119873D03*
D17*
X75595000Y-107800000D03*
D18*
X76095000Y-104050000D03*
X81095000Y-101850000D03*
D19*
X81095000Y-107800000D03*
D18*
X86095000Y-104050000D03*
D17*
X86595000Y-107800000D03*
D20*
X81095000Y-113700000D03*
D21*
X84370000Y-101850000D03*
X72820000Y-104050000D03*
D20*
X76095000Y-111600000D03*
X86095000Y-111600000D03*
D17*
X96145000Y-107800000D03*
D18*
X96645000Y-104050000D03*
X101645000Y-101850000D03*
D19*
X101645000Y-107800000D03*
D18*
X106645000Y-104050000D03*
D17*
X107145000Y-107800000D03*
D20*
X101645000Y-113700000D03*
D21*
X104920000Y-101850000D03*
X93370000Y-104050000D03*
D20*
X96645000Y-111600000D03*
X106645000Y-111600000D03*
D17*
X114395000Y-103550000D03*
D18*
X114895000Y-99800000D03*
X119895000Y-97600000D03*
D19*
X119895000Y-103550000D03*
D18*
X124895000Y-99800000D03*
D17*
X125395000Y-103550000D03*
D20*
X119895000Y-109450000D03*
D21*
X123170000Y-97600000D03*
X111620000Y-99800000D03*
D20*
X114895000Y-107350000D03*
X124895000Y-107350000D03*
D17*
X132645000Y-99250000D03*
D18*
X133145000Y-95500000D03*
X138145000Y-93300000D03*
D19*
X138145000Y-99250000D03*
D18*
X143145000Y-95500000D03*
D17*
X143645000Y-99250000D03*
D20*
X138145000Y-105150000D03*
D21*
X141420000Y-93300000D03*
X129870000Y-95500000D03*
D20*
X133145000Y-103050000D03*
X143145000Y-103050000D03*
D17*
X150895000Y-103550000D03*
D18*
X151395000Y-99800000D03*
X156395000Y-97600000D03*
D19*
X156395000Y-103550000D03*
D18*
X161395000Y-99800000D03*
D17*
X161895000Y-103550000D03*
D20*
X156395000Y-109450000D03*
D21*
X159670000Y-97600000D03*
X148120000Y-99800000D03*
D20*
X151395000Y-107350000D03*
X161395000Y-107350000D03*
D17*
X169120000Y-105550000D03*
D18*
X169620000Y-101800000D03*
X174620000Y-99600000D03*
D19*
X174620000Y-105550000D03*
D18*
X179620000Y-101800000D03*
D17*
X180120000Y-105550000D03*
D20*
X174620000Y-111450000D03*
D21*
X177895000Y-99600000D03*
X166345000Y-101800000D03*
D20*
X169620000Y-109350000D03*
X179620000Y-109350000D03*
D17*
X208620000Y-124313140D03*
D18*
X205622405Y-122005127D03*
X206217149Y-116575000D03*
D19*
X211370000Y-119550000D03*
D18*
X210622405Y-113344873D03*
D17*
X214120000Y-114786860D03*
D20*
X216479550Y-122500000D03*
D22*
X207854649Y-113738767D03*
X203984905Y-124841360D03*
D20*
X212160897Y-125780127D03*
X217160897Y-117119873D03*
D17*
X75595000Y-125800000D03*
D18*
X76095000Y-122050000D03*
X81095000Y-119850000D03*
D19*
X81095000Y-125800000D03*
D18*
X86095000Y-122050000D03*
D17*
X86595000Y-125800000D03*
D20*
X81095000Y-131700000D03*
D21*
X84370000Y-119850000D03*
X72820000Y-122050000D03*
D20*
X76095000Y-129600000D03*
X86095000Y-129600000D03*
D17*
X96145000Y-125800000D03*
D18*
X96645000Y-122050000D03*
X101645000Y-119850000D03*
D19*
X101645000Y-125800000D03*
D18*
X106645000Y-122050000D03*
D17*
X107145000Y-125800000D03*
D20*
X101645000Y-131700000D03*
D21*
X104920000Y-119850000D03*
X93370000Y-122050000D03*
D20*
X96645000Y-129600000D03*
X106645000Y-129600000D03*
D17*
X114395000Y-121550000D03*
D18*
X114895000Y-117800000D03*
X119895000Y-115600000D03*
D19*
X119895000Y-121550000D03*
D18*
X124895000Y-117800000D03*
D17*
X125395000Y-121550000D03*
D20*
X119895000Y-127450000D03*
D21*
X123170000Y-115600000D03*
X111620000Y-117800000D03*
D20*
X114895000Y-125350000D03*
X124895000Y-125350000D03*
D17*
X132645000Y-117250000D03*
D18*
X133145000Y-113500000D03*
X138145000Y-111300000D03*
D19*
X138145000Y-117250000D03*
D18*
X143145000Y-113500000D03*
D17*
X143645000Y-117250000D03*
D20*
X138145000Y-123150000D03*
D21*
X141420000Y-111300000D03*
X129870000Y-113500000D03*
D20*
X133145000Y-121050000D03*
X143145000Y-121050000D03*
D17*
X155557408Y-123126495D03*
D18*
X157010942Y-119633683D03*
X162409973Y-118802741D03*
D19*
X160870000Y-124550000D03*
D18*
X166670201Y-122221873D03*
D17*
X166182592Y-125973505D03*
D20*
X159342968Y-130248962D03*
D23*
X165573380Y-119650374D03*
X153847535Y-118786051D03*
D20*
X155056858Y-126926423D03*
X164716117Y-129514613D03*
D17*
X187120000Y-125536860D03*
D18*
X190117595Y-127844873D03*
X189522851Y-133275000D03*
D19*
X184370000Y-130300000D03*
D18*
X185117595Y-136505127D03*
D17*
X181620000Y-135063140D03*
D20*
X179260450Y-127350000D03*
D24*
X187885351Y-136111233D03*
X191755095Y-125008640D03*
D20*
X183579103Y-124069873D03*
X178579103Y-132730127D03*
D17*
X202660897Y-134536860D03*
D18*
X205658492Y-136844873D03*
X205063748Y-142275000D03*
D19*
X199910897Y-139300000D03*
D18*
X200658492Y-145505127D03*
D17*
X197160897Y-144063140D03*
D20*
X194801347Y-136350000D03*
D24*
X203426248Y-145111233D03*
X207295992Y-134008640D03*
D20*
X199120000Y-133069873D03*
X194120000Y-141730127D03*
D25*
X90870000Y-116800000D03*
X177870000Y-38550000D03*
X74370000Y-41800000D03*
X177620000Y-118300000D03*
X200870000Y-100550000D03*
D26*
X184371920Y-39077740D03*
X184371920Y-40177560D03*
X184371920Y-41277380D03*
X184371920Y-42377200D03*
X184371920Y-43477020D03*
X184371920Y-44576840D03*
X184371920Y-45676660D03*
X184371920Y-46776480D03*
X184371920Y-47876300D03*
X184371920Y-48976120D03*
X184371920Y-50075940D03*
X184371920Y-51175760D03*
D27*
X185822260Y-53525260D03*
X186922080Y-53525260D03*
X188021900Y-53525260D03*
X189121720Y-53525260D03*
X190221540Y-53525260D03*
X191321360Y-53525260D03*
X192418640Y-53525260D03*
X193518460Y-53525260D03*
X194618280Y-53525260D03*
X195718100Y-53525260D03*
X196817920Y-53525260D03*
X197917740Y-53525260D03*
D26*
X199368080Y-51175760D03*
X199368080Y-50075940D03*
X199368080Y-48976120D03*
X199368080Y-47876300D03*
X199368080Y-46776480D03*
X199368080Y-45676660D03*
X199368080Y-44576840D03*
X199368080Y-43477020D03*
X199368080Y-42377200D03*
X199368080Y-41277380D03*
X199368080Y-40177560D03*
X199368080Y-39077740D03*
D28*
X102370000Y-36550000D03*
X80400000Y-36550000D03*
D29*
X91385000Y-36550000D03*
D30*
X171370000Y-36550000D03*
X164570000Y-36550000D03*
D31*
X170470000Y-39300000D03*
X167970000Y-39300000D03*
X165470000Y-39300000D03*
D32*
X186120000Y-107850000D03*
D33*
X186120000Y-105310000D03*
X186120000Y-102770000D03*
X186120000Y-100230000D03*
D30*
X162420000Y-36554000D03*
X169220000Y-36554000D03*
D34*
X181332433Y-44262432D03*
X184371920Y-40177560D03*
X177120000Y-46800000D03*
X182120000Y-45800000D03*
X184371920Y-41277380D03*
X90620000Y-81550000D03*
X192620000Y-41300000D03*
X180370000Y-46300000D03*
X167686589Y-61366589D03*
X167686589Y-63616589D03*
X184371920Y-42377200D03*
X167686589Y-59616589D03*
X184371920Y-47876300D03*
X172870000Y-110583178D03*
X180120000Y-61300000D03*
X181870000Y-59550000D03*
X173870000Y-109300000D03*
X184371920Y-48976120D03*
X181370000Y-57300000D03*
X180120000Y-58550000D03*
X185822260Y-53525260D03*
X174370000Y-41300000D03*
X84370000Y-65850000D03*
X175120000Y-42050000D03*
X179620000Y-40550000D03*
X104920000Y-65850000D03*
X186922080Y-53525260D03*
X179620000Y-42050000D03*
X123170000Y-61600000D03*
X180620000Y-39550000D03*
X180636378Y-41918633D03*
X189121720Y-53525260D03*
X176370000Y-42800000D03*
X181616161Y-37670661D03*
X176870000Y-43550000D03*
X141420000Y-57350000D03*
X190221540Y-53525260D03*
X181620000Y-41300000D03*
X182370000Y-40550000D03*
X159670000Y-61550000D03*
X165573380Y-119650374D03*
X191321360Y-53525260D03*
X177370000Y-44300000D03*
X182289218Y-36150971D03*
X183120000Y-39800000D03*
X177895000Y-63600000D03*
X187885351Y-136111233D03*
X192418640Y-53525260D03*
X183120000Y-35526471D03*
X203426248Y-145111233D03*
X189079649Y-110411233D03*
X196145000Y-56850000D03*
X193518460Y-53525260D03*
X204579649Y-119411233D03*
X201620000Y-81800000D03*
X202370000Y-61300000D03*
X196120000Y-97300000D03*
X202370000Y-51300000D03*
X174370000Y-39300000D03*
X197620000Y-51050000D03*
X159120000Y-72300000D03*
X175620000Y-66800000D03*
X132120000Y-65050000D03*
X146870000Y-108300000D03*
X118620000Y-52050000D03*
X188120000Y-92800000D03*
X168870000Y-75800000D03*
X102870000Y-86800000D03*
X187120000Y-46300000D03*
X154870000Y-52050000D03*
X113870000Y-130550000D03*
X173620000Y-128550000D03*
X164370000Y-45550000D03*
X115370000Y-73800000D03*
X100120000Y-51300000D03*
X193620000Y-82800000D03*
X111370000Y-43550000D03*
X117870000Y-70050000D03*
X105870000Y-72800000D03*
X137120000Y-114800000D03*
X161370000Y-128300000D03*
X93620000Y-48800000D03*
X146620000Y-89550000D03*
X163120000Y-94050000D03*
X172620000Y-74550000D03*
X95870000Y-37550000D03*
X109370000Y-43550000D03*
X166120000Y-45550000D03*
X178120000Y-75050000D03*
X194370000Y-46300000D03*
X152620000Y-121550000D03*
X139120000Y-60800000D03*
X140870000Y-87300000D03*
X87620000Y-40800000D03*
X175120000Y-85050000D03*
X196870000Y-49300000D03*
X151120000Y-113550000D03*
X151870000Y-68800000D03*
X120870000Y-52050000D03*
X93620000Y-46300000D03*
X136870000Y-96800000D03*
X79870000Y-105300000D03*
X118370000Y-65050000D03*
X133370000Y-65050000D03*
X155120000Y-65050000D03*
X165870000Y-111550000D03*
X88620000Y-46300000D03*
X178870000Y-68300000D03*
X207120000Y-107550000D03*
X100870000Y-69050000D03*
X177370000Y-111050000D03*
X191620000Y-118800000D03*
X102620000Y-105300000D03*
X139370000Y-47800000D03*
X89870000Y-128550000D03*
X164370000Y-72300000D03*
X89620000Y-40800000D03*
X82120000Y-56550000D03*
X202370000Y-110300000D03*
X108120000Y-41800000D03*
X120870000Y-83050000D03*
X148620000Y-108550000D03*
X175370000Y-103050000D03*
X187120000Y-129800000D03*
X136370000Y-78800000D03*
X185120000Y-133050000D03*
X191120000Y-82800000D03*
X150370000Y-68800000D03*
X90120000Y-131550000D03*
X164620000Y-94050000D03*
X114120000Y-69300000D03*
X196870000Y-113300000D03*
X82120000Y-69300000D03*
X180120000Y-35800000D03*
X80120000Y-123300000D03*
X120370000Y-65050000D03*
X94620000Y-40800000D03*
X106870000Y-43050000D03*
X85870000Y-36550000D03*
X149120000Y-113300000D03*
X173370000Y-54050000D03*
X190620000Y-117550000D03*
X91620000Y-48800000D03*
X140870000Y-86050000D03*
X205870000Y-107050000D03*
X122620000Y-73300000D03*
X104370000Y-39550000D03*
X95870000Y-35550000D03*
X178870000Y-71050000D03*
X87620000Y-78800000D03*
X89620000Y-48800000D03*
X196870000Y-46300000D03*
X90620000Y-48800000D03*
X92620000Y-48800000D03*
X201870000Y-137050000D03*
X183370000Y-74050000D03*
X173370000Y-66800000D03*
X91620000Y-40800000D03*
X94620000Y-46300000D03*
X173370000Y-103050000D03*
X102870000Y-123300000D03*
X164120000Y-124050000D03*
X146870000Y-90550000D03*
X174370000Y-36800000D03*
X93620000Y-40800000D03*
X181120000Y-114050000D03*
X85870000Y-37550000D03*
X102620000Y-69050000D03*
X113870000Y-73800000D03*
X115370000Y-69300000D03*
X131120000Y-126300000D03*
X120870000Y-119050000D03*
X157370000Y-65050000D03*
X100370000Y-105300000D03*
X199870000Y-96800000D03*
X165870000Y-109300000D03*
X88620000Y-40800000D03*
X212370000Y-122300000D03*
X187120000Y-48300000D03*
X136870000Y-60800000D03*
X184620000Y-111050000D03*
X219620000Y-114050000D03*
X174620000Y-126300000D03*
X147620000Y-89550000D03*
X197842260Y-39077740D03*
X139370000Y-96800000D03*
X183370000Y-75300000D03*
X191370000Y-60300000D03*
X158370000Y-105550000D03*
X189870000Y-92800000D03*
X100370000Y-87050000D03*
X214370000Y-118800000D03*
X121870000Y-70050000D03*
X139120000Y-114800000D03*
X87620000Y-46300000D03*
X90620000Y-46300000D03*
X173620000Y-85050000D03*
X132370000Y-126300000D03*
X88620000Y-48800000D03*
X181620000Y-97800000D03*
X159120000Y-73550000D03*
X80120000Y-69300000D03*
X182370000Y-115050000D03*
X174370000Y-35550000D03*
X87620000Y-77550000D03*
X94620000Y-48800000D03*
X104370000Y-40800000D03*
X170620000Y-70300000D03*
X184620000Y-112300000D03*
X114370000Y-41550000D03*
X200620000Y-136300000D03*
X154370000Y-105800000D03*
X175870000Y-54050000D03*
X220620000Y-115050000D03*
X122620000Y-72300000D03*
X198370000Y-110300000D03*
X152120000Y-123050000D03*
X170620000Y-75800000D03*
X89620000Y-46300000D03*
X192370000Y-88800000D03*
X112120000Y-41550000D03*
X103120000Y-51300000D03*
X118870000Y-119050000D03*
X171620000Y-73550000D03*
X136620000Y-47800000D03*
X193870000Y-88800000D03*
X148120000Y-90550000D03*
X87620000Y-80300000D03*
X105870000Y-70300000D03*
X157870000Y-83300000D03*
X181620000Y-96300000D03*
X92620000Y-46300000D03*
X157620000Y-52050000D03*
X81870000Y-123300000D03*
X85870000Y-35550000D03*
X201870000Y-96800000D03*
X109370000Y-40550000D03*
X148620000Y-56800000D03*
X120870000Y-101050000D03*
X118120000Y-83050000D03*
X90620000Y-40800000D03*
X100370000Y-123300000D03*
X81870000Y-105300000D03*
X104370000Y-42050000D03*
X201120000Y-110800000D03*
X79620000Y-56550000D03*
X91620000Y-46300000D03*
X194620000Y-49300000D03*
X118620000Y-101050000D03*
X92620000Y-40800000D03*
X170620000Y-67800000D03*
X154870000Y-83300000D03*
X194120000Y-60300000D03*
X147120000Y-56800000D03*
X183370000Y-72800000D03*
X95870000Y-36550000D03*
X139370000Y-78550000D03*
X164370000Y-74300000D03*
X192370000Y-54624202D03*
X183370000Y-82000498D03*
X185745500Y-43477020D03*
X184870000Y-53174500D03*
X185620000Y-44550000D03*
X184120000Y-81550000D03*
X72820000Y-57550000D03*
X93370000Y-57550000D03*
M02*
