G04 #@! TF.GenerationSoftware,KiCad,Pcbnew,7.0.2*
G04 #@! TF.CreationDate,2023-04-27T22:28:51+02:00*
G04 #@! TF.ProjectId,redox_rev1,7265646f-785f-4726-9576-312e6b696361,1.0*
G04 #@! TF.SameCoordinates,Original*
G04 #@! TF.FileFunction,Paste,Top*
G04 #@! TF.FilePolarity,Positive*
%FSLAX46Y46*%
G04 Gerber Fmt 4.6, Leading zero omitted, Abs format (unit mm)*
G04 Created by KiCad (PCBNEW 7.0.2) date 2023-04-27 22:28:51*
%MOMM*%
%LPD*%
G01*
G04 APERTURE LIST*
G04 Aperture macros list*
%AMRotRect*
0 Rectangle, with rotation*
0 The origin of the aperture is its center*
0 $1 length*
0 $2 width*
0 $3 Rotation angle, in degrees counterclockwise*
0 Add horizontal line*
21,1,$1,$2,0,0,$3*%
G04 Aperture macros list end*
%ADD10R,1.200000X1.200000*%
%ADD11RotRect,1.200000X1.200000X150.000000*%
%ADD12RotRect,1.200000X1.200000X165.000000*%
%ADD13R,2.600000X2.600000*%
%ADD14RotRect,2.600000X2.600000X60.000000*%
%ADD15RotRect,2.600000X2.600000X345.000000*%
%ADD16RotRect,2.600000X2.600000X240.000000*%
%ADD17R,1.198880X0.698500*%
%ADD18R,0.698500X1.198880*%
%ADD19R,1.270000X5.080000*%
%ADD20R,3.960000X3.960000*%
%ADD21R,1.250000X2.500000*%
G04 APERTURE END LIST*
D10*
X79470000Y-62800000D03*
X82620000Y-62800000D03*
X100120000Y-62800000D03*
X103270000Y-62800000D03*
X118370000Y-58550000D03*
X121520000Y-58550000D03*
X136620000Y-54300000D03*
X139770000Y-54300000D03*
X154870000Y-58550000D03*
X158020000Y-58550000D03*
X172870000Y-60550000D03*
X176020000Y-60550000D03*
X191370000Y-72300000D03*
X194520000Y-72300000D03*
X79470000Y-80050000D03*
X82620000Y-80050000D03*
X100120000Y-80050000D03*
X103270000Y-80050000D03*
X118370000Y-75800000D03*
X121520000Y-75800000D03*
X136620000Y-71550000D03*
X139770000Y-71550000D03*
X154870000Y-75800000D03*
X158020000Y-75800000D03*
X172870000Y-77800000D03*
X176020000Y-77800000D03*
X191370000Y-95550000D03*
X194520000Y-95550000D03*
X79470000Y-98050000D03*
X82620000Y-98050000D03*
X100120000Y-98050000D03*
X103270000Y-98050000D03*
X118370000Y-93800000D03*
X121520000Y-93800000D03*
X136620000Y-89550000D03*
X139770000Y-89550000D03*
X154870000Y-93800000D03*
X158020000Y-93800000D03*
X172870000Y-95800000D03*
X176020000Y-95800000D03*
D11*
X188370000Y-119050000D03*
X191097980Y-120625000D03*
D10*
X79470000Y-116050000D03*
X82620000Y-116050000D03*
X100120000Y-116050000D03*
X103270000Y-116050000D03*
X118370000Y-111800000D03*
X121520000Y-111800000D03*
X136620000Y-107550000D03*
X139770000Y-107550000D03*
X154870000Y-111800000D03*
X158020000Y-111800000D03*
X172870000Y-113800000D03*
X176020000Y-113800000D03*
D11*
X203870000Y-129050000D03*
X206597980Y-130625000D03*
D10*
X79620000Y-134050000D03*
X82770000Y-134050000D03*
X100120000Y-134050000D03*
X103270000Y-134050000D03*
X118370000Y-129800000D03*
X121520000Y-129800000D03*
X136620000Y-125550000D03*
X139770000Y-125550000D03*
D12*
X162098667Y-115142360D03*
X165141333Y-115957640D03*
D11*
X177120000Y-139550000D03*
X179847980Y-141125000D03*
X193120000Y-148800000D03*
X195847980Y-150375000D03*
D13*
X77820000Y-59750000D03*
X89370000Y-57550000D03*
X98370000Y-59750000D03*
X109920000Y-57550000D03*
X116595000Y-55550000D03*
X128145000Y-53350000D03*
X134845000Y-51300000D03*
X146395000Y-49100000D03*
X153095000Y-55550000D03*
X164645000Y-53350000D03*
X171345000Y-57500000D03*
X182895000Y-55300000D03*
X196145000Y-56850000D03*
X184595000Y-59050000D03*
X84370000Y-65850000D03*
X72820000Y-68050000D03*
X104920000Y-65850000D03*
X93370000Y-68050000D03*
X123170000Y-61600000D03*
X111620000Y-63800000D03*
X141420000Y-57350000D03*
X129870000Y-59550000D03*
X159670000Y-61550000D03*
X148120000Y-63750000D03*
X177895000Y-63600000D03*
X166345000Y-65800000D03*
X198820000Y-88325000D03*
X196620000Y-76775000D03*
X84370000Y-83850000D03*
X72820000Y-86050000D03*
X104920000Y-83850000D03*
X93370000Y-86050000D03*
X123170000Y-79600000D03*
X111620000Y-81800000D03*
X141420000Y-75300000D03*
X129870000Y-77500000D03*
X159670000Y-79600000D03*
X148120000Y-81800000D03*
X177895000Y-81600000D03*
X166345000Y-83800000D03*
D14*
X192354649Y-104738767D03*
X188484905Y-115841360D03*
D13*
X84370000Y-101850000D03*
X72820000Y-104050000D03*
X104920000Y-101850000D03*
X93370000Y-104050000D03*
X123170000Y-97600000D03*
X111620000Y-99800000D03*
X141420000Y-93300000D03*
X129870000Y-95500000D03*
X159670000Y-97600000D03*
X148120000Y-99800000D03*
X177895000Y-99600000D03*
X166345000Y-101800000D03*
D14*
X207854649Y-113738767D03*
X203984905Y-124841360D03*
D13*
X84370000Y-119850000D03*
X72820000Y-122050000D03*
X104920000Y-119850000D03*
X93370000Y-122050000D03*
X123170000Y-115600000D03*
X111620000Y-117800000D03*
X141420000Y-111300000D03*
X129870000Y-113500000D03*
D15*
X165573380Y-119650374D03*
X153847535Y-118786051D03*
D16*
X187885351Y-136111233D03*
X191755095Y-125008640D03*
X203426248Y-145111233D03*
X207295992Y-134008640D03*
D17*
X184371920Y-39077740D03*
X184371920Y-40177560D03*
X184371920Y-41277380D03*
X184371920Y-42377200D03*
X184371920Y-43477020D03*
X184371920Y-44576840D03*
X184371920Y-45676660D03*
X184371920Y-46776480D03*
X184371920Y-47876300D03*
X184371920Y-48976120D03*
X184371920Y-50075940D03*
X184371920Y-51175760D03*
D18*
X185822260Y-53525260D03*
X186922080Y-53525260D03*
X188021900Y-53525260D03*
X189121720Y-53525260D03*
X190221540Y-53525260D03*
X191321360Y-53525260D03*
X192418640Y-53525260D03*
X193518460Y-53525260D03*
X194618280Y-53525260D03*
X195718100Y-53525260D03*
X196817920Y-53525260D03*
X197917740Y-53525260D03*
D17*
X199368080Y-51175760D03*
X199368080Y-50075940D03*
X199368080Y-48976120D03*
X199368080Y-47876300D03*
X199368080Y-46776480D03*
X199368080Y-45676660D03*
X199368080Y-44576840D03*
X199368080Y-43477020D03*
X199368080Y-42377200D03*
X199368080Y-41277380D03*
X199368080Y-40177560D03*
X199368080Y-39077740D03*
D19*
X102370000Y-36550000D03*
X80400000Y-36550000D03*
D20*
X91385000Y-36550000D03*
D21*
X170470000Y-39300000D03*
X167970000Y-39300000D03*
X165470000Y-39300000D03*
M02*
