M48
; DRILL file {KiCad 7.0.2} date Thu Apr 27 22:28:48 2023
; FORMAT={-:-/ absolute / inch / decimal}
; #@! TF.CreationDate,2023-04-27T22:28:48+02:00
; #@! TF.GenerationSoftware,Kicad,Pcbnew,7.0.2
; #@! TF.FileFunction,NonPlated,1,2,NPTH
FMAT,2
INCH
; #@! TA.AperFunction,NonPlated,NPTH,ComponentDrill
T1C0.0354
; #@! TA.AperFunction,NonPlated,NPTH,ComponentDrill
T2C0.0670
; #@! TA.AperFunction,NonPlated,NPTH,ComponentDrill
T3C0.1181
; #@! TA.AperFunction,NonPlated,NPTH,ComponentDrill
T4C0.1350
%
G90
G05
T1
X6.3945Y-1.4391
X6.4791Y-1.439
X6.6622Y-1.4391
X6.7469Y-1.439
T2
X2.9762Y-2.1181
X2.9762Y-2.8268
X2.9762Y-3.5354
X2.9762Y-4.2441
X2.9762Y-4.9528
X3.4093Y-2.1181
X3.4093Y-2.8268
X3.4093Y-3.5354
X3.4093Y-4.2441
X3.4093Y-4.9528
X3.7852Y-2.1181
X3.7852Y-2.8268
X3.7852Y-3.5354
X3.7852Y-4.2441
X3.7852Y-4.9528
X4.2183Y-2.1181
X4.2183Y-2.8268
X4.2183Y-3.5354
X4.2183Y-4.2441
X4.2183Y-4.9528
X4.5028Y-1.9528
X4.5037Y-2.6594
X4.5037Y-3.3681
X4.5037Y-4.0768
X4.5037Y-4.7854
X4.9358Y-1.9528
X4.9368Y-2.6594
X4.9368Y-3.3681
X4.9368Y-4.0768
X4.9368Y-4.7854
X5.2213Y-1.7854
X5.2222Y-2.4921
X5.2222Y-3.1988
X5.2222Y-3.9075
X5.2222Y-4.6161
X5.6543Y-1.7854
X5.6553Y-2.4921
X5.6553Y-3.1988
X5.6553Y-3.9075
X5.6553Y-4.6161
X5.9398Y-1.9528
X5.9407Y-2.6575
X5.9407Y-3.3681
X5.9407Y-4.0768
X6.1243Y-4.8475
X6.3728Y-1.9528
X6.3738Y-2.6575
X6.3738Y-3.3681
X6.3738Y-4.0768
X6.5426Y-4.9596
X6.6583Y-2.0295
X6.6583Y-2.7382
X6.6583Y-3.4469
X6.6583Y-4.1555
X7.0913Y-2.0295
X7.0913Y-2.7382
X7.0913Y-3.4469
X7.0913Y-4.1555
X7.1504Y-5.3174
X7.3669Y-4.9424
X7.3768Y-2.4724
X7.5933Y-3.1319
X7.5933Y-3.565
X7.6031Y-4.5399
X7.7622Y-5.6718
X7.8098Y-2.4724
X7.8197Y-4.1648
X7.9788Y-5.2967
X8.2134Y-4.8942
X8.4299Y-4.5192
T3
X2.9959Y-2.2657
X2.9959Y-2.6791
X2.9959Y-3.3878
X2.9959Y-4.0965
X2.9959Y-4.8051
X3.1927Y-2.3524
X3.1927Y-2.5925
X3.1927Y-3.3012
X3.1927Y-4.0098
X3.1927Y-4.7185
X3.3896Y-2.2657
X3.3896Y-2.6791
X3.3896Y-3.3878
X3.3896Y-4.0965
X3.3896Y-4.8051
X3.8049Y-2.2657
X3.8049Y-2.6791
X3.8049Y-3.3878
X3.8049Y-4.0965
X3.8049Y-4.8051
X4.0018Y-2.3524
X4.0018Y-2.5925
X4.0018Y-3.3012
X4.0018Y-4.0098
X4.0018Y-4.7185
X4.1986Y-2.2657
X4.1986Y-2.6791
X4.1986Y-3.3878
X4.1986Y-4.0965
X4.1986Y-4.8051
X4.5224Y-2.1004
X4.5234Y-2.5118
X4.5234Y-3.2205
X4.5234Y-3.9291
X4.5234Y-4.6378
X4.7193Y-2.187
X4.7203Y-2.4252
X4.7203Y-3.1339
X4.7203Y-3.8425
X4.7203Y-4.5512
X4.9161Y-2.1004
X4.9171Y-2.5118
X4.9171Y-3.2205
X4.9171Y-3.9291
X4.9171Y-4.6378
X5.2409Y-1.9331
X5.2419Y-2.3445
X5.2419Y-3.0512
X5.2419Y-3.7598
X5.2419Y-4.4685
X5.4378Y-2.0197
X5.4388Y-2.2579
X5.4388Y-2.9646
X5.4388Y-3.6732
X5.4388Y-4.3819
X5.6346Y-1.9331
X5.6356Y-2.3445
X5.6356Y-3.0512
X5.6356Y-3.7598
X5.6356Y-4.4685
X5.9594Y-2.1004
X5.9604Y-2.5098
X5.9604Y-3.2205
X5.9604Y-3.9291
X6.1563Y-2.187
X6.1573Y-2.4232
X6.1573Y-3.1339
X6.1573Y-3.8425
X6.1815Y-4.71
X6.3531Y-2.1004
X6.3541Y-2.5098
X6.3541Y-3.2205
X6.3541Y-3.9291
X6.3941Y-4.6773
X6.5618Y-4.8119
X6.678Y-2.1772
X6.678Y-2.5906
X6.678Y-3.2992
X6.678Y-4.0079
X6.8748Y-2.2638
X6.8748Y-2.5039
X6.8748Y-3.2126
X6.8748Y-3.9213
X7.0717Y-2.1772
X7.0717Y-2.5906
X7.0717Y-3.2992
X7.0717Y-4.0079
X7.2881Y-5.3742
X7.3965Y-2.3248
X7.4615Y-5.247
X7.4849Y-5.0333
X7.4851Y-4.449
X7.5085Y-4.2352
X7.5933Y-2.2382
X7.682Y-4.1081
X7.7409Y-3.1516
X7.7409Y-3.5453
X7.7902Y-2.3248
X7.8276Y-3.3484
X7.8999Y-5.7285
X8.0734Y-5.6014
X8.0954Y-4.8034
X8.0968Y-5.3876
X8.1188Y-4.5896
X8.2922Y-4.4624
T4
X3.1927Y-2.1181
X3.1927Y-2.8268
X3.1927Y-3.5354
X3.1927Y-4.2441
X3.1927Y-4.9528
X4.0018Y-2.1181
X4.0018Y-2.8268
X4.0018Y-3.5354
X4.0018Y-4.2441
X4.0018Y-4.9528
X4.7193Y-1.9528
X4.7203Y-2.6594
X4.7203Y-3.3681
X4.7203Y-4.0768
X4.7203Y-4.7854
X5.4378Y-1.7854
X5.4388Y-2.4921
X5.4388Y-3.1988
X5.4388Y-3.9075
X5.4388Y-4.6161
X6.1563Y-1.9528
X6.1573Y-2.6575
X6.1573Y-3.3681
X6.1573Y-4.0768
X6.3335Y-4.9035
X6.8748Y-2.0295
X6.8748Y-2.7382
X6.8748Y-3.4469
X6.8748Y-4.1555
X7.2587Y-5.1299
X7.5933Y-2.4724
X7.5933Y-3.3484
X7.7114Y-4.3524
X7.8705Y-5.4843
X8.3217Y-4.7067
T0
M30
