G04 #@! TF.GenerationSoftware,KiCad,Pcbnew,5.0.0-fee4fd1~66~ubuntu18.04.1*
G04 #@! TF.CreationDate,2018-08-26T10:56:49+02:00*
G04 #@! TF.ProjectId,redox_rev1,7265646F785F726576312E6B69636164,1.0*
G04 #@! TF.SameCoordinates,Original*
G04 #@! TF.FileFunction,Legend,Bot*
G04 #@! TF.FilePolarity,Positive*
%FSLAX46Y46*%
G04 Gerber Fmt 4.6, Leading zero omitted, Abs format (unit mm)*
G04 Created by KiCad (PCBNEW 5.0.0-fee4fd1~66~ubuntu18.04.1) date Sun Aug 26 10:56:49 2018*
%MOMM*%
%LPD*%
G01*
G04 APERTURE LIST*
%ADD10C,0.300000*%
%ADD11C,0.200000*%
%ADD12C,0.100000*%
%ADD13C,0.010000*%
%ADD14C,0.120000*%
%ADD15C,0.381000*%
%ADD16C,0.152400*%
%ADD17C,0.150000*%
G04 APERTURE END LIST*
D10*
X106088571Y-126274285D02*
X105088571Y-126274285D01*
X105374285Y-126274285D02*
X105231428Y-126345714D01*
X105160000Y-126417142D01*
X105088571Y-126560000D01*
X105088571Y-126702857D01*
X106017142Y-127774285D02*
X106088571Y-127631428D01*
X106088571Y-127345714D01*
X106017142Y-127202857D01*
X105874285Y-127131428D01*
X105302857Y-127131428D01*
X105160000Y-127202857D01*
X105088571Y-127345714D01*
X105088571Y-127631428D01*
X105160000Y-127774285D01*
X105302857Y-127845714D01*
X105445714Y-127845714D01*
X105588571Y-127131428D01*
X105088571Y-128345714D02*
X106088571Y-128702857D01*
X105088571Y-129060000D01*
X106088571Y-131560000D02*
X106088571Y-130702857D01*
X106088571Y-131131428D02*
X104588571Y-131131428D01*
X104802857Y-130988571D01*
X104945714Y-130845714D01*
X105017142Y-130702857D01*
X105945714Y-132202857D02*
X106017142Y-132274285D01*
X106088571Y-132202857D01*
X106017142Y-132131428D01*
X105945714Y-132202857D01*
X106088571Y-132202857D01*
X104588571Y-133202857D02*
X104588571Y-133345714D01*
X104660000Y-133488571D01*
X104731428Y-133560000D01*
X104874285Y-133631428D01*
X105160000Y-133702857D01*
X105517142Y-133702857D01*
X105802857Y-133631428D01*
X105945714Y-133560000D01*
X106017142Y-133488571D01*
X106088571Y-133345714D01*
X106088571Y-133202857D01*
X106017142Y-133060000D01*
X105945714Y-132988571D01*
X105802857Y-132917142D01*
X105517142Y-132845714D01*
X105160000Y-132845714D01*
X104874285Y-132917142D01*
X104731428Y-132988571D01*
X104660000Y-133060000D01*
X104588571Y-133202857D01*
X104588571Y-134202857D02*
X106088571Y-134560000D01*
X105017142Y-134845714D01*
X106088571Y-135131428D01*
X104588571Y-135488571D01*
D11*
X202562095Y-109736000D02*
X202657333Y-109688380D01*
X202800190Y-109688380D01*
X202943047Y-109736000D01*
X203038285Y-109831238D01*
X203085904Y-109926476D01*
X203133523Y-110116952D01*
X203133523Y-110259809D01*
X203085904Y-110450285D01*
X203038285Y-110545523D01*
X202943047Y-110640761D01*
X202800190Y-110688380D01*
X202704952Y-110688380D01*
X202562095Y-110640761D01*
X202514476Y-110593142D01*
X202514476Y-110259809D01*
X202704952Y-110259809D01*
X202085904Y-110688380D02*
X202085904Y-109688380D01*
X201514476Y-110688380D01*
X201514476Y-109688380D01*
X201038285Y-110688380D02*
X201038285Y-109688380D01*
X200800190Y-109688380D01*
X200657333Y-109736000D01*
X200562095Y-109831238D01*
X200514476Y-109926476D01*
X200466857Y-110116952D01*
X200466857Y-110259809D01*
X200514476Y-110450285D01*
X200562095Y-110545523D01*
X200657333Y-110640761D01*
X200800190Y-110688380D01*
X201038285Y-110688380D01*
X203133523Y-113180761D02*
X202990666Y-113228380D01*
X202752571Y-113228380D01*
X202657333Y-113180761D01*
X202609714Y-113133142D01*
X202562095Y-113037904D01*
X202562095Y-112942666D01*
X202609714Y-112847428D01*
X202657333Y-112799809D01*
X202752571Y-112752190D01*
X202943047Y-112704571D01*
X203038285Y-112656952D01*
X203085904Y-112609333D01*
X203133523Y-112514095D01*
X203133523Y-112418857D01*
X203085904Y-112323619D01*
X203038285Y-112276000D01*
X202943047Y-112228380D01*
X202704952Y-112228380D01*
X202562095Y-112276000D01*
X202228761Y-112228380D02*
X201990666Y-113228380D01*
X201800190Y-112514095D01*
X201609714Y-113228380D01*
X201371619Y-112228380D01*
X200990666Y-113228380D02*
X200990666Y-112228380D01*
X200752571Y-112228380D01*
X200609714Y-112276000D01*
X200514476Y-112371238D01*
X200466857Y-112466476D01*
X200419238Y-112656952D01*
X200419238Y-112799809D01*
X200466857Y-112990285D01*
X200514476Y-113085523D01*
X200609714Y-113180761D01*
X200752571Y-113228380D01*
X200990666Y-113228380D01*
X199990666Y-113228380D02*
X199990666Y-112228380D01*
X199324000Y-112228380D02*
X199133523Y-112228380D01*
X199038285Y-112276000D01*
X198943047Y-112371238D01*
X198895428Y-112561714D01*
X198895428Y-112895047D01*
X198943047Y-113085523D01*
X199038285Y-113180761D01*
X199133523Y-113228380D01*
X199324000Y-113228380D01*
X199419238Y-113180761D01*
X199514476Y-113085523D01*
X199562095Y-112895047D01*
X199562095Y-112561714D01*
X199514476Y-112371238D01*
X199419238Y-112276000D01*
X199324000Y-112228380D01*
X203133523Y-115720761D02*
X202990666Y-115768380D01*
X202752571Y-115768380D01*
X202657333Y-115720761D01*
X202609714Y-115673142D01*
X202562095Y-115577904D01*
X202562095Y-115482666D01*
X202609714Y-115387428D01*
X202657333Y-115339809D01*
X202752571Y-115292190D01*
X202943047Y-115244571D01*
X203038285Y-115196952D01*
X203085904Y-115149333D01*
X203133523Y-115054095D01*
X203133523Y-114958857D01*
X203085904Y-114863619D01*
X203038285Y-114816000D01*
X202943047Y-114768380D01*
X202704952Y-114768380D01*
X202562095Y-114816000D01*
X202228761Y-114768380D02*
X201990666Y-115768380D01*
X201800190Y-115054095D01*
X201609714Y-115768380D01*
X201371619Y-114768380D01*
X200419238Y-115673142D02*
X200466857Y-115720761D01*
X200609714Y-115768380D01*
X200704952Y-115768380D01*
X200847809Y-115720761D01*
X200943047Y-115625523D01*
X200990666Y-115530285D01*
X201038285Y-115339809D01*
X201038285Y-115196952D01*
X200990666Y-115006476D01*
X200943047Y-114911238D01*
X200847809Y-114816000D01*
X200704952Y-114768380D01*
X200609714Y-114768380D01*
X200466857Y-114816000D01*
X200419238Y-114863619D01*
X199514476Y-115768380D02*
X199990666Y-115768380D01*
X199990666Y-114768380D01*
X199181142Y-115768380D02*
X199181142Y-114768380D01*
X198609714Y-115768380D02*
X199038285Y-115196952D01*
X198609714Y-114768380D02*
X199181142Y-115339809D01*
X202974761Y-117308380D02*
X202641428Y-118308380D01*
X202308095Y-117308380D01*
X201403333Y-118213142D02*
X201450952Y-118260761D01*
X201593809Y-118308380D01*
X201689047Y-118308380D01*
X201831904Y-118260761D01*
X201927142Y-118165523D01*
X201974761Y-118070285D01*
X202022380Y-117879809D01*
X202022380Y-117736952D01*
X201974761Y-117546476D01*
X201927142Y-117451238D01*
X201831904Y-117356000D01*
X201689047Y-117308380D01*
X201593809Y-117308380D01*
X201450952Y-117356000D01*
X201403333Y-117403619D01*
X200403333Y-118213142D02*
X200450952Y-118260761D01*
X200593809Y-118308380D01*
X200689047Y-118308380D01*
X200831904Y-118260761D01*
X200927142Y-118165523D01*
X200974761Y-118070285D01*
X201022380Y-117879809D01*
X201022380Y-117736952D01*
X200974761Y-117546476D01*
X200927142Y-117451238D01*
X200831904Y-117356000D01*
X200689047Y-117308380D01*
X200593809Y-117308380D01*
X200450952Y-117356000D01*
X200403333Y-117403619D01*
D10*
X82593571Y-61773714D02*
X81093571Y-61773714D01*
X82522142Y-61773714D02*
X82593571Y-61630857D01*
X82593571Y-61345142D01*
X82522142Y-61202285D01*
X82450714Y-61130857D01*
X82307857Y-61059428D01*
X81879285Y-61059428D01*
X81736428Y-61130857D01*
X81665000Y-61202285D01*
X81593571Y-61345142D01*
X81593571Y-61630857D01*
X81665000Y-61773714D01*
X82522142Y-63059428D02*
X82593571Y-62916571D01*
X82593571Y-62630857D01*
X82522142Y-62488000D01*
X82379285Y-62416571D01*
X81807857Y-62416571D01*
X81665000Y-62488000D01*
X81593571Y-62630857D01*
X81593571Y-62916571D01*
X81665000Y-63059428D01*
X81807857Y-63130857D01*
X81950714Y-63130857D01*
X82093571Y-62416571D01*
X82522142Y-63702285D02*
X82593571Y-63845142D01*
X82593571Y-64130857D01*
X82522142Y-64273714D01*
X82379285Y-64345142D01*
X82307857Y-64345142D01*
X82165000Y-64273714D01*
X82093571Y-64130857D01*
X82093571Y-63916571D01*
X82022142Y-63773714D01*
X81879285Y-63702285D01*
X81807857Y-63702285D01*
X81665000Y-63773714D01*
X81593571Y-63916571D01*
X81593571Y-64130857D01*
X81665000Y-64273714D01*
X82593571Y-64988000D02*
X81593571Y-64988000D01*
X81093571Y-64988000D02*
X81165000Y-64916571D01*
X81236428Y-64988000D01*
X81165000Y-65059428D01*
X81093571Y-64988000D01*
X81236428Y-64988000D01*
X81593571Y-66345142D02*
X82807857Y-66345142D01*
X82950714Y-66273714D01*
X83022142Y-66202285D01*
X83093571Y-66059428D01*
X83093571Y-65845142D01*
X83022142Y-65702285D01*
X82522142Y-66345142D02*
X82593571Y-66202285D01*
X82593571Y-65916571D01*
X82522142Y-65773714D01*
X82450714Y-65702285D01*
X82307857Y-65630857D01*
X81879285Y-65630857D01*
X81736428Y-65702285D01*
X81665000Y-65773714D01*
X81593571Y-65916571D01*
X81593571Y-66202285D01*
X81665000Y-66345142D01*
X81593571Y-67059428D02*
X82593571Y-67059428D01*
X81736428Y-67059428D02*
X81665000Y-67130857D01*
X81593571Y-67273714D01*
X81593571Y-67488000D01*
X81665000Y-67630857D01*
X81807857Y-67702285D01*
X82593571Y-67702285D01*
X82522142Y-68988000D02*
X82593571Y-68845142D01*
X82593571Y-68559428D01*
X82522142Y-68416571D01*
X82379285Y-68345142D01*
X81807857Y-68345142D01*
X81665000Y-68416571D01*
X81593571Y-68559428D01*
X81593571Y-68845142D01*
X81665000Y-68988000D01*
X81807857Y-69059428D01*
X81950714Y-69059428D01*
X82093571Y-68345142D01*
X82593571Y-70345142D02*
X81093571Y-70345142D01*
X82522142Y-70345142D02*
X82593571Y-70202285D01*
X82593571Y-69916571D01*
X82522142Y-69773714D01*
X82450714Y-69702285D01*
X82307857Y-69630857D01*
X81879285Y-69630857D01*
X81736428Y-69702285D01*
X81665000Y-69773714D01*
X81593571Y-69916571D01*
X81593571Y-70202285D01*
X81665000Y-70345142D01*
X82593571Y-72202285D02*
X81093571Y-72202285D01*
X81665000Y-72202285D02*
X81593571Y-72345142D01*
X81593571Y-72630857D01*
X81665000Y-72773714D01*
X81736428Y-72845142D01*
X81879285Y-72916571D01*
X82307857Y-72916571D01*
X82450714Y-72845142D01*
X82522142Y-72773714D01*
X82593571Y-72630857D01*
X82593571Y-72345142D01*
X82522142Y-72202285D01*
X81593571Y-73416571D02*
X82593571Y-73773714D01*
X81593571Y-74130857D02*
X82593571Y-73773714D01*
X82950714Y-73630857D01*
X83022142Y-73559428D01*
X83093571Y-73416571D01*
X82593571Y-75845142D02*
X81093571Y-75845142D01*
X82165000Y-76345142D01*
X81093571Y-76845142D01*
X82593571Y-76845142D01*
X82593571Y-78202285D02*
X81807857Y-78202285D01*
X81665000Y-78130857D01*
X81593571Y-77988000D01*
X81593571Y-77702285D01*
X81665000Y-77559428D01*
X82522142Y-78202285D02*
X82593571Y-78059428D01*
X82593571Y-77702285D01*
X82522142Y-77559428D01*
X82379285Y-77488000D01*
X82236428Y-77488000D01*
X82093571Y-77559428D01*
X82022142Y-77702285D01*
X82022142Y-78059428D01*
X81950714Y-78202285D01*
X81593571Y-78702285D02*
X81593571Y-79273714D01*
X81093571Y-78916571D02*
X82379285Y-78916571D01*
X82522142Y-78988000D01*
X82593571Y-79130857D01*
X82593571Y-79273714D01*
X81593571Y-79559428D02*
X81593571Y-80130857D01*
X81093571Y-79773714D02*
X82379285Y-79773714D01*
X82522142Y-79845142D01*
X82593571Y-79988000D01*
X82593571Y-80130857D01*
X82593571Y-80630857D02*
X81593571Y-80630857D01*
X81093571Y-80630857D02*
X81165000Y-80559428D01*
X81236428Y-80630857D01*
X81165000Y-80702285D01*
X81093571Y-80630857D01*
X81236428Y-80630857D01*
X82593571Y-81988000D02*
X81807857Y-81988000D01*
X81665000Y-81916571D01*
X81593571Y-81773714D01*
X81593571Y-81488000D01*
X81665000Y-81345142D01*
X82522142Y-81988000D02*
X82593571Y-81845142D01*
X82593571Y-81488000D01*
X82522142Y-81345142D01*
X82379285Y-81273714D01*
X82236428Y-81273714D01*
X82093571Y-81345142D01*
X82022142Y-81488000D01*
X82022142Y-81845142D01*
X81950714Y-81988000D01*
X82593571Y-83845142D02*
X81093571Y-83845142D01*
X81093571Y-84202285D01*
X81165000Y-84416571D01*
X81307857Y-84559428D01*
X81450714Y-84630857D01*
X81736428Y-84702285D01*
X81950714Y-84702285D01*
X82236428Y-84630857D01*
X82379285Y-84559428D01*
X82522142Y-84416571D01*
X82593571Y-84202285D01*
X82593571Y-83845142D01*
X82593571Y-85988000D02*
X81807857Y-85988000D01*
X81665000Y-85916571D01*
X81593571Y-85773714D01*
X81593571Y-85488000D01*
X81665000Y-85345142D01*
X82522142Y-85988000D02*
X82593571Y-85845142D01*
X82593571Y-85488000D01*
X82522142Y-85345142D01*
X82379285Y-85273714D01*
X82236428Y-85273714D01*
X82093571Y-85345142D01*
X82022142Y-85488000D01*
X82022142Y-85845142D01*
X81950714Y-85988000D01*
X82593571Y-86916571D02*
X82522142Y-86773714D01*
X82379285Y-86702285D01*
X81093571Y-86702285D01*
X81807857Y-89130857D02*
X81879285Y-89345142D01*
X81950714Y-89416571D01*
X82093571Y-89488000D01*
X82307857Y-89488000D01*
X82450714Y-89416571D01*
X82522142Y-89345142D01*
X82593571Y-89202285D01*
X82593571Y-88630857D01*
X81093571Y-88630857D01*
X81093571Y-89130857D01*
X81165000Y-89273714D01*
X81236428Y-89345142D01*
X81379285Y-89416571D01*
X81522142Y-89416571D01*
X81665000Y-89345142D01*
X81736428Y-89273714D01*
X81807857Y-89130857D01*
X81807857Y-88630857D01*
X82522142Y-90702285D02*
X82593571Y-90559428D01*
X82593571Y-90273714D01*
X82522142Y-90130857D01*
X82379285Y-90059428D01*
X81807857Y-90059428D01*
X81665000Y-90130857D01*
X81593571Y-90273714D01*
X81593571Y-90559428D01*
X81665000Y-90702285D01*
X81807857Y-90773714D01*
X81950714Y-90773714D01*
X82093571Y-90059428D01*
X81593571Y-91416571D02*
X82593571Y-91416571D01*
X81736428Y-91416571D02*
X81665000Y-91488000D01*
X81593571Y-91630857D01*
X81593571Y-91845142D01*
X81665000Y-91988000D01*
X81807857Y-92059428D01*
X82593571Y-92059428D01*
X83165000Y-94345142D02*
X83093571Y-94273714D01*
X82879285Y-94130857D01*
X82736428Y-94059428D01*
X82522142Y-93988000D01*
X82165000Y-93916571D01*
X81879285Y-93916571D01*
X81522142Y-93988000D01*
X81307857Y-94059428D01*
X81165000Y-94130857D01*
X80950714Y-94273714D01*
X80879285Y-94345142D01*
X82593571Y-94916571D02*
X81093571Y-94916571D01*
X82593571Y-95559428D02*
X81807857Y-95559428D01*
X81665000Y-95488000D01*
X81593571Y-95345142D01*
X81593571Y-95130857D01*
X81665000Y-94988000D01*
X81736428Y-94916571D01*
X81593571Y-96059428D02*
X81593571Y-96630857D01*
X81093571Y-96273714D02*
X82379285Y-96273714D01*
X82522142Y-96345142D01*
X82593571Y-96488000D01*
X82593571Y-96630857D01*
X81593571Y-96916571D02*
X81593571Y-97488000D01*
X81093571Y-97130857D02*
X82379285Y-97130857D01*
X82522142Y-97202285D01*
X82593571Y-97345142D01*
X82593571Y-97488000D01*
X81593571Y-97988000D02*
X83093571Y-97988000D01*
X81665000Y-97988000D02*
X81593571Y-98130857D01*
X81593571Y-98416571D01*
X81665000Y-98559428D01*
X81736428Y-98630857D01*
X81879285Y-98702285D01*
X82307857Y-98702285D01*
X82450714Y-98630857D01*
X82522142Y-98559428D01*
X82593571Y-98416571D01*
X82593571Y-98130857D01*
X82522142Y-97988000D01*
X82522142Y-99273714D02*
X82593571Y-99416571D01*
X82593571Y-99702285D01*
X82522142Y-99845142D01*
X82379285Y-99916571D01*
X82307857Y-99916571D01*
X82165000Y-99845142D01*
X82093571Y-99702285D01*
X82093571Y-99488000D01*
X82022142Y-99345142D01*
X81879285Y-99273714D01*
X81807857Y-99273714D01*
X81665000Y-99345142D01*
X81593571Y-99488000D01*
X81593571Y-99702285D01*
X81665000Y-99845142D01*
X82450714Y-100559428D02*
X82522142Y-100630857D01*
X82593571Y-100559428D01*
X82522142Y-100488000D01*
X82450714Y-100559428D01*
X82593571Y-100559428D01*
X81665000Y-100559428D02*
X81736428Y-100630857D01*
X81807857Y-100559428D01*
X81736428Y-100488000D01*
X81665000Y-100559428D01*
X81807857Y-100559428D01*
X81022142Y-102345142D02*
X82950714Y-101059428D01*
X81022142Y-103916571D02*
X82950714Y-102630857D01*
X81593571Y-105059428D02*
X82807857Y-105059428D01*
X82950714Y-104988000D01*
X83022142Y-104916571D01*
X83093571Y-104773714D01*
X83093571Y-104559428D01*
X83022142Y-104416571D01*
X82522142Y-105059428D02*
X82593571Y-104916571D01*
X82593571Y-104630857D01*
X82522142Y-104488000D01*
X82450714Y-104416571D01*
X82307857Y-104345142D01*
X81879285Y-104345142D01*
X81736428Y-104416571D01*
X81665000Y-104488000D01*
X81593571Y-104630857D01*
X81593571Y-104916571D01*
X81665000Y-105059428D01*
X82593571Y-105773714D02*
X81593571Y-105773714D01*
X81093571Y-105773714D02*
X81165000Y-105702285D01*
X81236428Y-105773714D01*
X81165000Y-105845142D01*
X81093571Y-105773714D01*
X81236428Y-105773714D01*
X81593571Y-106273714D02*
X81593571Y-106845142D01*
X81093571Y-106488000D02*
X82379285Y-106488000D01*
X82522142Y-106559428D01*
X82593571Y-106702285D01*
X82593571Y-106845142D01*
X82593571Y-107345142D02*
X81093571Y-107345142D01*
X82593571Y-107988000D02*
X81807857Y-107988000D01*
X81665000Y-107916571D01*
X81593571Y-107773714D01*
X81593571Y-107559428D01*
X81665000Y-107416571D01*
X81736428Y-107345142D01*
X81593571Y-109345142D02*
X82593571Y-109345142D01*
X81593571Y-108702285D02*
X82379285Y-108702285D01*
X82522142Y-108773714D01*
X82593571Y-108916571D01*
X82593571Y-109130857D01*
X82522142Y-109273714D01*
X82450714Y-109345142D01*
X82593571Y-110059428D02*
X81093571Y-110059428D01*
X81665000Y-110059428D02*
X81593571Y-110202285D01*
X81593571Y-110488000D01*
X81665000Y-110630857D01*
X81736428Y-110702285D01*
X81879285Y-110773714D01*
X82307857Y-110773714D01*
X82450714Y-110702285D01*
X82522142Y-110630857D01*
X82593571Y-110488000D01*
X82593571Y-110202285D01*
X82522142Y-110059428D01*
X82450714Y-111416571D02*
X82522142Y-111488000D01*
X82593571Y-111416571D01*
X82522142Y-111345142D01*
X82450714Y-111416571D01*
X82593571Y-111416571D01*
X82522142Y-112773714D02*
X82593571Y-112630857D01*
X82593571Y-112345142D01*
X82522142Y-112202285D01*
X82450714Y-112130857D01*
X82307857Y-112059428D01*
X81879285Y-112059428D01*
X81736428Y-112130857D01*
X81665000Y-112202285D01*
X81593571Y-112345142D01*
X81593571Y-112630857D01*
X81665000Y-112773714D01*
X82593571Y-113630857D02*
X82522142Y-113488000D01*
X82450714Y-113416571D01*
X82307857Y-113345142D01*
X81879285Y-113345142D01*
X81736428Y-113416571D01*
X81665000Y-113488000D01*
X81593571Y-113630857D01*
X81593571Y-113845142D01*
X81665000Y-113988000D01*
X81736428Y-114059428D01*
X81879285Y-114130857D01*
X82307857Y-114130857D01*
X82450714Y-114059428D01*
X82522142Y-113988000D01*
X82593571Y-113845142D01*
X82593571Y-113630857D01*
X82593571Y-114773714D02*
X81593571Y-114773714D01*
X81736428Y-114773714D02*
X81665000Y-114845142D01*
X81593571Y-114988000D01*
X81593571Y-115202285D01*
X81665000Y-115345142D01*
X81807857Y-115416571D01*
X82593571Y-115416571D01*
X81807857Y-115416571D02*
X81665000Y-115488000D01*
X81593571Y-115630857D01*
X81593571Y-115845142D01*
X81665000Y-115988000D01*
X81807857Y-116059428D01*
X82593571Y-116059428D01*
X81022142Y-117845142D02*
X82950714Y-116559428D01*
X82593571Y-118345142D02*
X81593571Y-118345142D01*
X81736428Y-118345142D02*
X81665000Y-118416571D01*
X81593571Y-118559428D01*
X81593571Y-118773714D01*
X81665000Y-118916571D01*
X81807857Y-118988000D01*
X82593571Y-118988000D01*
X81807857Y-118988000D02*
X81665000Y-119059428D01*
X81593571Y-119202285D01*
X81593571Y-119416571D01*
X81665000Y-119559428D01*
X81807857Y-119630857D01*
X82593571Y-119630857D01*
X82593571Y-120988000D02*
X81807857Y-120988000D01*
X81665000Y-120916571D01*
X81593571Y-120773714D01*
X81593571Y-120488000D01*
X81665000Y-120345142D01*
X82522142Y-120988000D02*
X82593571Y-120845142D01*
X82593571Y-120488000D01*
X82522142Y-120345142D01*
X82379285Y-120273714D01*
X82236428Y-120273714D01*
X82093571Y-120345142D01*
X82022142Y-120488000D01*
X82022142Y-120845142D01*
X81950714Y-120988000D01*
X81593571Y-121488000D02*
X81593571Y-122059428D01*
X81093571Y-121702285D02*
X82379285Y-121702285D01*
X82522142Y-121773714D01*
X82593571Y-121916571D01*
X82593571Y-122059428D01*
X81593571Y-122345142D02*
X81593571Y-122916571D01*
X81093571Y-122559428D02*
X82379285Y-122559428D01*
X82522142Y-122630857D01*
X82593571Y-122773714D01*
X82593571Y-122916571D01*
X82593571Y-124059428D02*
X81093571Y-124059428D01*
X82522142Y-124059428D02*
X82593571Y-123916571D01*
X82593571Y-123630857D01*
X82522142Y-123488000D01*
X82450714Y-123416571D01*
X82307857Y-123345142D01*
X81879285Y-123345142D01*
X81736428Y-123416571D01*
X81665000Y-123488000D01*
X81593571Y-123630857D01*
X81593571Y-123916571D01*
X81665000Y-124059428D01*
X82593571Y-124773714D02*
X81593571Y-124773714D01*
X81093571Y-124773714D02*
X81165000Y-124702285D01*
X81236428Y-124773714D01*
X81165000Y-124845142D01*
X81093571Y-124773714D01*
X81236428Y-124773714D01*
X82593571Y-125488000D02*
X81093571Y-125488000D01*
X81665000Y-125488000D02*
X81593571Y-125630857D01*
X81593571Y-125916571D01*
X81665000Y-126059428D01*
X81736428Y-126130857D01*
X81879285Y-126202285D01*
X82307857Y-126202285D01*
X82450714Y-126130857D01*
X82522142Y-126059428D01*
X82593571Y-125916571D01*
X82593571Y-125630857D01*
X82522142Y-125488000D01*
X82593571Y-126845142D02*
X81593571Y-126845142D01*
X81093571Y-126845142D02*
X81165000Y-126773714D01*
X81236428Y-126845142D01*
X81165000Y-126916571D01*
X81093571Y-126845142D01*
X81236428Y-126845142D01*
X83165000Y-127416571D02*
X83093571Y-127488000D01*
X82879285Y-127630857D01*
X82736428Y-127702285D01*
X82522142Y-127773714D01*
X82165000Y-127845142D01*
X81879285Y-127845142D01*
X81522142Y-127773714D01*
X81307857Y-127702285D01*
X81165000Y-127630857D01*
X80950714Y-127488000D01*
X80879285Y-127416571D01*
D12*
G04 #@! TO.C,U_LEFT1*
X213492080Y-49596040D02*
X213492080Y-69596000D01*
X198495920Y-49596040D02*
X213492080Y-49596040D01*
X198495920Y-69596000D02*
X198495920Y-49596040D01*
X213492080Y-69596000D02*
X198495920Y-69596000D01*
D13*
G04 #@! TO.C,*
G36*
X194924680Y-53657500D02*
X194670680Y-53525420D01*
X194043300Y-54038500D01*
X193611500Y-53606700D01*
X194124580Y-52979320D01*
X193992500Y-52725320D01*
X193906140Y-52456080D01*
X193100960Y-52372260D01*
X193100960Y-51767740D01*
X193906140Y-51683920D01*
X193992500Y-51414680D01*
X194124580Y-51160680D01*
X193611500Y-50533300D01*
X194043300Y-50101500D01*
X194670680Y-50614580D01*
X194924680Y-50482500D01*
X195193920Y-50396140D01*
X195277740Y-49590960D01*
X195882260Y-49590960D01*
X195966080Y-50396140D01*
X196235320Y-50482500D01*
X196489320Y-50614580D01*
X197116700Y-50101500D01*
X197548500Y-50533300D01*
X197035420Y-51160680D01*
X197167500Y-51414680D01*
X197253860Y-51683920D01*
X198059040Y-51767740D01*
X198059040Y-52372260D01*
X197253860Y-52456080D01*
X197167500Y-52725320D01*
X197035420Y-52979320D01*
X197548500Y-53606700D01*
X197116700Y-54038500D01*
X196489320Y-53525420D01*
X196235320Y-53657500D01*
X195877180Y-52791360D01*
X196011800Y-52717700D01*
X196131180Y-52621180D01*
X196227700Y-52501800D01*
X196301360Y-52367180D01*
X196344540Y-52222400D01*
X196359780Y-52070000D01*
X196344540Y-51912520D01*
X196293740Y-51757580D01*
X196215000Y-51620420D01*
X196110860Y-51498500D01*
X195981320Y-51401980D01*
X195836540Y-51333400D01*
X195681600Y-51297840D01*
X195524120Y-51292760D01*
X195364100Y-51320700D01*
X195216780Y-51381660D01*
X195082160Y-51470560D01*
X194970400Y-51584860D01*
X194884040Y-51719480D01*
X194825620Y-51869340D01*
X194800220Y-52026820D01*
X194807840Y-52184300D01*
X194848480Y-52339240D01*
X194919600Y-52484020D01*
X195018660Y-52611020D01*
X195140580Y-52715160D01*
X195282820Y-52791360D01*
X194924680Y-53657500D01*
G37*
X194924680Y-53657500D02*
X194670680Y-53525420D01*
X194043300Y-54038500D01*
X193611500Y-53606700D01*
X194124580Y-52979320D01*
X193992500Y-52725320D01*
X193906140Y-52456080D01*
X193100960Y-52372260D01*
X193100960Y-51767740D01*
X193906140Y-51683920D01*
X193992500Y-51414680D01*
X194124580Y-51160680D01*
X193611500Y-50533300D01*
X194043300Y-50101500D01*
X194670680Y-50614580D01*
X194924680Y-50482500D01*
X195193920Y-50396140D01*
X195277740Y-49590960D01*
X195882260Y-49590960D01*
X195966080Y-50396140D01*
X196235320Y-50482500D01*
X196489320Y-50614580D01*
X197116700Y-50101500D01*
X197548500Y-50533300D01*
X197035420Y-51160680D01*
X197167500Y-51414680D01*
X197253860Y-51683920D01*
X198059040Y-51767740D01*
X198059040Y-52372260D01*
X197253860Y-52456080D01*
X197167500Y-52725320D01*
X197035420Y-52979320D01*
X197548500Y-53606700D01*
X197116700Y-54038500D01*
X196489320Y-53525420D01*
X196235320Y-53657500D01*
X195877180Y-52791360D01*
X196011800Y-52717700D01*
X196131180Y-52621180D01*
X196227700Y-52501800D01*
X196301360Y-52367180D01*
X196344540Y-52222400D01*
X196359780Y-52070000D01*
X196344540Y-51912520D01*
X196293740Y-51757580D01*
X196215000Y-51620420D01*
X196110860Y-51498500D01*
X195981320Y-51401980D01*
X195836540Y-51333400D01*
X195681600Y-51297840D01*
X195524120Y-51292760D01*
X195364100Y-51320700D01*
X195216780Y-51381660D01*
X195082160Y-51470560D01*
X194970400Y-51584860D01*
X194884040Y-51719480D01*
X194825620Y-51869340D01*
X194800220Y-52026820D01*
X194807840Y-52184300D01*
X194848480Y-52339240D01*
X194919600Y-52484020D01*
X195018660Y-52611020D01*
X195140580Y-52715160D01*
X195282820Y-52791360D01*
X194924680Y-53657500D01*
G04 #@! TO.C,G\002A\002A\002A*
G36*
X136943822Y-50274148D02*
X136802795Y-50268420D01*
X136661769Y-50262692D01*
X136652000Y-50038000D01*
X136642230Y-49813308D01*
X136427307Y-49813308D01*
X136416283Y-50274148D01*
X136275257Y-50268420D01*
X136134230Y-50262692D01*
X136114692Y-49813308D01*
X135899769Y-49813308D01*
X135888745Y-50274148D01*
X135747719Y-50268420D01*
X135606692Y-50262692D01*
X135587154Y-49813308D01*
X135372230Y-49813308D01*
X135366719Y-50043728D01*
X135361207Y-50274148D01*
X135220180Y-50268420D01*
X135079154Y-50262692D01*
X135069384Y-50038000D01*
X135059615Y-49813308D01*
X134844692Y-49813308D01*
X134839187Y-50042884D01*
X134833683Y-50272461D01*
X134740091Y-50272461D01*
X134600839Y-50290638D01*
X134475743Y-50342068D01*
X134369453Y-50422102D01*
X134286618Y-50526092D01*
X134231888Y-50649387D01*
X134209910Y-50787340D01*
X134209692Y-50802860D01*
X134209692Y-50896452D01*
X133980115Y-50901957D01*
X133750538Y-50907461D01*
X133744527Y-51013074D01*
X133745295Y-51089302D01*
X133758521Y-51129942D01*
X133764066Y-51134890D01*
X133793266Y-51141580D01*
X133852216Y-51146986D01*
X133931592Y-51150455D01*
X133999654Y-51151393D01*
X134209692Y-51151692D01*
X134209692Y-51423991D01*
X133980115Y-51429495D01*
X133750538Y-51435000D01*
X133744527Y-51540612D01*
X133745295Y-51616840D01*
X133758521Y-51657480D01*
X133764066Y-51662428D01*
X133793266Y-51669119D01*
X133852216Y-51674525D01*
X133931592Y-51677993D01*
X133999654Y-51678931D01*
X134209692Y-51679231D01*
X134209692Y-51951529D01*
X133980115Y-51957034D01*
X133750538Y-51962538D01*
X133744754Y-52072370D01*
X133743134Y-52124586D01*
X133748566Y-52161070D01*
X133766843Y-52184655D01*
X133803757Y-52198172D01*
X133865103Y-52204452D01*
X133956673Y-52206327D01*
X134019192Y-52206502D01*
X134209692Y-52206769D01*
X134209692Y-52479067D01*
X133750538Y-52490077D01*
X133744754Y-52599909D01*
X133743134Y-52652124D01*
X133748566Y-52688609D01*
X133766843Y-52712194D01*
X133803757Y-52725710D01*
X133865103Y-52731990D01*
X133956673Y-52733865D01*
X134019192Y-52734041D01*
X134209692Y-52734308D01*
X134209692Y-53006606D01*
X133980115Y-53012111D01*
X133750538Y-53017615D01*
X133744754Y-53127447D01*
X133743134Y-53179663D01*
X133748566Y-53216147D01*
X133766843Y-53239732D01*
X133803757Y-53253249D01*
X133865103Y-53259529D01*
X133956673Y-53261404D01*
X134019192Y-53261579D01*
X134209692Y-53261846D01*
X134209883Y-53364423D01*
X134228457Y-53498358D01*
X134280843Y-53619062D01*
X134362813Y-53722249D01*
X134470139Y-53803631D01*
X134598591Y-53858919D01*
X134720361Y-53882116D01*
X134834923Y-53892504D01*
X134834923Y-54102321D01*
X134836350Y-54207354D01*
X134842819Y-54279196D01*
X134857609Y-54323694D01*
X134883998Y-54346695D01*
X134925265Y-54354046D01*
X134975133Y-54352309D01*
X135059615Y-54346231D01*
X135069384Y-54121538D01*
X135079154Y-53896846D01*
X135220807Y-53891105D01*
X135362461Y-53885365D01*
X135362461Y-54098752D01*
X135363835Y-54204613D01*
X135370099Y-54277251D01*
X135384470Y-54322480D01*
X135410165Y-54346118D01*
X135450400Y-54353982D01*
X135502671Y-54352309D01*
X135587154Y-54346231D01*
X135592658Y-54116654D01*
X135598163Y-53887077D01*
X135890000Y-53887077D01*
X135890000Y-54099608D01*
X135891386Y-54205271D01*
X135897698Y-54277718D01*
X135912168Y-54322773D01*
X135938027Y-54346258D01*
X135978506Y-54353999D01*
X136030210Y-54352309D01*
X136114692Y-54346231D01*
X136120197Y-54116654D01*
X136125701Y-53887077D01*
X136417538Y-53887077D01*
X136417538Y-54099608D01*
X136418924Y-54205271D01*
X136425237Y-54277718D01*
X136439707Y-54322773D01*
X136465566Y-54346258D01*
X136506045Y-54353999D01*
X136557748Y-54352309D01*
X136642230Y-54346231D01*
X136653240Y-53887077D01*
X136945077Y-53887077D01*
X136945077Y-54098092D01*
X136947445Y-54210985D01*
X136954444Y-54288558D01*
X136965912Y-54329199D01*
X136968523Y-54332554D01*
X137000845Y-54346382D01*
X137053761Y-54354378D01*
X137110549Y-54355661D01*
X137154487Y-54349351D01*
X137166513Y-54342974D01*
X137171738Y-54319280D01*
X137175964Y-54264964D01*
X137178715Y-54188479D01*
X137179538Y-54111338D01*
X137179538Y-53892728D01*
X137305556Y-53880960D01*
X137456495Y-53849978D01*
X137583672Y-53788403D01*
X137685487Y-53697827D01*
X137760337Y-53579842D01*
X137806624Y-53436039D01*
X137816665Y-53372648D01*
X137829688Y-53261846D01*
X138023667Y-53261846D01*
X138131642Y-53260173D01*
X138206517Y-53253348D01*
X138254192Y-53238662D01*
X138280569Y-53213404D01*
X138291548Y-53174867D01*
X138293230Y-53138066D01*
X138288031Y-53080692D01*
X138275043Y-53038679D01*
X138269784Y-53031292D01*
X138236186Y-53019012D01*
X138165356Y-53011170D01*
X138058907Y-53007929D01*
X138035323Y-53007846D01*
X137824307Y-53007846D01*
X137824307Y-52734308D01*
X138020977Y-52734308D01*
X138129554Y-52732674D01*
X138205004Y-52725990D01*
X138253204Y-52711585D01*
X138280032Y-52686787D01*
X138291364Y-52648923D01*
X138293230Y-52610528D01*
X138288031Y-52553153D01*
X138275043Y-52511140D01*
X138269784Y-52503754D01*
X138236186Y-52491473D01*
X138165356Y-52483632D01*
X138058907Y-52480390D01*
X138035323Y-52480308D01*
X137824307Y-52480308D01*
X137824307Y-52206769D01*
X138020977Y-52206769D01*
X138129554Y-52205135D01*
X138205004Y-52198452D01*
X138253204Y-52184047D01*
X138280032Y-52159249D01*
X138291364Y-52121385D01*
X138293231Y-52082989D01*
X138288031Y-52025615D01*
X138275043Y-51983602D01*
X138269784Y-51976215D01*
X138236186Y-51963935D01*
X138165356Y-51956093D01*
X138058907Y-51952852D01*
X138035323Y-51952769D01*
X137824307Y-51952769D01*
X137824307Y-51702884D01*
X137039392Y-51702884D01*
X137039019Y-51841634D01*
X137036917Y-51950723D01*
X137032920Y-52034847D01*
X137026857Y-52098699D01*
X137018561Y-52146977D01*
X137015636Y-52159031D01*
X136955929Y-52315320D01*
X136865237Y-52448738D01*
X136745137Y-52558020D01*
X136597207Y-52641899D01*
X136423022Y-52699108D01*
X136319133Y-52718391D01*
X136163538Y-52740395D01*
X136163538Y-52938598D01*
X136160850Y-53050980D01*
X136152803Y-53125171D01*
X136139426Y-53160910D01*
X136139282Y-53161056D01*
X136102003Y-53175695D01*
X136032675Y-53180565D01*
X135997628Y-53179617D01*
X135880230Y-53173923D01*
X135874706Y-52954115D01*
X135871845Y-52858752D01*
X135868076Y-52795792D01*
X135862040Y-52758567D01*
X135852379Y-52740406D01*
X135837732Y-52734638D01*
X135829921Y-52734308D01*
X135764624Y-52727952D01*
X135676687Y-52711213D01*
X135580000Y-52687581D01*
X135488455Y-52660546D01*
X135415942Y-52633598D01*
X135400847Y-52626496D01*
X135296363Y-52558434D01*
X135195416Y-52466216D01*
X135111975Y-52363346D01*
X135087213Y-52323288D01*
X135057095Y-52266459D01*
X135033260Y-52212320D01*
X135014984Y-52155396D01*
X135001543Y-52090211D01*
X134992212Y-52011288D01*
X134986267Y-51913151D01*
X134982985Y-51790325D01*
X134981640Y-51637334D01*
X134981461Y-51523763D01*
X134981461Y-51006834D01*
X135049846Y-50992735D01*
X135119536Y-50986921D01*
X135186615Y-50992738D01*
X135255000Y-51006841D01*
X135266437Y-51523767D01*
X135271084Y-51693910D01*
X135276889Y-51840747D01*
X135283634Y-51960597D01*
X135291101Y-52049781D01*
X135299071Y-52104620D01*
X135301411Y-52113468D01*
X135358037Y-52227774D01*
X135445517Y-52326523D01*
X135557007Y-52404443D01*
X135685662Y-52456262D01*
X135767647Y-52472558D01*
X135869987Y-52485279D01*
X135875109Y-51746013D01*
X135880230Y-51006747D01*
X135948615Y-50992691D01*
X136018302Y-50986917D01*
X136085384Y-50992764D01*
X136153769Y-51006894D01*
X136158891Y-51745784D01*
X136164012Y-52484673D01*
X136256583Y-52471307D01*
X136403700Y-52433336D01*
X136530084Y-52366480D01*
X136631370Y-52273734D01*
X136698832Y-52167692D01*
X136711161Y-52138746D01*
X136720933Y-52107358D01*
X136728559Y-52068464D01*
X136734451Y-52017000D01*
X136739023Y-51947902D01*
X136742687Y-51856105D01*
X136745854Y-51736547D01*
X136748938Y-51584163D01*
X136749692Y-51543235D01*
X136759461Y-51006702D01*
X136827846Y-50992668D01*
X136897535Y-50986909D01*
X136964615Y-50992761D01*
X137033000Y-51006886D01*
X137038206Y-51529777D01*
X137039392Y-51702884D01*
X137824307Y-51702884D01*
X137824307Y-51679231D01*
X138020977Y-51679231D01*
X138129554Y-51677597D01*
X138205004Y-51670913D01*
X138253204Y-51656509D01*
X138280032Y-51631710D01*
X138291364Y-51593846D01*
X138293230Y-51555451D01*
X138288031Y-51498076D01*
X138275043Y-51456063D01*
X138269784Y-51448677D01*
X138236186Y-51436396D01*
X138165356Y-51428555D01*
X138058907Y-51425313D01*
X138035323Y-51425231D01*
X137824307Y-51425231D01*
X137824307Y-51151692D01*
X138020977Y-51151692D01*
X138129554Y-51150058D01*
X138205004Y-51143375D01*
X138253204Y-51128970D01*
X138280032Y-51104172D01*
X138291364Y-51066308D01*
X138293230Y-51027912D01*
X138288031Y-50970538D01*
X138275043Y-50928525D01*
X138269784Y-50921138D01*
X138236198Y-50908833D01*
X138165595Y-50900980D01*
X138059805Y-50897764D01*
X138038106Y-50897692D01*
X137829874Y-50897692D01*
X137817634Y-50780581D01*
X137797535Y-50662152D01*
X137761217Y-50566713D01*
X137702355Y-50479452D01*
X137676116Y-50449050D01*
X137579357Y-50362572D01*
X137469694Y-50306932D01*
X137337769Y-50277591D01*
X137318247Y-50275447D01*
X137189307Y-50262692D01*
X137169769Y-49813308D01*
X136954846Y-49813308D01*
X136943822Y-50274148D01*
X136943822Y-50274148D01*
G37*
X136943822Y-50274148D02*
X136802795Y-50268420D01*
X136661769Y-50262692D01*
X136652000Y-50038000D01*
X136642230Y-49813308D01*
X136427307Y-49813308D01*
X136416283Y-50274148D01*
X136275257Y-50268420D01*
X136134230Y-50262692D01*
X136114692Y-49813308D01*
X135899769Y-49813308D01*
X135888745Y-50274148D01*
X135747719Y-50268420D01*
X135606692Y-50262692D01*
X135587154Y-49813308D01*
X135372230Y-49813308D01*
X135366719Y-50043728D01*
X135361207Y-50274148D01*
X135220180Y-50268420D01*
X135079154Y-50262692D01*
X135069384Y-50038000D01*
X135059615Y-49813308D01*
X134844692Y-49813308D01*
X134839187Y-50042884D01*
X134833683Y-50272461D01*
X134740091Y-50272461D01*
X134600839Y-50290638D01*
X134475743Y-50342068D01*
X134369453Y-50422102D01*
X134286618Y-50526092D01*
X134231888Y-50649387D01*
X134209910Y-50787340D01*
X134209692Y-50802860D01*
X134209692Y-50896452D01*
X133980115Y-50901957D01*
X133750538Y-50907461D01*
X133744527Y-51013074D01*
X133745295Y-51089302D01*
X133758521Y-51129942D01*
X133764066Y-51134890D01*
X133793266Y-51141580D01*
X133852216Y-51146986D01*
X133931592Y-51150455D01*
X133999654Y-51151393D01*
X134209692Y-51151692D01*
X134209692Y-51423991D01*
X133980115Y-51429495D01*
X133750538Y-51435000D01*
X133744527Y-51540612D01*
X133745295Y-51616840D01*
X133758521Y-51657480D01*
X133764066Y-51662428D01*
X133793266Y-51669119D01*
X133852216Y-51674525D01*
X133931592Y-51677993D01*
X133999654Y-51678931D01*
X134209692Y-51679231D01*
X134209692Y-51951529D01*
X133980115Y-51957034D01*
X133750538Y-51962538D01*
X133744754Y-52072370D01*
X133743134Y-52124586D01*
X133748566Y-52161070D01*
X133766843Y-52184655D01*
X133803757Y-52198172D01*
X133865103Y-52204452D01*
X133956673Y-52206327D01*
X134019192Y-52206502D01*
X134209692Y-52206769D01*
X134209692Y-52479067D01*
X133750538Y-52490077D01*
X133744754Y-52599909D01*
X133743134Y-52652124D01*
X133748566Y-52688609D01*
X133766843Y-52712194D01*
X133803757Y-52725710D01*
X133865103Y-52731990D01*
X133956673Y-52733865D01*
X134019192Y-52734041D01*
X134209692Y-52734308D01*
X134209692Y-53006606D01*
X133980115Y-53012111D01*
X133750538Y-53017615D01*
X133744754Y-53127447D01*
X133743134Y-53179663D01*
X133748566Y-53216147D01*
X133766843Y-53239732D01*
X133803757Y-53253249D01*
X133865103Y-53259529D01*
X133956673Y-53261404D01*
X134019192Y-53261579D01*
X134209692Y-53261846D01*
X134209883Y-53364423D01*
X134228457Y-53498358D01*
X134280843Y-53619062D01*
X134362813Y-53722249D01*
X134470139Y-53803631D01*
X134598591Y-53858919D01*
X134720361Y-53882116D01*
X134834923Y-53892504D01*
X134834923Y-54102321D01*
X134836350Y-54207354D01*
X134842819Y-54279196D01*
X134857609Y-54323694D01*
X134883998Y-54346695D01*
X134925265Y-54354046D01*
X134975133Y-54352309D01*
X135059615Y-54346231D01*
X135069384Y-54121538D01*
X135079154Y-53896846D01*
X135220807Y-53891105D01*
X135362461Y-53885365D01*
X135362461Y-54098752D01*
X135363835Y-54204613D01*
X135370099Y-54277251D01*
X135384470Y-54322480D01*
X135410165Y-54346118D01*
X135450400Y-54353982D01*
X135502671Y-54352309D01*
X135587154Y-54346231D01*
X135592658Y-54116654D01*
X135598163Y-53887077D01*
X135890000Y-53887077D01*
X135890000Y-54099608D01*
X135891386Y-54205271D01*
X135897698Y-54277718D01*
X135912168Y-54322773D01*
X135938027Y-54346258D01*
X135978506Y-54353999D01*
X136030210Y-54352309D01*
X136114692Y-54346231D01*
X136120197Y-54116654D01*
X136125701Y-53887077D01*
X136417538Y-53887077D01*
X136417538Y-54099608D01*
X136418924Y-54205271D01*
X136425237Y-54277718D01*
X136439707Y-54322773D01*
X136465566Y-54346258D01*
X136506045Y-54353999D01*
X136557748Y-54352309D01*
X136642230Y-54346231D01*
X136653240Y-53887077D01*
X136945077Y-53887077D01*
X136945077Y-54098092D01*
X136947445Y-54210985D01*
X136954444Y-54288558D01*
X136965912Y-54329199D01*
X136968523Y-54332554D01*
X137000845Y-54346382D01*
X137053761Y-54354378D01*
X137110549Y-54355661D01*
X137154487Y-54349351D01*
X137166513Y-54342974D01*
X137171738Y-54319280D01*
X137175964Y-54264964D01*
X137178715Y-54188479D01*
X137179538Y-54111338D01*
X137179538Y-53892728D01*
X137305556Y-53880960D01*
X137456495Y-53849978D01*
X137583672Y-53788403D01*
X137685487Y-53697827D01*
X137760337Y-53579842D01*
X137806624Y-53436039D01*
X137816665Y-53372648D01*
X137829688Y-53261846D01*
X138023667Y-53261846D01*
X138131642Y-53260173D01*
X138206517Y-53253348D01*
X138254192Y-53238662D01*
X138280569Y-53213404D01*
X138291548Y-53174867D01*
X138293230Y-53138066D01*
X138288031Y-53080692D01*
X138275043Y-53038679D01*
X138269784Y-53031292D01*
X138236186Y-53019012D01*
X138165356Y-53011170D01*
X138058907Y-53007929D01*
X138035323Y-53007846D01*
X137824307Y-53007846D01*
X137824307Y-52734308D01*
X138020977Y-52734308D01*
X138129554Y-52732674D01*
X138205004Y-52725990D01*
X138253204Y-52711585D01*
X138280032Y-52686787D01*
X138291364Y-52648923D01*
X138293230Y-52610528D01*
X138288031Y-52553153D01*
X138275043Y-52511140D01*
X138269784Y-52503754D01*
X138236186Y-52491473D01*
X138165356Y-52483632D01*
X138058907Y-52480390D01*
X138035323Y-52480308D01*
X137824307Y-52480308D01*
X137824307Y-52206769D01*
X138020977Y-52206769D01*
X138129554Y-52205135D01*
X138205004Y-52198452D01*
X138253204Y-52184047D01*
X138280032Y-52159249D01*
X138291364Y-52121385D01*
X138293231Y-52082989D01*
X138288031Y-52025615D01*
X138275043Y-51983602D01*
X138269784Y-51976215D01*
X138236186Y-51963935D01*
X138165356Y-51956093D01*
X138058907Y-51952852D01*
X138035323Y-51952769D01*
X137824307Y-51952769D01*
X137824307Y-51702884D01*
X137039392Y-51702884D01*
X137039019Y-51841634D01*
X137036917Y-51950723D01*
X137032920Y-52034847D01*
X137026857Y-52098699D01*
X137018561Y-52146977D01*
X137015636Y-52159031D01*
X136955929Y-52315320D01*
X136865237Y-52448738D01*
X136745137Y-52558020D01*
X136597207Y-52641899D01*
X136423022Y-52699108D01*
X136319133Y-52718391D01*
X136163538Y-52740395D01*
X136163538Y-52938598D01*
X136160850Y-53050980D01*
X136152803Y-53125171D01*
X136139426Y-53160910D01*
X136139282Y-53161056D01*
X136102003Y-53175695D01*
X136032675Y-53180565D01*
X135997628Y-53179617D01*
X135880230Y-53173923D01*
X135874706Y-52954115D01*
X135871845Y-52858752D01*
X135868076Y-52795792D01*
X135862040Y-52758567D01*
X135852379Y-52740406D01*
X135837732Y-52734638D01*
X135829921Y-52734308D01*
X135764624Y-52727952D01*
X135676687Y-52711213D01*
X135580000Y-52687581D01*
X135488455Y-52660546D01*
X135415942Y-52633598D01*
X135400847Y-52626496D01*
X135296363Y-52558434D01*
X135195416Y-52466216D01*
X135111975Y-52363346D01*
X135087213Y-52323288D01*
X135057095Y-52266459D01*
X135033260Y-52212320D01*
X135014984Y-52155396D01*
X135001543Y-52090211D01*
X134992212Y-52011288D01*
X134986267Y-51913151D01*
X134982985Y-51790325D01*
X134981640Y-51637334D01*
X134981461Y-51523763D01*
X134981461Y-51006834D01*
X135049846Y-50992735D01*
X135119536Y-50986921D01*
X135186615Y-50992738D01*
X135255000Y-51006841D01*
X135266437Y-51523767D01*
X135271084Y-51693910D01*
X135276889Y-51840747D01*
X135283634Y-51960597D01*
X135291101Y-52049781D01*
X135299071Y-52104620D01*
X135301411Y-52113468D01*
X135358037Y-52227774D01*
X135445517Y-52326523D01*
X135557007Y-52404443D01*
X135685662Y-52456262D01*
X135767647Y-52472558D01*
X135869987Y-52485279D01*
X135875109Y-51746013D01*
X135880230Y-51006747D01*
X135948615Y-50992691D01*
X136018302Y-50986917D01*
X136085384Y-50992764D01*
X136153769Y-51006894D01*
X136158891Y-51745784D01*
X136164012Y-52484673D01*
X136256583Y-52471307D01*
X136403700Y-52433336D01*
X136530084Y-52366480D01*
X136631370Y-52273734D01*
X136698832Y-52167692D01*
X136711161Y-52138746D01*
X136720933Y-52107358D01*
X136728559Y-52068464D01*
X136734451Y-52017000D01*
X136739023Y-51947902D01*
X136742687Y-51856105D01*
X136745854Y-51736547D01*
X136748938Y-51584163D01*
X136749692Y-51543235D01*
X136759461Y-51006702D01*
X136827846Y-50992668D01*
X136897535Y-50986909D01*
X136964615Y-50992761D01*
X137033000Y-51006886D01*
X137038206Y-51529777D01*
X137039392Y-51702884D01*
X137824307Y-51702884D01*
X137824307Y-51679231D01*
X138020977Y-51679231D01*
X138129554Y-51677597D01*
X138205004Y-51670913D01*
X138253204Y-51656509D01*
X138280032Y-51631710D01*
X138291364Y-51593846D01*
X138293230Y-51555451D01*
X138288031Y-51498076D01*
X138275043Y-51456063D01*
X138269784Y-51448677D01*
X138236186Y-51436396D01*
X138165356Y-51428555D01*
X138058907Y-51425313D01*
X138035323Y-51425231D01*
X137824307Y-51425231D01*
X137824307Y-51151692D01*
X138020977Y-51151692D01*
X138129554Y-51150058D01*
X138205004Y-51143375D01*
X138253204Y-51128970D01*
X138280032Y-51104172D01*
X138291364Y-51066308D01*
X138293230Y-51027912D01*
X138288031Y-50970538D01*
X138275043Y-50928525D01*
X138269784Y-50921138D01*
X138236198Y-50908833D01*
X138165595Y-50900980D01*
X138059805Y-50897764D01*
X138038106Y-50897692D01*
X137829874Y-50897692D01*
X137817634Y-50780581D01*
X137797535Y-50662152D01*
X137761217Y-50566713D01*
X137702355Y-50479452D01*
X137676116Y-50449050D01*
X137579357Y-50362572D01*
X137469694Y-50306932D01*
X137337769Y-50277591D01*
X137318247Y-50275447D01*
X137189307Y-50262692D01*
X137169769Y-49813308D01*
X136954846Y-49813308D01*
X136943822Y-50274148D01*
G36*
X131762074Y-52139363D02*
X131622834Y-52172912D01*
X131501285Y-52231682D01*
X131453209Y-52264755D01*
X131353765Y-52353507D01*
X131278123Y-52456069D01*
X131217587Y-52584428D01*
X131213568Y-52595014D01*
X131197201Y-52643919D01*
X131185718Y-52694241D01*
X131178282Y-52754254D01*
X131174061Y-52832235D01*
X131172217Y-52936458D01*
X131171915Y-53007846D01*
X131172350Y-53128407D01*
X131174672Y-53218540D01*
X131179786Y-53286884D01*
X131188595Y-53342075D01*
X131202003Y-53392752D01*
X131216730Y-53436072D01*
X131250053Y-53516572D01*
X131289685Y-53595805D01*
X131318626Y-53643757D01*
X131375254Y-53726062D01*
X131263588Y-53804051D01*
X131187484Y-53854108D01*
X131105752Y-53903178D01*
X131051678Y-53932552D01*
X130977569Y-53980156D01*
X130939023Y-54033304D01*
X130932530Y-54098170D01*
X130938746Y-54131308D01*
X130951206Y-54164087D01*
X130973041Y-54176646D01*
X131013622Y-54170565D01*
X131067044Y-54152923D01*
X131176357Y-54103815D01*
X131300785Y-54030760D01*
X131430283Y-53939706D01*
X131441028Y-53931463D01*
X131554287Y-53843973D01*
X131655951Y-53889640D01*
X131753306Y-53919115D01*
X131874547Y-53934602D01*
X132007088Y-53936145D01*
X132138342Y-53923787D01*
X132255724Y-53897573D01*
X132285154Y-53887468D01*
X132410672Y-53820609D01*
X132522568Y-53723850D01*
X132612273Y-53606040D01*
X132664886Y-53495349D01*
X132689994Y-53397689D01*
X132708653Y-53273753D01*
X132720154Y-53135921D01*
X132722986Y-53027385D01*
X132479217Y-53027385D01*
X132475309Y-53187076D01*
X132460864Y-53315683D01*
X132434310Y-53420158D01*
X132394078Y-53507449D01*
X132359011Y-53559360D01*
X132268875Y-53646228D01*
X132156783Y-53705482D01*
X132029621Y-53735870D01*
X131894276Y-53736141D01*
X131757636Y-53705045D01*
X131696066Y-53679780D01*
X131596545Y-53615607D01*
X131516754Y-53524648D01*
X131452171Y-53401645D01*
X131447992Y-53391424D01*
X131430800Y-53342507D01*
X131419178Y-53290682D01*
X131412129Y-53226915D01*
X131408653Y-53142173D01*
X131407753Y-53027422D01*
X131407753Y-53027385D01*
X131412139Y-52869639D01*
X131426558Y-52743117D01*
X131453114Y-52640778D01*
X131493912Y-52555580D01*
X131551057Y-52480483D01*
X131580228Y-52450465D01*
X131669352Y-52382121D01*
X131771369Y-52341294D01*
X131895359Y-52324733D01*
X131933461Y-52324000D01*
X132060774Y-52333615D01*
X132164421Y-52365237D01*
X132255501Y-52423027D01*
X132297111Y-52460400D01*
X132366533Y-52538573D01*
X132416953Y-52622384D01*
X132450824Y-52719464D01*
X132470593Y-52837441D01*
X132478713Y-52983943D01*
X132479217Y-53027385D01*
X132722986Y-53027385D01*
X132723791Y-52996569D01*
X132718858Y-52868074D01*
X132706279Y-52770790D01*
X132654652Y-52590315D01*
X132576831Y-52438774D01*
X132473445Y-52316686D01*
X132345128Y-52224573D01*
X132192511Y-52162953D01*
X132016225Y-52132348D01*
X131926699Y-52128827D01*
X131762074Y-52139363D01*
X131762074Y-52139363D01*
G37*
X131762074Y-52139363D02*
X131622834Y-52172912D01*
X131501285Y-52231682D01*
X131453209Y-52264755D01*
X131353765Y-52353507D01*
X131278123Y-52456069D01*
X131217587Y-52584428D01*
X131213568Y-52595014D01*
X131197201Y-52643919D01*
X131185718Y-52694241D01*
X131178282Y-52754254D01*
X131174061Y-52832235D01*
X131172217Y-52936458D01*
X131171915Y-53007846D01*
X131172350Y-53128407D01*
X131174672Y-53218540D01*
X131179786Y-53286884D01*
X131188595Y-53342075D01*
X131202003Y-53392752D01*
X131216730Y-53436072D01*
X131250053Y-53516572D01*
X131289685Y-53595805D01*
X131318626Y-53643757D01*
X131375254Y-53726062D01*
X131263588Y-53804051D01*
X131187484Y-53854108D01*
X131105752Y-53903178D01*
X131051678Y-53932552D01*
X130977569Y-53980156D01*
X130939023Y-54033304D01*
X130932530Y-54098170D01*
X130938746Y-54131308D01*
X130951206Y-54164087D01*
X130973041Y-54176646D01*
X131013622Y-54170565D01*
X131067044Y-54152923D01*
X131176357Y-54103815D01*
X131300785Y-54030760D01*
X131430283Y-53939706D01*
X131441028Y-53931463D01*
X131554287Y-53843973D01*
X131655951Y-53889640D01*
X131753306Y-53919115D01*
X131874547Y-53934602D01*
X132007088Y-53936145D01*
X132138342Y-53923787D01*
X132255724Y-53897573D01*
X132285154Y-53887468D01*
X132410672Y-53820609D01*
X132522568Y-53723850D01*
X132612273Y-53606040D01*
X132664886Y-53495349D01*
X132689994Y-53397689D01*
X132708653Y-53273753D01*
X132720154Y-53135921D01*
X132722986Y-53027385D01*
X132479217Y-53027385D01*
X132475309Y-53187076D01*
X132460864Y-53315683D01*
X132434310Y-53420158D01*
X132394078Y-53507449D01*
X132359011Y-53559360D01*
X132268875Y-53646228D01*
X132156783Y-53705482D01*
X132029621Y-53735870D01*
X131894276Y-53736141D01*
X131757636Y-53705045D01*
X131696066Y-53679780D01*
X131596545Y-53615607D01*
X131516754Y-53524648D01*
X131452171Y-53401645D01*
X131447992Y-53391424D01*
X131430800Y-53342507D01*
X131419178Y-53290682D01*
X131412129Y-53226915D01*
X131408653Y-53142173D01*
X131407753Y-53027422D01*
X131407753Y-53027385D01*
X131412139Y-52869639D01*
X131426558Y-52743117D01*
X131453114Y-52640778D01*
X131493912Y-52555580D01*
X131551057Y-52480483D01*
X131580228Y-52450465D01*
X131669352Y-52382121D01*
X131771369Y-52341294D01*
X131895359Y-52324733D01*
X131933461Y-52324000D01*
X132060774Y-52333615D01*
X132164421Y-52365237D01*
X132255501Y-52423027D01*
X132297111Y-52460400D01*
X132366533Y-52538573D01*
X132416953Y-52622384D01*
X132450824Y-52719464D01*
X132470593Y-52837441D01*
X132478713Y-52983943D01*
X132479217Y-53027385D01*
X132722986Y-53027385D01*
X132723791Y-52996569D01*
X132718858Y-52868074D01*
X132706279Y-52770790D01*
X132654652Y-52590315D01*
X132576831Y-52438774D01*
X132473445Y-52316686D01*
X132345128Y-52224573D01*
X132192511Y-52162953D01*
X132016225Y-52132348D01*
X131926699Y-52128827D01*
X131762074Y-52139363D01*
G36*
X118583452Y-52602405D02*
X118491440Y-52619331D01*
X118407601Y-52659756D01*
X118330305Y-52726828D01*
X118271469Y-52808489D01*
X118248302Y-52865384D01*
X118240642Y-52916890D01*
X118235138Y-53005188D01*
X118231854Y-53128048D01*
X118230857Y-53283240D01*
X118231770Y-53431291D01*
X118237000Y-53916385D01*
X118315154Y-53916385D01*
X118365414Y-53914138D01*
X118388785Y-53900338D01*
X118397441Y-53864391D01*
X118399371Y-53843115D01*
X118405564Y-53796005D01*
X118413318Y-53771045D01*
X118415171Y-53769846D01*
X118434750Y-53781035D01*
X118473710Y-53809521D01*
X118499213Y-53829561D01*
X118610287Y-53896487D01*
X118735192Y-53934275D01*
X118863208Y-53940933D01*
X118974399Y-53917890D01*
X119085364Y-53863989D01*
X119162257Y-53792184D01*
X119206961Y-53699599D01*
X119221357Y-53583358D01*
X119220785Y-53566230D01*
X119003271Y-53566230D01*
X118991462Y-53613795D01*
X118950427Y-53689424D01*
X118884710Y-53741551D01*
X118802616Y-53767620D01*
X118712451Y-53765075D01*
X118622520Y-53731361D01*
X118618000Y-53728704D01*
X118557082Y-53687274D01*
X118500266Y-53641248D01*
X118495884Y-53637198D01*
X118467105Y-53606261D01*
X118450916Y-53573421D01*
X118443778Y-53526403D01*
X118442154Y-53452926D01*
X118442154Y-53314779D01*
X118634633Y-53325385D01*
X118757967Y-53336263D01*
X118848928Y-53355007D01*
X118913862Y-53384197D01*
X118959114Y-53426413D01*
X118983494Y-53467205D01*
X119002852Y-53518882D01*
X119003271Y-53566230D01*
X119220785Y-53566230D01*
X119219995Y-53542606D01*
X119198713Y-53430270D01*
X119149543Y-53339246D01*
X119070944Y-53268520D01*
X118961374Y-53217074D01*
X118819290Y-53183893D01*
X118652192Y-53168335D01*
X118442154Y-53159134D01*
X118442263Y-53088375D01*
X118454756Y-52977758D01*
X118489645Y-52885215D01*
X118530678Y-52831435D01*
X118599335Y-52791765D01*
X118691548Y-52774276D01*
X118798568Y-52779164D01*
X118911644Y-52806627D01*
X118951831Y-52821945D01*
X119022336Y-52850389D01*
X119084257Y-52873278D01*
X119122361Y-52885148D01*
X119150227Y-52888630D01*
X119162186Y-52875523D01*
X119163112Y-52836585D01*
X119161438Y-52811057D01*
X119152471Y-52752687D01*
X119130021Y-52716378D01*
X119091901Y-52689567D01*
X118985033Y-52643659D01*
X118855379Y-52612743D01*
X118716873Y-52598448D01*
X118583452Y-52602405D01*
X118583452Y-52602405D01*
G37*
X118583452Y-52602405D02*
X118491440Y-52619331D01*
X118407601Y-52659756D01*
X118330305Y-52726828D01*
X118271469Y-52808489D01*
X118248302Y-52865384D01*
X118240642Y-52916890D01*
X118235138Y-53005188D01*
X118231854Y-53128048D01*
X118230857Y-53283240D01*
X118231770Y-53431291D01*
X118237000Y-53916385D01*
X118315154Y-53916385D01*
X118365414Y-53914138D01*
X118388785Y-53900338D01*
X118397441Y-53864391D01*
X118399371Y-53843115D01*
X118405564Y-53796005D01*
X118413318Y-53771045D01*
X118415171Y-53769846D01*
X118434750Y-53781035D01*
X118473710Y-53809521D01*
X118499213Y-53829561D01*
X118610287Y-53896487D01*
X118735192Y-53934275D01*
X118863208Y-53940933D01*
X118974399Y-53917890D01*
X119085364Y-53863989D01*
X119162257Y-53792184D01*
X119206961Y-53699599D01*
X119221357Y-53583358D01*
X119220785Y-53566230D01*
X119003271Y-53566230D01*
X118991462Y-53613795D01*
X118950427Y-53689424D01*
X118884710Y-53741551D01*
X118802616Y-53767620D01*
X118712451Y-53765075D01*
X118622520Y-53731361D01*
X118618000Y-53728704D01*
X118557082Y-53687274D01*
X118500266Y-53641248D01*
X118495884Y-53637198D01*
X118467105Y-53606261D01*
X118450916Y-53573421D01*
X118443778Y-53526403D01*
X118442154Y-53452926D01*
X118442154Y-53314779D01*
X118634633Y-53325385D01*
X118757967Y-53336263D01*
X118848928Y-53355007D01*
X118913862Y-53384197D01*
X118959114Y-53426413D01*
X118983494Y-53467205D01*
X119002852Y-53518882D01*
X119003271Y-53566230D01*
X119220785Y-53566230D01*
X119219995Y-53542606D01*
X119198713Y-53430270D01*
X119149543Y-53339246D01*
X119070944Y-53268520D01*
X118961374Y-53217074D01*
X118819290Y-53183893D01*
X118652192Y-53168335D01*
X118442154Y-53159134D01*
X118442263Y-53088375D01*
X118454756Y-52977758D01*
X118489645Y-52885215D01*
X118530678Y-52831435D01*
X118599335Y-52791765D01*
X118691548Y-52774276D01*
X118798568Y-52779164D01*
X118911644Y-52806627D01*
X118951831Y-52821945D01*
X119022336Y-52850389D01*
X119084257Y-52873278D01*
X119122361Y-52885148D01*
X119150227Y-52888630D01*
X119162186Y-52875523D01*
X119163112Y-52836585D01*
X119161438Y-52811057D01*
X119152471Y-52752687D01*
X119130021Y-52716378D01*
X119091901Y-52689567D01*
X118985033Y-52643659D01*
X118855379Y-52612743D01*
X118716873Y-52598448D01*
X118583452Y-52602405D01*
G36*
X116231050Y-52607898D02*
X116099055Y-52646087D01*
X115990455Y-52715193D01*
X115906286Y-52814301D01*
X115847584Y-52942496D01*
X115815385Y-53098862D01*
X115814678Y-53105538D01*
X115808507Y-53168368D01*
X115807330Y-53216836D01*
X115815460Y-53252884D01*
X115837210Y-53278449D01*
X115876891Y-53295471D01*
X115938816Y-53305890D01*
X116027297Y-53311644D01*
X116146646Y-53314673D01*
X116284167Y-53316675D01*
X116708471Y-53322657D01*
X116697457Y-53429374D01*
X116670354Y-53550160D01*
X116616574Y-53642796D01*
X116535605Y-53707693D01*
X116426939Y-53745263D01*
X116292923Y-53755963D01*
X116170491Y-53746148D01*
X116051266Y-53722796D01*
X116020823Y-53713982D01*
X115955091Y-53695188D01*
X115904108Y-53684451D01*
X115879169Y-53684052D01*
X115866253Y-53711176D01*
X115863547Y-53758161D01*
X115870131Y-53807411D01*
X115885087Y-53841329D01*
X115887500Y-53843614D01*
X115945214Y-53874190D01*
X116031715Y-53899887D01*
X116136885Y-53919490D01*
X116250603Y-53931786D01*
X116362754Y-53935560D01*
X116463217Y-53929599D01*
X116519434Y-53919432D01*
X116652732Y-53870188D01*
X116758773Y-53796415D01*
X116838810Y-53696322D01*
X116894092Y-53568118D01*
X116925873Y-53410011D01*
X116932904Y-53327478D01*
X116929669Y-53148874D01*
X116928796Y-53144615D01*
X116708376Y-53144615D01*
X116038923Y-53144615D01*
X116039244Y-53071346D01*
X116055726Y-52984574D01*
X116098575Y-52898674D01*
X116158980Y-52829153D01*
X116189177Y-52807556D01*
X116268950Y-52779296D01*
X116365561Y-52771545D01*
X116462474Y-52784489D01*
X116517371Y-52803886D01*
X116592897Y-52858985D01*
X116654002Y-52940085D01*
X116691942Y-53034522D01*
X116697706Y-53065064D01*
X116708376Y-53144615D01*
X116928796Y-53144615D01*
X116898163Y-52995234D01*
X116837585Y-52863731D01*
X116779422Y-52785562D01*
X116692270Y-52701143D01*
X116600431Y-52645619D01*
X116492607Y-52613715D01*
X116385403Y-52601541D01*
X116231050Y-52607898D01*
X116231050Y-52607898D01*
G37*
X116231050Y-52607898D02*
X116099055Y-52646087D01*
X115990455Y-52715193D01*
X115906286Y-52814301D01*
X115847584Y-52942496D01*
X115815385Y-53098862D01*
X115814678Y-53105538D01*
X115808507Y-53168368D01*
X115807330Y-53216836D01*
X115815460Y-53252884D01*
X115837210Y-53278449D01*
X115876891Y-53295471D01*
X115938816Y-53305890D01*
X116027297Y-53311644D01*
X116146646Y-53314673D01*
X116284167Y-53316675D01*
X116708471Y-53322657D01*
X116697457Y-53429374D01*
X116670354Y-53550160D01*
X116616574Y-53642796D01*
X116535605Y-53707693D01*
X116426939Y-53745263D01*
X116292923Y-53755963D01*
X116170491Y-53746148D01*
X116051266Y-53722796D01*
X116020823Y-53713982D01*
X115955091Y-53695188D01*
X115904108Y-53684451D01*
X115879169Y-53684052D01*
X115866253Y-53711176D01*
X115863547Y-53758161D01*
X115870131Y-53807411D01*
X115885087Y-53841329D01*
X115887500Y-53843614D01*
X115945214Y-53874190D01*
X116031715Y-53899887D01*
X116136885Y-53919490D01*
X116250603Y-53931786D01*
X116362754Y-53935560D01*
X116463217Y-53929599D01*
X116519434Y-53919432D01*
X116652732Y-53870188D01*
X116758773Y-53796415D01*
X116838810Y-53696322D01*
X116894092Y-53568118D01*
X116925873Y-53410011D01*
X116932904Y-53327478D01*
X116929669Y-53148874D01*
X116928796Y-53144615D01*
X116708376Y-53144615D01*
X116038923Y-53144615D01*
X116039244Y-53071346D01*
X116055726Y-52984574D01*
X116098575Y-52898674D01*
X116158980Y-52829153D01*
X116189177Y-52807556D01*
X116268950Y-52779296D01*
X116365561Y-52771545D01*
X116462474Y-52784489D01*
X116517371Y-52803886D01*
X116592897Y-52858985D01*
X116654002Y-52940085D01*
X116691942Y-53034522D01*
X116697706Y-53065064D01*
X116708376Y-53144615D01*
X116928796Y-53144615D01*
X116898163Y-52995234D01*
X116837585Y-52863731D01*
X116779422Y-52785562D01*
X116692270Y-52701143D01*
X116600431Y-52645619D01*
X116492607Y-52613715D01*
X116385403Y-52601541D01*
X116231050Y-52607898D01*
G36*
X128903296Y-52154581D02*
X128854007Y-52173616D01*
X128847780Y-52178857D01*
X128840290Y-52190063D01*
X128834106Y-52209622D01*
X128829105Y-52240990D01*
X128825167Y-52287625D01*
X128822170Y-52352984D01*
X128819994Y-52440522D01*
X128818518Y-52553698D01*
X128817621Y-52695969D01*
X128817181Y-52870790D01*
X128817077Y-53055997D01*
X128816994Y-53263318D01*
X128817050Y-53434925D01*
X128817695Y-53574179D01*
X128819384Y-53684441D01*
X128822569Y-53769075D01*
X128827703Y-53831441D01*
X128835239Y-53874900D01*
X128845630Y-53902814D01*
X128859328Y-53918546D01*
X128876787Y-53925455D01*
X128898460Y-53926905D01*
X128924798Y-53926256D01*
X128934307Y-53926154D01*
X128963185Y-53926700D01*
X128986901Y-53926011D01*
X129005966Y-53920597D01*
X129020888Y-53906969D01*
X129032176Y-53881637D01*
X129040339Y-53841111D01*
X129045886Y-53781902D01*
X129049327Y-53700519D01*
X129051169Y-53593474D01*
X129051923Y-53457275D01*
X129052098Y-53288434D01*
X129052169Y-53118102D01*
X129052800Y-52333769D01*
X129367910Y-53115308D01*
X129434837Y-53280435D01*
X129497889Y-53434338D01*
X129555461Y-53573224D01*
X129605949Y-53693298D01*
X129647751Y-53790768D01*
X129679263Y-53861838D01*
X129698881Y-53902715D01*
X129704318Y-53911201D01*
X129737181Y-53920966D01*
X129788691Y-53925513D01*
X129794000Y-53925555D01*
X129846349Y-53921695D01*
X129882144Y-53912290D01*
X129883980Y-53911201D01*
X129895364Y-53890454D01*
X129919087Y-53837012D01*
X129953597Y-53754704D01*
X129997343Y-53647359D01*
X130048773Y-53518808D01*
X130106337Y-53372880D01*
X130168484Y-53213404D01*
X130206365Y-53115308D01*
X130507154Y-52333769D01*
X130526692Y-53916385D01*
X130614717Y-53922144D01*
X130678114Y-53920480D01*
X130721174Y-53908071D01*
X130727063Y-53903583D01*
X130733469Y-53878022D01*
X130738970Y-53818393D01*
X130743568Y-53729694D01*
X130747265Y-53616921D01*
X130750064Y-53485072D01*
X130751968Y-53339146D01*
X130752979Y-53184140D01*
X130753100Y-53025052D01*
X130752333Y-52866880D01*
X130750682Y-52714621D01*
X130748148Y-52573273D01*
X130744734Y-52447834D01*
X130740443Y-52343302D01*
X130735278Y-52264674D01*
X130729240Y-52216948D01*
X130726182Y-52206769D01*
X130708130Y-52179599D01*
X130681273Y-52163920D01*
X130634779Y-52155767D01*
X130576665Y-52152021D01*
X130473960Y-52153082D01*
X130400489Y-52169929D01*
X130348393Y-52206055D01*
X130309812Y-52264952D01*
X130306451Y-52272106D01*
X130290397Y-52309659D01*
X130262073Y-52378612D01*
X130223477Y-52473986D01*
X130176610Y-52590805D01*
X130123471Y-52724090D01*
X130066061Y-52868863D01*
X130028305Y-52964473D01*
X129970882Y-53108755D01*
X129917596Y-53240007D01*
X129870185Y-53354157D01*
X129830384Y-53447134D01*
X129799927Y-53514863D01*
X129780551Y-53553272D01*
X129774341Y-53560396D01*
X129764197Y-53539397D01*
X129741055Y-53486337D01*
X129706649Y-53405352D01*
X129662713Y-53300574D01*
X129610980Y-53176138D01*
X129553183Y-53036179D01*
X129491056Y-52884829D01*
X129490891Y-52884426D01*
X129411225Y-52691306D01*
X129344361Y-52532671D01*
X129289346Y-52406427D01*
X129245224Y-52310484D01*
X129211043Y-52242749D01*
X129185850Y-52201132D01*
X129172442Y-52185926D01*
X129121751Y-52162564D01*
X129050865Y-52149353D01*
X128973481Y-52146593D01*
X128903296Y-52154581D01*
X128903296Y-52154581D01*
G37*
X128903296Y-52154581D02*
X128854007Y-52173616D01*
X128847780Y-52178857D01*
X128840290Y-52190063D01*
X128834106Y-52209622D01*
X128829105Y-52240990D01*
X128825167Y-52287625D01*
X128822170Y-52352984D01*
X128819994Y-52440522D01*
X128818518Y-52553698D01*
X128817621Y-52695969D01*
X128817181Y-52870790D01*
X128817077Y-53055997D01*
X128816994Y-53263318D01*
X128817050Y-53434925D01*
X128817695Y-53574179D01*
X128819384Y-53684441D01*
X128822569Y-53769075D01*
X128827703Y-53831441D01*
X128835239Y-53874900D01*
X128845630Y-53902814D01*
X128859328Y-53918546D01*
X128876787Y-53925455D01*
X128898460Y-53926905D01*
X128924798Y-53926256D01*
X128934307Y-53926154D01*
X128963185Y-53926700D01*
X128986901Y-53926011D01*
X129005966Y-53920597D01*
X129020888Y-53906969D01*
X129032176Y-53881637D01*
X129040339Y-53841111D01*
X129045886Y-53781902D01*
X129049327Y-53700519D01*
X129051169Y-53593474D01*
X129051923Y-53457275D01*
X129052098Y-53288434D01*
X129052169Y-53118102D01*
X129052800Y-52333769D01*
X129367910Y-53115308D01*
X129434837Y-53280435D01*
X129497889Y-53434338D01*
X129555461Y-53573224D01*
X129605949Y-53693298D01*
X129647751Y-53790768D01*
X129679263Y-53861838D01*
X129698881Y-53902715D01*
X129704318Y-53911201D01*
X129737181Y-53920966D01*
X129788691Y-53925513D01*
X129794000Y-53925555D01*
X129846349Y-53921695D01*
X129882144Y-53912290D01*
X129883980Y-53911201D01*
X129895364Y-53890454D01*
X129919087Y-53837012D01*
X129953597Y-53754704D01*
X129997343Y-53647359D01*
X130048773Y-53518808D01*
X130106337Y-53372880D01*
X130168484Y-53213404D01*
X130206365Y-53115308D01*
X130507154Y-52333769D01*
X130526692Y-53916385D01*
X130614717Y-53922144D01*
X130678114Y-53920480D01*
X130721174Y-53908071D01*
X130727063Y-53903583D01*
X130733469Y-53878022D01*
X130738970Y-53818393D01*
X130743568Y-53729694D01*
X130747265Y-53616921D01*
X130750064Y-53485072D01*
X130751968Y-53339146D01*
X130752979Y-53184140D01*
X130753100Y-53025052D01*
X130752333Y-52866880D01*
X130750682Y-52714621D01*
X130748148Y-52573273D01*
X130744734Y-52447834D01*
X130740443Y-52343302D01*
X130735278Y-52264674D01*
X130729240Y-52216948D01*
X130726182Y-52206769D01*
X130708130Y-52179599D01*
X130681273Y-52163920D01*
X130634779Y-52155767D01*
X130576665Y-52152021D01*
X130473960Y-52153082D01*
X130400489Y-52169929D01*
X130348393Y-52206055D01*
X130309812Y-52264952D01*
X130306451Y-52272106D01*
X130290397Y-52309659D01*
X130262073Y-52378612D01*
X130223477Y-52473986D01*
X130176610Y-52590805D01*
X130123471Y-52724090D01*
X130066061Y-52868863D01*
X130028305Y-52964473D01*
X129970882Y-53108755D01*
X129917596Y-53240007D01*
X129870185Y-53354157D01*
X129830384Y-53447134D01*
X129799927Y-53514863D01*
X129780551Y-53553272D01*
X129774341Y-53560396D01*
X129764197Y-53539397D01*
X129741055Y-53486337D01*
X129706649Y-53405352D01*
X129662713Y-53300574D01*
X129610980Y-53176138D01*
X129553183Y-53036179D01*
X129491056Y-52884829D01*
X129490891Y-52884426D01*
X129411225Y-52691306D01*
X129344361Y-52532671D01*
X129289346Y-52406427D01*
X129245224Y-52310484D01*
X129211043Y-52242749D01*
X129185850Y-52201132D01*
X129172442Y-52185926D01*
X129121751Y-52162564D01*
X129050865Y-52149353D01*
X128973481Y-52146593D01*
X128903296Y-52154581D01*
G36*
X128109196Y-52559346D02*
X128103923Y-52970539D01*
X127777063Y-52559346D01*
X127450202Y-52148154D01*
X127343485Y-52148154D01*
X127282496Y-52151065D01*
X127239115Y-52158555D01*
X127226124Y-52165376D01*
X127224616Y-52179944D01*
X127234555Y-52204707D01*
X127258197Y-52242709D01*
X127297797Y-52296993D01*
X127355609Y-52370603D01*
X127433888Y-52466581D01*
X127534891Y-52587971D01*
X127572570Y-52632907D01*
X127651803Y-52728128D01*
X127721721Y-52813794D01*
X127778636Y-52885253D01*
X127818859Y-52937848D01*
X127838704Y-52966927D01*
X127840154Y-52970636D01*
X127828778Y-52990626D01*
X127796683Y-53037441D01*
X127746913Y-53106887D01*
X127682516Y-53194769D01*
X127606536Y-53296892D01*
X127522020Y-53409063D01*
X127515985Y-53417021D01*
X127410522Y-53557718D01*
X127325033Y-53675320D01*
X127260628Y-53768209D01*
X127218413Y-53834768D01*
X127199497Y-53873378D01*
X127198645Y-53880369D01*
X127220737Y-53909795D01*
X127271517Y-53922709D01*
X127316359Y-53925463D01*
X127354768Y-53921825D01*
X127390958Y-53908150D01*
X127429147Y-53880793D01*
X127473553Y-53836111D01*
X127528390Y-53770460D01*
X127597876Y-53680196D01*
X127680791Y-53569011D01*
X127761169Y-53460568D01*
X127839608Y-53354739D01*
X127910990Y-53258428D01*
X127970194Y-53178544D01*
X128012103Y-53121993D01*
X128017057Y-53115308D01*
X128103923Y-52998077D01*
X128123461Y-53916385D01*
X128211486Y-53922144D01*
X128274883Y-53920480D01*
X128317944Y-53908071D01*
X128323832Y-53903583D01*
X128330079Y-53888219D01*
X128335251Y-53853891D01*
X128339428Y-53797809D01*
X128342688Y-53717186D01*
X128345110Y-53609234D01*
X128346774Y-53471167D01*
X128347759Y-53300195D01*
X128348142Y-53093531D01*
X128348154Y-53044613D01*
X128347883Y-52866863D01*
X128347111Y-52700612D01*
X128345893Y-52550062D01*
X128344289Y-52419416D01*
X128342355Y-52312874D01*
X128340149Y-52234641D01*
X128337729Y-52188917D01*
X128336294Y-52179059D01*
X128316530Y-52159486D01*
X128271485Y-52149951D01*
X128219452Y-52148154D01*
X128114469Y-52148154D01*
X128109196Y-52559346D01*
X128109196Y-52559346D01*
G37*
X128109196Y-52559346D02*
X128103923Y-52970539D01*
X127777063Y-52559346D01*
X127450202Y-52148154D01*
X127343485Y-52148154D01*
X127282496Y-52151065D01*
X127239115Y-52158555D01*
X127226124Y-52165376D01*
X127224616Y-52179944D01*
X127234555Y-52204707D01*
X127258197Y-52242709D01*
X127297797Y-52296993D01*
X127355609Y-52370603D01*
X127433888Y-52466581D01*
X127534891Y-52587971D01*
X127572570Y-52632907D01*
X127651803Y-52728128D01*
X127721721Y-52813794D01*
X127778636Y-52885253D01*
X127818859Y-52937848D01*
X127838704Y-52966927D01*
X127840154Y-52970636D01*
X127828778Y-52990626D01*
X127796683Y-53037441D01*
X127746913Y-53106887D01*
X127682516Y-53194769D01*
X127606536Y-53296892D01*
X127522020Y-53409063D01*
X127515985Y-53417021D01*
X127410522Y-53557718D01*
X127325033Y-53675320D01*
X127260628Y-53768209D01*
X127218413Y-53834768D01*
X127199497Y-53873378D01*
X127198645Y-53880369D01*
X127220737Y-53909795D01*
X127271517Y-53922709D01*
X127316359Y-53925463D01*
X127354768Y-53921825D01*
X127390958Y-53908150D01*
X127429147Y-53880793D01*
X127473553Y-53836111D01*
X127528390Y-53770460D01*
X127597876Y-53680196D01*
X127680791Y-53569011D01*
X127761169Y-53460568D01*
X127839608Y-53354739D01*
X127910990Y-53258428D01*
X127970194Y-53178544D01*
X128012103Y-53121993D01*
X128017057Y-53115308D01*
X128103923Y-52998077D01*
X128123461Y-53916385D01*
X128211486Y-53922144D01*
X128274883Y-53920480D01*
X128317944Y-53908071D01*
X128323832Y-53903583D01*
X128330079Y-53888219D01*
X128335251Y-53853891D01*
X128339428Y-53797809D01*
X128342688Y-53717186D01*
X128345110Y-53609234D01*
X128346774Y-53471167D01*
X128347759Y-53300195D01*
X128348142Y-53093531D01*
X128348154Y-53044613D01*
X128347883Y-52866863D01*
X128347111Y-52700612D01*
X128345893Y-52550062D01*
X128344289Y-52419416D01*
X128342355Y-52312874D01*
X128340149Y-52234641D01*
X128337729Y-52188917D01*
X128336294Y-52179059D01*
X128316530Y-52159486D01*
X128271485Y-52149951D01*
X128219452Y-52148154D01*
X128114469Y-52148154D01*
X128109196Y-52559346D01*
G36*
X125756838Y-52152651D02*
X125329461Y-52157923D01*
X125329461Y-52333769D01*
X125666500Y-52339115D01*
X126003538Y-52344461D01*
X126003538Y-52948263D01*
X125686038Y-52953631D01*
X125368538Y-52959000D01*
X125368538Y-53134846D01*
X125686038Y-53140215D01*
X126003538Y-53145583D01*
X126003538Y-53512422D01*
X126004492Y-53658205D01*
X126007459Y-53767636D01*
X126012602Y-53843397D01*
X126020081Y-53888171D01*
X126026984Y-53902708D01*
X126059306Y-53916536D01*
X126112222Y-53924532D01*
X126169010Y-53925815D01*
X126212948Y-53919505D01*
X126224974Y-53913128D01*
X126227700Y-53891460D01*
X126230233Y-53834753D01*
X126232511Y-53747043D01*
X126234474Y-53632369D01*
X126236062Y-53494768D01*
X126237214Y-53338276D01*
X126237869Y-53166933D01*
X126238000Y-53046059D01*
X126237811Y-52834979D01*
X126237179Y-52659788D01*
X126236005Y-52517299D01*
X126234194Y-52404325D01*
X126231645Y-52317681D01*
X126228262Y-52254178D01*
X126223947Y-52210632D01*
X126218603Y-52183854D01*
X126212130Y-52170659D01*
X126211107Y-52169697D01*
X126185271Y-52161569D01*
X126128931Y-52155881D01*
X126039957Y-52152555D01*
X125916214Y-52151510D01*
X125756838Y-52152651D01*
X125756838Y-52152651D01*
G37*
X125756838Y-52152651D02*
X125329461Y-52157923D01*
X125329461Y-52333769D01*
X125666500Y-52339115D01*
X126003538Y-52344461D01*
X126003538Y-52948263D01*
X125686038Y-52953631D01*
X125368538Y-52959000D01*
X125368538Y-53134846D01*
X125686038Y-53140215D01*
X126003538Y-53145583D01*
X126003538Y-53512422D01*
X126004492Y-53658205D01*
X126007459Y-53767636D01*
X126012602Y-53843397D01*
X126020081Y-53888171D01*
X126026984Y-53902708D01*
X126059306Y-53916536D01*
X126112222Y-53924532D01*
X126169010Y-53925815D01*
X126212948Y-53919505D01*
X126224974Y-53913128D01*
X126227700Y-53891460D01*
X126230233Y-53834753D01*
X126232511Y-53747043D01*
X126234474Y-53632369D01*
X126236062Y-53494768D01*
X126237214Y-53338276D01*
X126237869Y-53166933D01*
X126238000Y-53046059D01*
X126237811Y-52834979D01*
X126237179Y-52659788D01*
X126236005Y-52517299D01*
X126234194Y-52404325D01*
X126231645Y-52317681D01*
X126228262Y-52254178D01*
X126223947Y-52210632D01*
X126218603Y-52183854D01*
X126212130Y-52170659D01*
X126211107Y-52169697D01*
X126185271Y-52161569D01*
X126128931Y-52155881D01*
X126039957Y-52152555D01*
X125916214Y-52151510D01*
X125756838Y-52152651D01*
G36*
X124865423Y-52620940D02*
X124762846Y-52626846D01*
X124757686Y-53260523D01*
X124756523Y-53443437D01*
X124756387Y-53590621D01*
X124757381Y-53705410D01*
X124759603Y-53791138D01*
X124763154Y-53851142D01*
X124768135Y-53888756D01*
X124774646Y-53907316D01*
X124777224Y-53909877D01*
X124813043Y-53920633D01*
X124865772Y-53925329D01*
X124917964Y-53923648D01*
X124952174Y-53915269D01*
X124954974Y-53913128D01*
X124958103Y-53891138D01*
X124960962Y-53834757D01*
X124963458Y-53748670D01*
X124965498Y-53637563D01*
X124966989Y-53506122D01*
X124967837Y-53359032D01*
X124968000Y-53257569D01*
X124968000Y-52615035D01*
X124865423Y-52620940D01*
X124865423Y-52620940D01*
G37*
X124865423Y-52620940D02*
X124762846Y-52626846D01*
X124757686Y-53260523D01*
X124756523Y-53443437D01*
X124756387Y-53590621D01*
X124757381Y-53705410D01*
X124759603Y-53791138D01*
X124763154Y-53851142D01*
X124768135Y-53888756D01*
X124774646Y-53907316D01*
X124777224Y-53909877D01*
X124813043Y-53920633D01*
X124865772Y-53925329D01*
X124917964Y-53923648D01*
X124952174Y-53915269D01*
X124954974Y-53913128D01*
X124958103Y-53891138D01*
X124960962Y-53834757D01*
X124963458Y-53748670D01*
X124965498Y-53637563D01*
X124966989Y-53506122D01*
X124967837Y-53359032D01*
X124968000Y-53257569D01*
X124968000Y-52615035D01*
X124865423Y-52620940D01*
G36*
X123708343Y-52601993D02*
X123656717Y-52619116D01*
X123629668Y-52654547D01*
X123620263Y-52713926D01*
X123619846Y-52737169D01*
X123619846Y-52836349D01*
X123693115Y-52821079D01*
X123788047Y-52807966D01*
X123863192Y-52816442D01*
X123928559Y-52850612D01*
X123994155Y-52914578D01*
X124030445Y-52959378D01*
X124108307Y-53060302D01*
X124108307Y-53481368D01*
X124108313Y-53624213D01*
X124109216Y-53732700D01*
X124112345Y-53811546D01*
X124119030Y-53865469D01*
X124130600Y-53899185D01*
X124148384Y-53917411D01*
X124173712Y-53924864D01*
X124207912Y-53926260D01*
X124233649Y-53926154D01*
X124281362Y-53922492D01*
X124309656Y-53913630D01*
X124310205Y-53913128D01*
X124313334Y-53891138D01*
X124316193Y-53834757D01*
X124318689Y-53748669D01*
X124320728Y-53637562D01*
X124322219Y-53506119D01*
X124323068Y-53359026D01*
X124323230Y-53257519D01*
X124323230Y-52614936D01*
X124230423Y-52620891D01*
X124137615Y-52626846D01*
X124127846Y-52724538D01*
X124118077Y-52822231D01*
X124079760Y-52765635D01*
X124002399Y-52679975D01*
X123908824Y-52622425D01*
X123807685Y-52598028D01*
X123791476Y-52597538D01*
X123708343Y-52601993D01*
X123708343Y-52601993D01*
G37*
X123708343Y-52601993D02*
X123656717Y-52619116D01*
X123629668Y-52654547D01*
X123620263Y-52713926D01*
X123619846Y-52737169D01*
X123619846Y-52836349D01*
X123693115Y-52821079D01*
X123788047Y-52807966D01*
X123863192Y-52816442D01*
X123928559Y-52850612D01*
X123994155Y-52914578D01*
X124030445Y-52959378D01*
X124108307Y-53060302D01*
X124108307Y-53481368D01*
X124108313Y-53624213D01*
X124109216Y-53732700D01*
X124112345Y-53811546D01*
X124119030Y-53865469D01*
X124130600Y-53899185D01*
X124148384Y-53917411D01*
X124173712Y-53924864D01*
X124207912Y-53926260D01*
X124233649Y-53926154D01*
X124281362Y-53922492D01*
X124309656Y-53913630D01*
X124310205Y-53913128D01*
X124313334Y-53891138D01*
X124316193Y-53834757D01*
X124318689Y-53748669D01*
X124320728Y-53637562D01*
X124322219Y-53506119D01*
X124323068Y-53359026D01*
X124323230Y-53257519D01*
X124323230Y-52614936D01*
X124230423Y-52620891D01*
X124137615Y-52626846D01*
X124127846Y-52724538D01*
X124118077Y-52822231D01*
X124079760Y-52765635D01*
X124002399Y-52679975D01*
X123908824Y-52622425D01*
X123807685Y-52598028D01*
X123791476Y-52597538D01*
X123708343Y-52601993D01*
G36*
X122708740Y-52601661D02*
X122585370Y-52625072D01*
X122486375Y-52679017D01*
X122411710Y-52763519D01*
X122407438Y-52770505D01*
X122368336Y-52836010D01*
X122282879Y-52757239D01*
X122183364Y-52675942D01*
X122091425Y-52625724D01*
X121997450Y-52602568D01*
X121909234Y-52601136D01*
X121785996Y-52623833D01*
X121688037Y-52675582D01*
X121612819Y-52757991D01*
X121585328Y-52806288D01*
X121571270Y-52836113D01*
X121560386Y-52864998D01*
X121552272Y-52898223D01*
X121546522Y-52941064D01*
X121542728Y-52998800D01*
X121540486Y-53076708D01*
X121539388Y-53180066D01*
X121539029Y-53314153D01*
X121539000Y-53408385D01*
X121539000Y-53916385D01*
X121734384Y-53916385D01*
X121744621Y-53447461D01*
X121748716Y-53284416D01*
X121753718Y-53155594D01*
X121760606Y-53056144D01*
X121770358Y-52981212D01*
X121783955Y-52925946D01*
X121802374Y-52885493D01*
X121826595Y-52855001D01*
X121857597Y-52829616D01*
X121871113Y-52820461D01*
X121952111Y-52789043D01*
X122040341Y-52795369D01*
X122134500Y-52839046D01*
X122233287Y-52919683D01*
X122246891Y-52933364D01*
X122329551Y-53018323D01*
X122340077Y-53916385D01*
X122535461Y-53916385D01*
X122546117Y-53457231D01*
X122550662Y-53291550D01*
X122556333Y-53160175D01*
X122564025Y-53058336D01*
X122574633Y-52981262D01*
X122589051Y-52924185D01*
X122608175Y-52882333D01*
X122632898Y-52850936D01*
X122664117Y-52825225D01*
X122664745Y-52824784D01*
X122728278Y-52799839D01*
X122807984Y-52794586D01*
X122886112Y-52809319D01*
X122912547Y-52820664D01*
X122955393Y-52850107D01*
X123010042Y-52896655D01*
X123047967Y-52933364D01*
X123130628Y-53018323D01*
X123141154Y-53916385D01*
X123229804Y-53922170D01*
X123286015Y-53922827D01*
X123324736Y-53917753D01*
X123332381Y-53914029D01*
X123335727Y-53891816D01*
X123338784Y-53835221D01*
X123341453Y-53748937D01*
X123343634Y-53637658D01*
X123345227Y-53506079D01*
X123346134Y-53358894D01*
X123346307Y-53257519D01*
X123346307Y-52614936D01*
X123253500Y-52620891D01*
X123160692Y-52626846D01*
X123148664Y-52815356D01*
X123063189Y-52736568D01*
X122967373Y-52660898D01*
X122874090Y-52617111D01*
X122771565Y-52600725D01*
X122708740Y-52601661D01*
X122708740Y-52601661D01*
G37*
X122708740Y-52601661D02*
X122585370Y-52625072D01*
X122486375Y-52679017D01*
X122411710Y-52763519D01*
X122407438Y-52770505D01*
X122368336Y-52836010D01*
X122282879Y-52757239D01*
X122183364Y-52675942D01*
X122091425Y-52625724D01*
X121997450Y-52602568D01*
X121909234Y-52601136D01*
X121785996Y-52623833D01*
X121688037Y-52675582D01*
X121612819Y-52757991D01*
X121585328Y-52806288D01*
X121571270Y-52836113D01*
X121560386Y-52864998D01*
X121552272Y-52898223D01*
X121546522Y-52941064D01*
X121542728Y-52998800D01*
X121540486Y-53076708D01*
X121539388Y-53180066D01*
X121539029Y-53314153D01*
X121539000Y-53408385D01*
X121539000Y-53916385D01*
X121734384Y-53916385D01*
X121744621Y-53447461D01*
X121748716Y-53284416D01*
X121753718Y-53155594D01*
X121760606Y-53056144D01*
X121770358Y-52981212D01*
X121783955Y-52925946D01*
X121802374Y-52885493D01*
X121826595Y-52855001D01*
X121857597Y-52829616D01*
X121871113Y-52820461D01*
X121952111Y-52789043D01*
X122040341Y-52795369D01*
X122134500Y-52839046D01*
X122233287Y-52919683D01*
X122246891Y-52933364D01*
X122329551Y-53018323D01*
X122340077Y-53916385D01*
X122535461Y-53916385D01*
X122546117Y-53457231D01*
X122550662Y-53291550D01*
X122556333Y-53160175D01*
X122564025Y-53058336D01*
X122574633Y-52981262D01*
X122589051Y-52924185D01*
X122608175Y-52882333D01*
X122632898Y-52850936D01*
X122664117Y-52825225D01*
X122664745Y-52824784D01*
X122728278Y-52799839D01*
X122807984Y-52794586D01*
X122886112Y-52809319D01*
X122912547Y-52820664D01*
X122955393Y-52850107D01*
X123010042Y-52896655D01*
X123047967Y-52933364D01*
X123130628Y-53018323D01*
X123141154Y-53916385D01*
X123229804Y-53922170D01*
X123286015Y-53922827D01*
X123324736Y-53917753D01*
X123332381Y-53914029D01*
X123335727Y-53891816D01*
X123338784Y-53835221D01*
X123341453Y-53748937D01*
X123343634Y-53637658D01*
X123345227Y-53506079D01*
X123346134Y-53358894D01*
X123346307Y-53257519D01*
X123346307Y-52614936D01*
X123253500Y-52620891D01*
X123160692Y-52626846D01*
X123148664Y-52815356D01*
X123063189Y-52736568D01*
X122967373Y-52660898D01*
X122874090Y-52617111D01*
X122771565Y-52600725D01*
X122708740Y-52601661D01*
G36*
X120994446Y-52778269D02*
X120972791Y-52850791D01*
X120943202Y-52951046D01*
X120908560Y-53069219D01*
X120871743Y-53195491D01*
X120842574Y-53296038D01*
X120809870Y-53407174D01*
X120780289Y-53504174D01*
X120755677Y-53581256D01*
X120737885Y-53632641D01*
X120728760Y-53652548D01*
X120728529Y-53652615D01*
X120720826Y-53634531D01*
X120704573Y-53583513D01*
X120681176Y-53504418D01*
X120652038Y-53402099D01*
X120618564Y-53281413D01*
X120582159Y-53147215D01*
X120580151Y-53139731D01*
X120442634Y-52626846D01*
X120230376Y-52626846D01*
X120079912Y-53144615D01*
X120040512Y-53280227D01*
X120004781Y-53403273D01*
X119974140Y-53508852D01*
X119950012Y-53592061D01*
X119933818Y-53647997D01*
X119926982Y-53671758D01*
X119926873Y-53672154D01*
X119920983Y-53657242D01*
X119905953Y-53610027D01*
X119883379Y-53535782D01*
X119854854Y-53439778D01*
X119821974Y-53327285D01*
X119808690Y-53281385D01*
X119771443Y-53152641D01*
X119735130Y-53027670D01*
X119702119Y-52914578D01*
X119674777Y-52821477D01*
X119655472Y-52756474D01*
X119653209Y-52748961D01*
X119613337Y-52617077D01*
X119517360Y-52617077D01*
X119459537Y-52620398D01*
X119419692Y-52628853D01*
X119410431Y-52634797D01*
X119413458Y-52656803D01*
X119426752Y-52710698D01*
X119448690Y-52791145D01*
X119477649Y-52892811D01*
X119512009Y-53010358D01*
X119550145Y-53138451D01*
X119590437Y-53271755D01*
X119631261Y-53404934D01*
X119670995Y-53532652D01*
X119708017Y-53649574D01*
X119740704Y-53750364D01*
X119767435Y-53829687D01*
X119786587Y-53882206D01*
X119795650Y-53901731D01*
X119825927Y-53916337D01*
X119882025Y-53924937D01*
X119915965Y-53926154D01*
X119980577Y-53921612D01*
X120032277Y-53910039D01*
X120049204Y-53901731D01*
X120064833Y-53875139D01*
X120088736Y-53815137D01*
X120119401Y-53726143D01*
X120155316Y-53612580D01*
X120194969Y-53478867D01*
X120201116Y-53457451D01*
X120236579Y-53334442D01*
X120269180Y-53223352D01*
X120297179Y-53129952D01*
X120318837Y-53060009D01*
X120332413Y-53019294D01*
X120335435Y-53012023D01*
X120344368Y-53022497D01*
X120361587Y-53066582D01*
X120385737Y-53140017D01*
X120415461Y-53238544D01*
X120449402Y-53357904D01*
X120472246Y-53441534D01*
X120507368Y-53569216D01*
X120540451Y-53684263D01*
X120569829Y-53781293D01*
X120593839Y-53854924D01*
X120610814Y-53899775D01*
X120617488Y-53911086D01*
X120653177Y-53920556D01*
X120711591Y-53924855D01*
X120776734Y-53924072D01*
X120832610Y-53918295D01*
X120860519Y-53909750D01*
X120871456Y-53888326D01*
X120891819Y-53834825D01*
X120919916Y-53754633D01*
X120954051Y-53653134D01*
X120992530Y-53535712D01*
X121033659Y-53407753D01*
X121075745Y-53274641D01*
X121117093Y-53141761D01*
X121156009Y-53014497D01*
X121190798Y-52898234D01*
X121219767Y-52798357D01*
X121241221Y-52720251D01*
X121253467Y-52669300D01*
X121255692Y-52653720D01*
X121250206Y-52632340D01*
X121227676Y-52621260D01*
X121178999Y-52617342D01*
X121149413Y-52617077D01*
X121043134Y-52617077D01*
X120994446Y-52778269D01*
X120994446Y-52778269D01*
G37*
X120994446Y-52778269D02*
X120972791Y-52850791D01*
X120943202Y-52951046D01*
X120908560Y-53069219D01*
X120871743Y-53195491D01*
X120842574Y-53296038D01*
X120809870Y-53407174D01*
X120780289Y-53504174D01*
X120755677Y-53581256D01*
X120737885Y-53632641D01*
X120728760Y-53652548D01*
X120728529Y-53652615D01*
X120720826Y-53634531D01*
X120704573Y-53583513D01*
X120681176Y-53504418D01*
X120652038Y-53402099D01*
X120618564Y-53281413D01*
X120582159Y-53147215D01*
X120580151Y-53139731D01*
X120442634Y-52626846D01*
X120230376Y-52626846D01*
X120079912Y-53144615D01*
X120040512Y-53280227D01*
X120004781Y-53403273D01*
X119974140Y-53508852D01*
X119950012Y-53592061D01*
X119933818Y-53647997D01*
X119926982Y-53671758D01*
X119926873Y-53672154D01*
X119920983Y-53657242D01*
X119905953Y-53610027D01*
X119883379Y-53535782D01*
X119854854Y-53439778D01*
X119821974Y-53327285D01*
X119808690Y-53281385D01*
X119771443Y-53152641D01*
X119735130Y-53027670D01*
X119702119Y-52914578D01*
X119674777Y-52821477D01*
X119655472Y-52756474D01*
X119653209Y-52748961D01*
X119613337Y-52617077D01*
X119517360Y-52617077D01*
X119459537Y-52620398D01*
X119419692Y-52628853D01*
X119410431Y-52634797D01*
X119413458Y-52656803D01*
X119426752Y-52710698D01*
X119448690Y-52791145D01*
X119477649Y-52892811D01*
X119512009Y-53010358D01*
X119550145Y-53138451D01*
X119590437Y-53271755D01*
X119631261Y-53404934D01*
X119670995Y-53532652D01*
X119708017Y-53649574D01*
X119740704Y-53750364D01*
X119767435Y-53829687D01*
X119786587Y-53882206D01*
X119795650Y-53901731D01*
X119825927Y-53916337D01*
X119882025Y-53924937D01*
X119915965Y-53926154D01*
X119980577Y-53921612D01*
X120032277Y-53910039D01*
X120049204Y-53901731D01*
X120064833Y-53875139D01*
X120088736Y-53815137D01*
X120119401Y-53726143D01*
X120155316Y-53612580D01*
X120194969Y-53478867D01*
X120201116Y-53457451D01*
X120236579Y-53334442D01*
X120269180Y-53223352D01*
X120297179Y-53129952D01*
X120318837Y-53060009D01*
X120332413Y-53019294D01*
X120335435Y-53012023D01*
X120344368Y-53022497D01*
X120361587Y-53066582D01*
X120385737Y-53140017D01*
X120415461Y-53238544D01*
X120449402Y-53357904D01*
X120472246Y-53441534D01*
X120507368Y-53569216D01*
X120540451Y-53684263D01*
X120569829Y-53781293D01*
X120593839Y-53854924D01*
X120610814Y-53899775D01*
X120617488Y-53911086D01*
X120653177Y-53920556D01*
X120711591Y-53924855D01*
X120776734Y-53924072D01*
X120832610Y-53918295D01*
X120860519Y-53909750D01*
X120871456Y-53888326D01*
X120891819Y-53834825D01*
X120919916Y-53754633D01*
X120954051Y-53653134D01*
X120992530Y-53535712D01*
X121033659Y-53407753D01*
X121075745Y-53274641D01*
X121117093Y-53141761D01*
X121156009Y-53014497D01*
X121190798Y-52898234D01*
X121219767Y-52798357D01*
X121241221Y-52720251D01*
X121253467Y-52669300D01*
X121255692Y-52653720D01*
X121250206Y-52632340D01*
X121227676Y-52621260D01*
X121178999Y-52617342D01*
X121149413Y-52617077D01*
X121043134Y-52617077D01*
X120994446Y-52778269D01*
G36*
X117137961Y-52609853D02*
X117112200Y-52621493D01*
X117099009Y-52645645D01*
X117094369Y-52693001D01*
X117094000Y-52726817D01*
X117096303Y-52791487D01*
X117108881Y-52823592D01*
X117140233Y-52829604D01*
X117198862Y-52815994D01*
X117207795Y-52813447D01*
X117291960Y-52808742D01*
X117377062Y-52842754D01*
X117463309Y-52915602D01*
X117530516Y-52998077D01*
X117544410Y-53019663D01*
X117555084Y-53044456D01*
X117563124Y-53077962D01*
X117569116Y-53125684D01*
X117573645Y-53193129D01*
X117577296Y-53285802D01*
X117580654Y-53409207D01*
X117582461Y-53486538D01*
X117592230Y-53916385D01*
X117680881Y-53922170D01*
X117737092Y-53922827D01*
X117775813Y-53917753D01*
X117783458Y-53914029D01*
X117786804Y-53891816D01*
X117789861Y-53835221D01*
X117792529Y-53748937D01*
X117794710Y-53637658D01*
X117796304Y-53506079D01*
X117797211Y-53358894D01*
X117797384Y-53257519D01*
X117797384Y-52614936D01*
X117704577Y-52620891D01*
X117611769Y-52626846D01*
X117602000Y-52723632D01*
X117592230Y-52820418D01*
X117540285Y-52758447D01*
X117443201Y-52666423D01*
X117338335Y-52612379D01*
X117226295Y-52596539D01*
X117137961Y-52609853D01*
X117137961Y-52609853D01*
G37*
X117137961Y-52609853D02*
X117112200Y-52621493D01*
X117099009Y-52645645D01*
X117094369Y-52693001D01*
X117094000Y-52726817D01*
X117096303Y-52791487D01*
X117108881Y-52823592D01*
X117140233Y-52829604D01*
X117198862Y-52815994D01*
X117207795Y-52813447D01*
X117291960Y-52808742D01*
X117377062Y-52842754D01*
X117463309Y-52915602D01*
X117530516Y-52998077D01*
X117544410Y-53019663D01*
X117555084Y-53044456D01*
X117563124Y-53077962D01*
X117569116Y-53125684D01*
X117573645Y-53193129D01*
X117577296Y-53285802D01*
X117580654Y-53409207D01*
X117582461Y-53486538D01*
X117592230Y-53916385D01*
X117680881Y-53922170D01*
X117737092Y-53922827D01*
X117775813Y-53917753D01*
X117783458Y-53914029D01*
X117786804Y-53891816D01*
X117789861Y-53835221D01*
X117792529Y-53748937D01*
X117794710Y-53637658D01*
X117796304Y-53506079D01*
X117797211Y-53358894D01*
X117797384Y-53257519D01*
X117797384Y-52614936D01*
X117704577Y-52620891D01*
X117611769Y-52626846D01*
X117602000Y-52723632D01*
X117592230Y-52820418D01*
X117540285Y-52758447D01*
X117443201Y-52666423D01*
X117338335Y-52612379D01*
X117226295Y-52596539D01*
X117137961Y-52609853D01*
G36*
X124813476Y-52111966D02*
X124766016Y-52125769D01*
X124756984Y-52132523D01*
X124738805Y-52172982D01*
X124734433Y-52231789D01*
X124743214Y-52290989D01*
X124764241Y-52332374D01*
X124809581Y-52355073D01*
X124872549Y-52362288D01*
X124934894Y-52354017D01*
X124976373Y-52332374D01*
X124997876Y-52291987D01*
X125007072Y-52237250D01*
X125007077Y-52236077D01*
X124998237Y-52181300D01*
X124976920Y-52140338D01*
X124976373Y-52139780D01*
X124935642Y-52119533D01*
X124875681Y-52110074D01*
X124813476Y-52111966D01*
X124813476Y-52111966D01*
G37*
X124813476Y-52111966D02*
X124766016Y-52125769D01*
X124756984Y-52132523D01*
X124738805Y-52172982D01*
X124734433Y-52231789D01*
X124743214Y-52290989D01*
X124764241Y-52332374D01*
X124809581Y-52355073D01*
X124872549Y-52362288D01*
X124934894Y-52354017D01*
X124976373Y-52332374D01*
X124997876Y-52291987D01*
X125007072Y-52237250D01*
X125007077Y-52236077D01*
X124998237Y-52181300D01*
X124976920Y-52140338D01*
X124976373Y-52139780D01*
X124935642Y-52119533D01*
X124875681Y-52110074D01*
X124813476Y-52111966D01*
G36*
X122591200Y-50439927D02*
X122571575Y-50458752D01*
X122575813Y-50481837D01*
X122591616Y-50536488D01*
X122617188Y-50617549D01*
X122650734Y-50719862D01*
X122690458Y-50838273D01*
X122734567Y-50967624D01*
X122781264Y-51102758D01*
X122828755Y-51238520D01*
X122875245Y-51369754D01*
X122918937Y-51491302D01*
X122958038Y-51598008D01*
X122990752Y-51684717D01*
X123015283Y-51746270D01*
X123029838Y-51777514D01*
X123031466Y-51779749D01*
X123065994Y-51796399D01*
X123118450Y-51805588D01*
X123168005Y-51804835D01*
X123187953Y-51798405D01*
X123198557Y-51783969D01*
X123197846Y-51756365D01*
X123184317Y-51708746D01*
X123156467Y-51634265D01*
X123146348Y-51608785D01*
X123110234Y-51511097D01*
X123092972Y-51445090D01*
X123093996Y-51408538D01*
X123095011Y-51406538D01*
X123112335Y-51369882D01*
X123138869Y-51305232D01*
X123172443Y-51218657D01*
X123210890Y-51116226D01*
X123252040Y-51004010D01*
X123293723Y-50888076D01*
X123333771Y-50774495D01*
X123370015Y-50669336D01*
X123400285Y-50578667D01*
X123422414Y-50508559D01*
X123434231Y-50465080D01*
X123435399Y-50454075D01*
X123408578Y-50434512D01*
X123351349Y-50432465D01*
X123277923Y-50438538D01*
X123141154Y-50824147D01*
X123099884Y-50938962D01*
X123062452Y-51040190D01*
X123030945Y-51122421D01*
X123007450Y-51180244D01*
X122994055Y-51208250D01*
X122992277Y-51210032D01*
X122982670Y-51192483D01*
X122962963Y-51143389D01*
X122935214Y-51068339D01*
X122901481Y-50972926D01*
X122863823Y-50862740D01*
X122857520Y-50843961D01*
X122818809Y-50729919D01*
X122783153Y-50627842D01*
X122752768Y-50543834D01*
X122729865Y-50483999D01*
X122716659Y-50454439D01*
X122715813Y-50453192D01*
X122681828Y-50433755D01*
X122634348Y-50429563D01*
X122591200Y-50439927D01*
X122591200Y-50439927D01*
G37*
X122591200Y-50439927D02*
X122571575Y-50458752D01*
X122575813Y-50481837D01*
X122591616Y-50536488D01*
X122617188Y-50617549D01*
X122650734Y-50719862D01*
X122690458Y-50838273D01*
X122734567Y-50967624D01*
X122781264Y-51102758D01*
X122828755Y-51238520D01*
X122875245Y-51369754D01*
X122918937Y-51491302D01*
X122958038Y-51598008D01*
X122990752Y-51684717D01*
X123015283Y-51746270D01*
X123029838Y-51777514D01*
X123031466Y-51779749D01*
X123065994Y-51796399D01*
X123118450Y-51805588D01*
X123168005Y-51804835D01*
X123187953Y-51798405D01*
X123198557Y-51783969D01*
X123197846Y-51756365D01*
X123184317Y-51708746D01*
X123156467Y-51634265D01*
X123146348Y-51608785D01*
X123110234Y-51511097D01*
X123092972Y-51445090D01*
X123093996Y-51408538D01*
X123095011Y-51406538D01*
X123112335Y-51369882D01*
X123138869Y-51305232D01*
X123172443Y-51218657D01*
X123210890Y-51116226D01*
X123252040Y-51004010D01*
X123293723Y-50888076D01*
X123333771Y-50774495D01*
X123370015Y-50669336D01*
X123400285Y-50578667D01*
X123422414Y-50508559D01*
X123434231Y-50465080D01*
X123435399Y-50454075D01*
X123408578Y-50434512D01*
X123351349Y-50432465D01*
X123277923Y-50438538D01*
X123141154Y-50824147D01*
X123099884Y-50938962D01*
X123062452Y-51040190D01*
X123030945Y-51122421D01*
X123007450Y-51180244D01*
X122994055Y-51208250D01*
X122992277Y-51210032D01*
X122982670Y-51192483D01*
X122962963Y-51143389D01*
X122935214Y-51068339D01*
X122901481Y-50972926D01*
X122863823Y-50862740D01*
X122857520Y-50843961D01*
X122818809Y-50729919D01*
X122783153Y-50627842D01*
X122752768Y-50543834D01*
X122729865Y-50483999D01*
X122716659Y-50454439D01*
X122715813Y-50453192D01*
X122681828Y-50433755D01*
X122634348Y-50429563D01*
X122591200Y-50439927D01*
G36*
X131004037Y-50437745D02*
X130888285Y-50480322D01*
X130798658Y-50551948D01*
X130735143Y-50652637D01*
X130697727Y-50782403D01*
X130686398Y-50941261D01*
X130686400Y-50941369D01*
X130702943Y-51090384D01*
X130748394Y-51216482D01*
X130821252Y-51317400D01*
X130920018Y-51390870D01*
X131006956Y-51425681D01*
X131104481Y-51441443D01*
X131214848Y-51440900D01*
X131316943Y-51424644D01*
X131344275Y-51416269D01*
X131448234Y-51359812D01*
X131526778Y-51274021D01*
X131579430Y-51159650D01*
X131605713Y-51017451D01*
X131606835Y-51002310D01*
X131605727Y-50941026D01*
X131435200Y-50941026D01*
X131426416Y-51062201D01*
X131398244Y-51154727D01*
X131347870Y-51225344D01*
X131300456Y-51263649D01*
X131211092Y-51301448D01*
X131114742Y-51305394D01*
X131023287Y-51275475D01*
X131004446Y-51263972D01*
X130936354Y-51206406D01*
X130892264Y-51137643D01*
X130868592Y-51049245D01*
X130861754Y-50932775D01*
X130861776Y-50928049D01*
X130871967Y-50794823D01*
X130901761Y-50694155D01*
X130952843Y-50623877D01*
X131026894Y-50581823D01*
X131125599Y-50565825D01*
X131143289Y-50565538D01*
X131249449Y-50579893D01*
X131331142Y-50623452D01*
X131388944Y-50696959D01*
X131423435Y-50801159D01*
X131435192Y-50936795D01*
X131435200Y-50941026D01*
X131605727Y-50941026D01*
X131603886Y-50839271D01*
X131572810Y-50701359D01*
X131514590Y-50589809D01*
X131430210Y-50505853D01*
X131320654Y-50450726D01*
X131186905Y-50425662D01*
X131145926Y-50424203D01*
X131004037Y-50437745D01*
X131004037Y-50437745D01*
G37*
X131004037Y-50437745D02*
X130888285Y-50480322D01*
X130798658Y-50551948D01*
X130735143Y-50652637D01*
X130697727Y-50782403D01*
X130686398Y-50941261D01*
X130686400Y-50941369D01*
X130702943Y-51090384D01*
X130748394Y-51216482D01*
X130821252Y-51317400D01*
X130920018Y-51390870D01*
X131006956Y-51425681D01*
X131104481Y-51441443D01*
X131214848Y-51440900D01*
X131316943Y-51424644D01*
X131344275Y-51416269D01*
X131448234Y-51359812D01*
X131526778Y-51274021D01*
X131579430Y-51159650D01*
X131605713Y-51017451D01*
X131606835Y-51002310D01*
X131605727Y-50941026D01*
X131435200Y-50941026D01*
X131426416Y-51062201D01*
X131398244Y-51154727D01*
X131347870Y-51225344D01*
X131300456Y-51263649D01*
X131211092Y-51301448D01*
X131114742Y-51305394D01*
X131023287Y-51275475D01*
X131004446Y-51263972D01*
X130936354Y-51206406D01*
X130892264Y-51137643D01*
X130868592Y-51049245D01*
X130861754Y-50932775D01*
X130861776Y-50928049D01*
X130871967Y-50794823D01*
X130901761Y-50694155D01*
X130952843Y-50623877D01*
X131026894Y-50581823D01*
X131125599Y-50565825D01*
X131143289Y-50565538D01*
X131249449Y-50579893D01*
X131331142Y-50623452D01*
X131388944Y-50696959D01*
X131423435Y-50801159D01*
X131435192Y-50936795D01*
X131435200Y-50941026D01*
X131605727Y-50941026D01*
X131603886Y-50839271D01*
X131572810Y-50701359D01*
X131514590Y-50589809D01*
X131430210Y-50505853D01*
X131320654Y-50450726D01*
X131186905Y-50425662D01*
X131145926Y-50424203D01*
X131004037Y-50437745D01*
G36*
X128392013Y-50438295D02*
X128285116Y-50484951D01*
X128203702Y-50560168D01*
X128149922Y-50661808D01*
X128125928Y-50787732D01*
X128124870Y-50817416D01*
X128123461Y-50946538D01*
X128460500Y-50951884D01*
X128582421Y-50953959D01*
X128670699Y-50956250D01*
X128730761Y-50959542D01*
X128768037Y-50964625D01*
X128787954Y-50972284D01*
X128795943Y-50983307D01*
X128797430Y-50998480D01*
X128797429Y-51000730D01*
X128781354Y-51100757D01*
X128738252Y-51192842D01*
X128699631Y-51239822D01*
X128659120Y-51272740D01*
X128614835Y-51291640D01*
X128552346Y-51301567D01*
X128514978Y-51304418D01*
X128374855Y-51299538D01*
X128296914Y-51280899D01*
X128224781Y-51258236D01*
X128181579Y-51251836D01*
X128160095Y-51263105D01*
X128153118Y-51293448D01*
X128152769Y-51308997D01*
X128158775Y-51350971D01*
X128183749Y-51378493D01*
X128226038Y-51399454D01*
X128280637Y-51415060D01*
X128359217Y-51428588D01*
X128446684Y-51437567D01*
X128465384Y-51438675D01*
X128552654Y-51441540D01*
X128614836Y-51438248D01*
X128665704Y-51426757D01*
X128719031Y-51405028D01*
X128731098Y-51399325D01*
X128833294Y-51329934D01*
X128907865Y-51233156D01*
X128954541Y-51109507D01*
X128973053Y-50959508D01*
X128973384Y-50934347D01*
X128960173Y-50802230D01*
X128797012Y-50802230D01*
X128785625Y-50821745D01*
X128753096Y-50832764D01*
X128694328Y-50837715D01*
X128604222Y-50839027D01*
X128543538Y-50839077D01*
X128289538Y-50839077D01*
X128289611Y-50775577D01*
X128307253Y-50688940D01*
X128355364Y-50618877D01*
X128427039Y-50570541D01*
X128515376Y-50549087D01*
X128587077Y-50553484D01*
X128659391Y-50584397D01*
X128725280Y-50642931D01*
X128772732Y-50718032D01*
X128776757Y-50728003D01*
X128792357Y-50771792D01*
X128797012Y-50802230D01*
X128960173Y-50802230D01*
X128958378Y-50784282D01*
X128914857Y-50656737D01*
X128845066Y-50554261D01*
X128751251Y-50479402D01*
X128635655Y-50434708D01*
X128522241Y-50422339D01*
X128392013Y-50438295D01*
X128392013Y-50438295D01*
G37*
X128392013Y-50438295D02*
X128285116Y-50484951D01*
X128203702Y-50560168D01*
X128149922Y-50661808D01*
X128125928Y-50787732D01*
X128124870Y-50817416D01*
X128123461Y-50946538D01*
X128460500Y-50951884D01*
X128582421Y-50953959D01*
X128670699Y-50956250D01*
X128730761Y-50959542D01*
X128768037Y-50964625D01*
X128787954Y-50972284D01*
X128795943Y-50983307D01*
X128797430Y-50998480D01*
X128797429Y-51000730D01*
X128781354Y-51100757D01*
X128738252Y-51192842D01*
X128699631Y-51239822D01*
X128659120Y-51272740D01*
X128614835Y-51291640D01*
X128552346Y-51301567D01*
X128514978Y-51304418D01*
X128374855Y-51299538D01*
X128296914Y-51280899D01*
X128224781Y-51258236D01*
X128181579Y-51251836D01*
X128160095Y-51263105D01*
X128153118Y-51293448D01*
X128152769Y-51308997D01*
X128158775Y-51350971D01*
X128183749Y-51378493D01*
X128226038Y-51399454D01*
X128280637Y-51415060D01*
X128359217Y-51428588D01*
X128446684Y-51437567D01*
X128465384Y-51438675D01*
X128552654Y-51441540D01*
X128614836Y-51438248D01*
X128665704Y-51426757D01*
X128719031Y-51405028D01*
X128731098Y-51399325D01*
X128833294Y-51329934D01*
X128907865Y-51233156D01*
X128954541Y-51109507D01*
X128973053Y-50959508D01*
X128973384Y-50934347D01*
X128960173Y-50802230D01*
X128797012Y-50802230D01*
X128785625Y-50821745D01*
X128753096Y-50832764D01*
X128694328Y-50837715D01*
X128604222Y-50839027D01*
X128543538Y-50839077D01*
X128289538Y-50839077D01*
X128289611Y-50775577D01*
X128307253Y-50688940D01*
X128355364Y-50618877D01*
X128427039Y-50570541D01*
X128515376Y-50549087D01*
X128587077Y-50553484D01*
X128659391Y-50584397D01*
X128725280Y-50642931D01*
X128772732Y-50718032D01*
X128776757Y-50728003D01*
X128792357Y-50771792D01*
X128797012Y-50802230D01*
X128960173Y-50802230D01*
X128958378Y-50784282D01*
X128914857Y-50656737D01*
X128845066Y-50554261D01*
X128751251Y-50479402D01*
X128635655Y-50434708D01*
X128522241Y-50422339D01*
X128392013Y-50438295D01*
G36*
X126640421Y-50430261D02*
X126528555Y-50466550D01*
X126442342Y-50529806D01*
X126379821Y-50622212D01*
X126339033Y-50745950D01*
X126333828Y-50771828D01*
X126322380Y-50835234D01*
X126317998Y-50882065D01*
X126325382Y-50914932D01*
X126349233Y-50936447D01*
X126394251Y-50949222D01*
X126465137Y-50955868D01*
X126566590Y-50958996D01*
X126673850Y-50960736D01*
X127009664Y-50966077D01*
X127003285Y-51044231D01*
X126978418Y-51146534D01*
X126924661Y-51225352D01*
X126845477Y-51279114D01*
X126744329Y-51306247D01*
X126624681Y-51305181D01*
X126493533Y-51275495D01*
X126417131Y-51257157D01*
X126371952Y-51261860D01*
X126357471Y-51289862D01*
X126370508Y-51335758D01*
X126408013Y-51375537D01*
X126475142Y-51407395D01*
X126563004Y-51430025D01*
X126662710Y-51442118D01*
X126765370Y-51442369D01*
X126862094Y-51429468D01*
X126912077Y-51415408D01*
X126992552Y-51371029D01*
X127068452Y-51302057D01*
X127127806Y-51221145D01*
X127154597Y-51159050D01*
X127164841Y-51102161D01*
X127172358Y-51022348D01*
X127175688Y-50935744D01*
X127175737Y-50925619D01*
X127173614Y-50839077D01*
X127015423Y-50839077D01*
X126753711Y-50839077D01*
X126641257Y-50838102D01*
X126563476Y-50834905D01*
X126516010Y-50829080D01*
X126494497Y-50820219D01*
X126492109Y-50814654D01*
X126503888Y-50745280D01*
X126533132Y-50671331D01*
X126571511Y-50613007D01*
X126577973Y-50606447D01*
X126642771Y-50568471D01*
X126725571Y-50550473D01*
X126809365Y-50555066D01*
X126843830Y-50565596D01*
X126912777Y-50613171D01*
X126968314Y-50687887D01*
X127000337Y-50772187D01*
X127015423Y-50839077D01*
X127173614Y-50839077D01*
X127173560Y-50836914D01*
X127164757Y-50771518D01*
X127146144Y-50713815D01*
X127122115Y-50662829D01*
X127046257Y-50551778D01*
X126950269Y-50473858D01*
X126836351Y-50430131D01*
X126706705Y-50421660D01*
X126640421Y-50430261D01*
X126640421Y-50430261D01*
G37*
X126640421Y-50430261D02*
X126528555Y-50466550D01*
X126442342Y-50529806D01*
X126379821Y-50622212D01*
X126339033Y-50745950D01*
X126333828Y-50771828D01*
X126322380Y-50835234D01*
X126317998Y-50882065D01*
X126325382Y-50914932D01*
X126349233Y-50936447D01*
X126394251Y-50949222D01*
X126465137Y-50955868D01*
X126566590Y-50958996D01*
X126673850Y-50960736D01*
X127009664Y-50966077D01*
X127003285Y-51044231D01*
X126978418Y-51146534D01*
X126924661Y-51225352D01*
X126845477Y-51279114D01*
X126744329Y-51306247D01*
X126624681Y-51305181D01*
X126493533Y-51275495D01*
X126417131Y-51257157D01*
X126371952Y-51261860D01*
X126357471Y-51289862D01*
X126370508Y-51335758D01*
X126408013Y-51375537D01*
X126475142Y-51407395D01*
X126563004Y-51430025D01*
X126662710Y-51442118D01*
X126765370Y-51442369D01*
X126862094Y-51429468D01*
X126912077Y-51415408D01*
X126992552Y-51371029D01*
X127068452Y-51302057D01*
X127127806Y-51221145D01*
X127154597Y-51159050D01*
X127164841Y-51102161D01*
X127172358Y-51022348D01*
X127175688Y-50935744D01*
X127175737Y-50925619D01*
X127173614Y-50839077D01*
X127015423Y-50839077D01*
X126753711Y-50839077D01*
X126641257Y-50838102D01*
X126563476Y-50834905D01*
X126516010Y-50829080D01*
X126494497Y-50820219D01*
X126492109Y-50814654D01*
X126503888Y-50745280D01*
X126533132Y-50671331D01*
X126571511Y-50613007D01*
X126577973Y-50606447D01*
X126642771Y-50568471D01*
X126725571Y-50550473D01*
X126809365Y-50555066D01*
X126843830Y-50565596D01*
X126912777Y-50613171D01*
X126968314Y-50687887D01*
X127000337Y-50772187D01*
X127015423Y-50839077D01*
X127173614Y-50839077D01*
X127173560Y-50836914D01*
X127164757Y-50771518D01*
X127146144Y-50713815D01*
X127122115Y-50662829D01*
X127046257Y-50551778D01*
X126950269Y-50473858D01*
X126836351Y-50430131D01*
X126706705Y-50421660D01*
X126640421Y-50430261D01*
G36*
X125261077Y-51425231D02*
X125328282Y-51425231D01*
X125373015Y-51421962D01*
X125393230Y-51404344D01*
X125400953Y-51360657D01*
X125401551Y-51353814D01*
X125407615Y-51282397D01*
X125466230Y-51331527D01*
X125578171Y-51406063D01*
X125689828Y-51441594D01*
X125801627Y-51438184D01*
X125907657Y-51399303D01*
X125967640Y-51359571D01*
X126014063Y-51306237D01*
X126050680Y-51242825D01*
X126079518Y-51181543D01*
X126096740Y-51127106D01*
X126105269Y-51065173D01*
X126108032Y-50981402D01*
X126108148Y-50961021D01*
X126106139Y-50930991D01*
X125938221Y-50930991D01*
X125933077Y-51019542D01*
X125907708Y-51132105D01*
X125862122Y-51219020D01*
X125799901Y-51277153D01*
X125724627Y-51303368D01*
X125639882Y-51294532D01*
X125624832Y-51289333D01*
X125582090Y-51265494D01*
X125527326Y-51225305D01*
X125496560Y-51199137D01*
X125417384Y-51127607D01*
X125417384Y-50945863D01*
X125418651Y-50862277D01*
X125422043Y-50791291D01*
X125426948Y-50743604D01*
X125429625Y-50732222D01*
X125451295Y-50703179D01*
X125494051Y-50662343D01*
X125530127Y-50632931D01*
X125619952Y-50582084D01*
X125704392Y-50567296D01*
X125780374Y-50585616D01*
X125844822Y-50634096D01*
X125894662Y-50709785D01*
X125926820Y-50809733D01*
X125938221Y-50930991D01*
X126106139Y-50930991D01*
X126097214Y-50797610D01*
X126062627Y-50664002D01*
X126003466Y-50558215D01*
X125918808Y-50478266D01*
X125869911Y-50449032D01*
X125792412Y-50426435D01*
X125700412Y-50424798D01*
X125607293Y-50441858D01*
X125526438Y-50475356D01*
X125477069Y-50515404D01*
X125448595Y-50540669D01*
X125434530Y-50546000D01*
X125428468Y-50527608D01*
X125423348Y-50477011D01*
X125419584Y-50401078D01*
X125417592Y-50306677D01*
X125417384Y-50262692D01*
X125417384Y-49979385D01*
X125261077Y-49979385D01*
X125261077Y-51425231D01*
X125261077Y-51425231D01*
G37*
X125261077Y-51425231D02*
X125328282Y-51425231D01*
X125373015Y-51421962D01*
X125393230Y-51404344D01*
X125400953Y-51360657D01*
X125401551Y-51353814D01*
X125407615Y-51282397D01*
X125466230Y-51331527D01*
X125578171Y-51406063D01*
X125689828Y-51441594D01*
X125801627Y-51438184D01*
X125907657Y-51399303D01*
X125967640Y-51359571D01*
X126014063Y-51306237D01*
X126050680Y-51242825D01*
X126079518Y-51181543D01*
X126096740Y-51127106D01*
X126105269Y-51065173D01*
X126108032Y-50981402D01*
X126108148Y-50961021D01*
X126106139Y-50930991D01*
X125938221Y-50930991D01*
X125933077Y-51019542D01*
X125907708Y-51132105D01*
X125862122Y-51219020D01*
X125799901Y-51277153D01*
X125724627Y-51303368D01*
X125639882Y-51294532D01*
X125624832Y-51289333D01*
X125582090Y-51265494D01*
X125527326Y-51225305D01*
X125496560Y-51199137D01*
X125417384Y-51127607D01*
X125417384Y-50945863D01*
X125418651Y-50862277D01*
X125422043Y-50791291D01*
X125426948Y-50743604D01*
X125429625Y-50732222D01*
X125451295Y-50703179D01*
X125494051Y-50662343D01*
X125530127Y-50632931D01*
X125619952Y-50582084D01*
X125704392Y-50567296D01*
X125780374Y-50585616D01*
X125844822Y-50634096D01*
X125894662Y-50709785D01*
X125926820Y-50809733D01*
X125938221Y-50930991D01*
X126106139Y-50930991D01*
X126097214Y-50797610D01*
X126062627Y-50664002D01*
X126003466Y-50558215D01*
X125918808Y-50478266D01*
X125869911Y-50449032D01*
X125792412Y-50426435D01*
X125700412Y-50424798D01*
X125607293Y-50441858D01*
X125526438Y-50475356D01*
X125477069Y-50515404D01*
X125448595Y-50540669D01*
X125434530Y-50546000D01*
X125428468Y-50527608D01*
X125423348Y-50477011D01*
X125419584Y-50401078D01*
X125417592Y-50306677D01*
X125417384Y-50262692D01*
X125417384Y-49979385D01*
X125261077Y-49979385D01*
X125261077Y-51425231D01*
G36*
X124357423Y-49983146D02*
X124274384Y-49989154D01*
X124268975Y-50277845D01*
X124263565Y-50566536D01*
X124190821Y-50509051D01*
X124083946Y-50445928D01*
X123972251Y-50421346D01*
X123879064Y-50429789D01*
X123790987Y-50457238D01*
X123726783Y-50499223D01*
X123675155Y-50564972D01*
X123644766Y-50621191D01*
X123618372Y-50679687D01*
X123602171Y-50732385D01*
X123593776Y-50792331D01*
X123590799Y-50872568D01*
X123590590Y-50917231D01*
X123593601Y-51014285D01*
X123601701Y-51101659D01*
X123613568Y-51166359D01*
X123617081Y-51177791D01*
X123660251Y-51262340D01*
X123723417Y-51340895D01*
X123795133Y-51400460D01*
X123828952Y-51418372D01*
X123908091Y-51438100D01*
X124000422Y-51442248D01*
X124085058Y-51430468D01*
X124107724Y-51423031D01*
X124155641Y-51398125D01*
X124210569Y-51362000D01*
X124218766Y-51355885D01*
X124267012Y-51321092D01*
X124292388Y-51312074D01*
X124302180Y-51329750D01*
X124303692Y-51366615D01*
X124307504Y-51405997D01*
X124326840Y-51422149D01*
X124372077Y-51425231D01*
X124440461Y-51425231D01*
X124440461Y-50729512D01*
X124264615Y-50729512D01*
X124264615Y-51148219D01*
X124201115Y-51201738D01*
X124104493Y-51267501D01*
X124014259Y-51297618D01*
X123932790Y-51291718D01*
X123867484Y-51254037D01*
X123813467Y-51183563D01*
X123777413Y-51090326D01*
X123759199Y-50983626D01*
X123758705Y-50872764D01*
X123775809Y-50767038D01*
X123810388Y-50675750D01*
X123862321Y-50608198D01*
X123876079Y-50597435D01*
X123941017Y-50571711D01*
X124019359Y-50567469D01*
X124091287Y-50585615D01*
X124094938Y-50587421D01*
X124136062Y-50614692D01*
X124186429Y-50655943D01*
X124201115Y-50669408D01*
X124264615Y-50729512D01*
X124440461Y-50729512D01*
X124440461Y-49977138D01*
X124357423Y-49983146D01*
X124357423Y-49983146D01*
G37*
X124357423Y-49983146D02*
X124274384Y-49989154D01*
X124268975Y-50277845D01*
X124263565Y-50566536D01*
X124190821Y-50509051D01*
X124083946Y-50445928D01*
X123972251Y-50421346D01*
X123879064Y-50429789D01*
X123790987Y-50457238D01*
X123726783Y-50499223D01*
X123675155Y-50564972D01*
X123644766Y-50621191D01*
X123618372Y-50679687D01*
X123602171Y-50732385D01*
X123593776Y-50792331D01*
X123590799Y-50872568D01*
X123590590Y-50917231D01*
X123593601Y-51014285D01*
X123601701Y-51101659D01*
X123613568Y-51166359D01*
X123617081Y-51177791D01*
X123660251Y-51262340D01*
X123723417Y-51340895D01*
X123795133Y-51400460D01*
X123828952Y-51418372D01*
X123908091Y-51438100D01*
X124000422Y-51442248D01*
X124085058Y-51430468D01*
X124107724Y-51423031D01*
X124155641Y-51398125D01*
X124210569Y-51362000D01*
X124218766Y-51355885D01*
X124267012Y-51321092D01*
X124292388Y-51312074D01*
X124302180Y-51329750D01*
X124303692Y-51366615D01*
X124307504Y-51405997D01*
X124326840Y-51422149D01*
X124372077Y-51425231D01*
X124440461Y-51425231D01*
X124440461Y-50729512D01*
X124264615Y-50729512D01*
X124264615Y-51148219D01*
X124201115Y-51201738D01*
X124104493Y-51267501D01*
X124014259Y-51297618D01*
X123932790Y-51291718D01*
X123867484Y-51254037D01*
X123813467Y-51183563D01*
X123777413Y-51090326D01*
X123759199Y-50983626D01*
X123758705Y-50872764D01*
X123775809Y-50767038D01*
X123810388Y-50675750D01*
X123862321Y-50608198D01*
X123876079Y-50597435D01*
X123941017Y-50571711D01*
X124019359Y-50567469D01*
X124091287Y-50585615D01*
X124094938Y-50587421D01*
X124136062Y-50614692D01*
X124186429Y-50655943D01*
X124201115Y-50669408D01*
X124264615Y-50729512D01*
X124440461Y-50729512D01*
X124440461Y-49977138D01*
X124357423Y-49983146D01*
G36*
X132345927Y-50078883D02*
X132280117Y-50080708D01*
X132167042Y-50087257D01*
X132082682Y-50098118D01*
X132016765Y-50114973D01*
X131978843Y-50129983D01*
X131886714Y-50190626D01*
X131821641Y-50272475D01*
X131783186Y-50368970D01*
X131770908Y-50473550D01*
X131784371Y-50579656D01*
X131823134Y-50680726D01*
X131886758Y-50770200D01*
X131974805Y-50841517D01*
X132028253Y-50868485D01*
X132084108Y-50884860D01*
X132163563Y-50899679D01*
X132251160Y-50910169D01*
X132267599Y-50911455D01*
X132431692Y-50923035D01*
X132431692Y-51425231D01*
X132588000Y-51425231D01*
X132588000Y-50764979D01*
X132432821Y-50764979D01*
X132264678Y-50758066D01*
X132182857Y-50754045D01*
X132129260Y-50747711D01*
X132093056Y-50735382D01*
X132063416Y-50713378D01*
X132029652Y-50678171D01*
X131991747Y-50632883D01*
X131971677Y-50592590D01*
X131963889Y-50541320D01*
X131962769Y-50485718D01*
X131964820Y-50416238D01*
X131974489Y-50370713D01*
X131997051Y-50334090D01*
X132027224Y-50301791D01*
X132069868Y-50264574D01*
X132114207Y-50242340D01*
X132174958Y-50229116D01*
X132219794Y-50223617D01*
X132297503Y-50215177D01*
X132352295Y-50212846D01*
X132388301Y-50222018D01*
X132409654Y-50248087D01*
X132420486Y-50296445D01*
X132424930Y-50372487D01*
X132427118Y-50481606D01*
X132427372Y-50494540D01*
X132432821Y-50764979D01*
X132588000Y-50764979D01*
X132588000Y-50097360D01*
X132539002Y-50085062D01*
X132499477Y-50080670D01*
X132431572Y-50078551D01*
X132345927Y-50078883D01*
X132345927Y-50078883D01*
G37*
X132345927Y-50078883D02*
X132280117Y-50080708D01*
X132167042Y-50087257D01*
X132082682Y-50098118D01*
X132016765Y-50114973D01*
X131978843Y-50129983D01*
X131886714Y-50190626D01*
X131821641Y-50272475D01*
X131783186Y-50368970D01*
X131770908Y-50473550D01*
X131784371Y-50579656D01*
X131823134Y-50680726D01*
X131886758Y-50770200D01*
X131974805Y-50841517D01*
X132028253Y-50868485D01*
X132084108Y-50884860D01*
X132163563Y-50899679D01*
X132251160Y-50910169D01*
X132267599Y-50911455D01*
X132431692Y-50923035D01*
X132431692Y-51425231D01*
X132588000Y-51425231D01*
X132588000Y-50764979D01*
X132432821Y-50764979D01*
X132264678Y-50758066D01*
X132182857Y-50754045D01*
X132129260Y-50747711D01*
X132093056Y-50735382D01*
X132063416Y-50713378D01*
X132029652Y-50678171D01*
X131991747Y-50632883D01*
X131971677Y-50592590D01*
X131963889Y-50541320D01*
X131962769Y-50485718D01*
X131964820Y-50416238D01*
X131974489Y-50370713D01*
X131997051Y-50334090D01*
X132027224Y-50301791D01*
X132069868Y-50264574D01*
X132114207Y-50242340D01*
X132174958Y-50229116D01*
X132219794Y-50223617D01*
X132297503Y-50215177D01*
X132352295Y-50212846D01*
X132388301Y-50222018D01*
X132409654Y-50248087D01*
X132420486Y-50296445D01*
X132424930Y-50372487D01*
X132427118Y-50481606D01*
X132427372Y-50494540D01*
X132432821Y-50764979D01*
X132588000Y-50764979D01*
X132588000Y-50097360D01*
X132539002Y-50085062D01*
X132499477Y-50080670D01*
X132431572Y-50078551D01*
X132345927Y-50078883D01*
G36*
X130399030Y-50438701D02*
X130365962Y-50458910D01*
X130363295Y-50462961D01*
X130352250Y-50492007D01*
X130332586Y-50552049D01*
X130306353Y-50636491D01*
X130275602Y-50738739D01*
X130243350Y-50848846D01*
X130210616Y-50960391D01*
X130180799Y-51058928D01*
X130155832Y-51138313D01*
X130137646Y-51192402D01*
X130128174Y-51215052D01*
X130128163Y-51215064D01*
X130119255Y-51201793D01*
X130102500Y-51156184D01*
X130079643Y-51083782D01*
X130052430Y-50990130D01*
X130022607Y-50880773D01*
X130021051Y-50874885D01*
X129983720Y-50733317D01*
X129954707Y-50625064D01*
X129932012Y-50545753D01*
X129913637Y-50491008D01*
X129897585Y-50456455D01*
X129881857Y-50437719D01*
X129864455Y-50430424D01*
X129843382Y-50430197D01*
X129818992Y-50432472D01*
X129746224Y-50438538D01*
X129654637Y-50751154D01*
X129622073Y-50862890D01*
X129591733Y-50968070D01*
X129566070Y-51058103D01*
X129547542Y-51124397D01*
X129540876Y-51149184D01*
X129525940Y-51197886D01*
X129513368Y-51223919D01*
X129509366Y-51225263D01*
X129501350Y-51204511D01*
X129484315Y-51151901D01*
X129460014Y-51073139D01*
X129430200Y-50973931D01*
X129396626Y-50859983D01*
X129387087Y-50827233D01*
X129274144Y-50438538D01*
X129209203Y-50432231D01*
X129159656Y-50432744D01*
X129127721Y-50442566D01*
X129126682Y-50443502D01*
X129127045Y-50467034D01*
X129138728Y-50523787D01*
X129160713Y-50609906D01*
X129191986Y-50721532D01*
X129231529Y-50854810D01*
X129256167Y-50935075D01*
X129296136Y-51064241D01*
X129331975Y-51180714D01*
X129362137Y-51279415D01*
X129385075Y-51355262D01*
X129399241Y-51403174D01*
X129403230Y-51418125D01*
X129420895Y-51422083D01*
X129466589Y-51422952D01*
X129513910Y-51421321D01*
X129624590Y-51415461D01*
X129722632Y-51068965D01*
X129754104Y-50960312D01*
X129782586Y-50866802D01*
X129806245Y-50794074D01*
X129823248Y-50747763D01*
X129831760Y-50733504D01*
X129840174Y-50755089D01*
X129856695Y-50808195D01*
X129879493Y-50886552D01*
X129906740Y-50983891D01*
X129932870Y-51080001D01*
X130022895Y-51415461D01*
X130133140Y-51421321D01*
X130192808Y-51423162D01*
X130232841Y-51421849D01*
X130243384Y-51418876D01*
X130248893Y-51398708D01*
X130264398Y-51346279D01*
X130288364Y-51266663D01*
X130319257Y-51164935D01*
X130355542Y-51046170D01*
X130389272Y-50936290D01*
X130428571Y-50806635D01*
X130463058Y-50689191D01*
X130491302Y-50589138D01*
X130511872Y-50511655D01*
X130523337Y-50461923D01*
X130524888Y-50445389D01*
X130495752Y-50430064D01*
X130448046Y-50428460D01*
X130399030Y-50438701D01*
X130399030Y-50438701D01*
G37*
X130399030Y-50438701D02*
X130365962Y-50458910D01*
X130363295Y-50462961D01*
X130352250Y-50492007D01*
X130332586Y-50552049D01*
X130306353Y-50636491D01*
X130275602Y-50738739D01*
X130243350Y-50848846D01*
X130210616Y-50960391D01*
X130180799Y-51058928D01*
X130155832Y-51138313D01*
X130137646Y-51192402D01*
X130128174Y-51215052D01*
X130128163Y-51215064D01*
X130119255Y-51201793D01*
X130102500Y-51156184D01*
X130079643Y-51083782D01*
X130052430Y-50990130D01*
X130022607Y-50880773D01*
X130021051Y-50874885D01*
X129983720Y-50733317D01*
X129954707Y-50625064D01*
X129932012Y-50545753D01*
X129913637Y-50491008D01*
X129897585Y-50456455D01*
X129881857Y-50437719D01*
X129864455Y-50430424D01*
X129843382Y-50430197D01*
X129818992Y-50432472D01*
X129746224Y-50438538D01*
X129654637Y-50751154D01*
X129622073Y-50862890D01*
X129591733Y-50968070D01*
X129566070Y-51058103D01*
X129547542Y-51124397D01*
X129540876Y-51149184D01*
X129525940Y-51197886D01*
X129513368Y-51223919D01*
X129509366Y-51225263D01*
X129501350Y-51204511D01*
X129484315Y-51151901D01*
X129460014Y-51073139D01*
X129430200Y-50973931D01*
X129396626Y-50859983D01*
X129387087Y-50827233D01*
X129274144Y-50438538D01*
X129209203Y-50432231D01*
X129159656Y-50432744D01*
X129127721Y-50442566D01*
X129126682Y-50443502D01*
X129127045Y-50467034D01*
X129138728Y-50523787D01*
X129160713Y-50609906D01*
X129191986Y-50721532D01*
X129231529Y-50854810D01*
X129256167Y-50935075D01*
X129296136Y-51064241D01*
X129331975Y-51180714D01*
X129362137Y-51279415D01*
X129385075Y-51355262D01*
X129399241Y-51403174D01*
X129403230Y-51418125D01*
X129420895Y-51422083D01*
X129466589Y-51422952D01*
X129513910Y-51421321D01*
X129624590Y-51415461D01*
X129722632Y-51068965D01*
X129754104Y-50960312D01*
X129782586Y-50866802D01*
X129806245Y-50794074D01*
X129823248Y-50747763D01*
X129831760Y-50733504D01*
X129840174Y-50755089D01*
X129856695Y-50808195D01*
X129879493Y-50886552D01*
X129906740Y-50983891D01*
X129932870Y-51080001D01*
X130022895Y-51415461D01*
X130133140Y-51421321D01*
X130192808Y-51423162D01*
X130232841Y-51421849D01*
X130243384Y-51418876D01*
X130248893Y-51398708D01*
X130264398Y-51346279D01*
X130288364Y-51266663D01*
X130319257Y-51164935D01*
X130355542Y-51046170D01*
X130389272Y-50936290D01*
X130428571Y-50806635D01*
X130463058Y-50689191D01*
X130491302Y-50589138D01*
X130511872Y-50511655D01*
X130523337Y-50461923D01*
X130524888Y-50445389D01*
X130495752Y-50430064D01*
X130448046Y-50428460D01*
X130399030Y-50438701D01*
G36*
X127361128Y-50425645D02*
X127318686Y-50444537D01*
X127300242Y-50480180D01*
X127296538Y-50505811D01*
X127297924Y-50564801D01*
X127319677Y-50592123D01*
X127365932Y-50591650D01*
X127383343Y-50587207D01*
X127462689Y-50583477D01*
X127538621Y-50618205D01*
X127610059Y-50690844D01*
X127622997Y-50708830D01*
X127683846Y-50797271D01*
X127683846Y-51425231D01*
X127840825Y-51425231D01*
X127835604Y-50931885D01*
X127830384Y-50438538D01*
X127762000Y-50438538D01*
X127716821Y-50441771D01*
X127695298Y-50459139D01*
X127685209Y-50502151D01*
X127683846Y-50512128D01*
X127674077Y-50585717D01*
X127620050Y-50517686D01*
X127549435Y-50456342D01*
X127463295Y-50423231D01*
X127373861Y-50422701D01*
X127361128Y-50425645D01*
X127361128Y-50425645D01*
G37*
X127361128Y-50425645D02*
X127318686Y-50444537D01*
X127300242Y-50480180D01*
X127296538Y-50505811D01*
X127297924Y-50564801D01*
X127319677Y-50592123D01*
X127365932Y-50591650D01*
X127383343Y-50587207D01*
X127462689Y-50583477D01*
X127538621Y-50618205D01*
X127610059Y-50690844D01*
X127622997Y-50708830D01*
X127683846Y-50797271D01*
X127683846Y-51425231D01*
X127840825Y-51425231D01*
X127835604Y-50931885D01*
X127830384Y-50438538D01*
X127762000Y-50438538D01*
X127716821Y-50441771D01*
X127695298Y-50459139D01*
X127685209Y-50502151D01*
X127683846Y-50512128D01*
X127674077Y-50585717D01*
X127620050Y-50517686D01*
X127549435Y-50456342D01*
X127463295Y-50423231D01*
X127373861Y-50422701D01*
X127361128Y-50425645D01*
D14*
G04 #@! TO.C,J_PROG_PORT1*
X203454000Y-119126000D02*
X204724000Y-119126000D01*
X203454000Y-117856000D02*
X203454000Y-119126000D01*
X205766929Y-109856000D02*
X206164000Y-109856000D01*
X205766929Y-110616000D02*
X206164000Y-110616000D01*
X214824000Y-109856000D02*
X208824000Y-109856000D01*
X214824000Y-110616000D02*
X214824000Y-109856000D01*
X208824000Y-110616000D02*
X214824000Y-110616000D01*
X206164000Y-111506000D02*
X208824000Y-111506000D01*
X205766929Y-112396000D02*
X206164000Y-112396000D01*
X205766929Y-113156000D02*
X206164000Y-113156000D01*
X214824000Y-112396000D02*
X208824000Y-112396000D01*
X214824000Y-113156000D02*
X214824000Y-112396000D01*
X208824000Y-113156000D02*
X214824000Y-113156000D01*
X206164000Y-114046000D02*
X208824000Y-114046000D01*
X205766929Y-114936000D02*
X206164000Y-114936000D01*
X205766929Y-115696000D02*
X206164000Y-115696000D01*
X214824000Y-114936000D02*
X208824000Y-114936000D01*
X214824000Y-115696000D02*
X214824000Y-114936000D01*
X208824000Y-115696000D02*
X214824000Y-115696000D01*
X206164000Y-116586000D02*
X208824000Y-116586000D01*
X205834000Y-117476000D02*
X206164000Y-117476000D01*
X205834000Y-118236000D02*
X206164000Y-118236000D01*
X208824000Y-117576000D02*
X214824000Y-117576000D01*
X208824000Y-117696000D02*
X214824000Y-117696000D01*
X208824000Y-117816000D02*
X214824000Y-117816000D01*
X208824000Y-117936000D02*
X214824000Y-117936000D01*
X208824000Y-118056000D02*
X214824000Y-118056000D01*
X208824000Y-118176000D02*
X214824000Y-118176000D01*
X214824000Y-117476000D02*
X208824000Y-117476000D01*
X214824000Y-118236000D02*
X214824000Y-117476000D01*
X208824000Y-118236000D02*
X214824000Y-118236000D01*
X208824000Y-119186000D02*
X206164000Y-119186000D01*
X208824000Y-108906000D02*
X208824000Y-119186000D01*
X206164000Y-108906000D02*
X208824000Y-108906000D01*
X206164000Y-119186000D02*
X206164000Y-108906000D01*
D13*
G04 #@! TO.C,G\002A\002A\002A*
G36*
X98056886Y-81157456D02*
X98069223Y-81589470D01*
X98088949Y-81994790D01*
X98115865Y-82350545D01*
X98149774Y-82633866D01*
X98179383Y-82783947D01*
X98435178Y-83516905D01*
X98795416Y-84171136D01*
X99251746Y-84739669D01*
X99795816Y-85215533D01*
X100419275Y-85591756D01*
X101113770Y-85861368D01*
X101870951Y-86017398D01*
X102078461Y-86038615D01*
X102331820Y-86055596D01*
X102492387Y-86050030D01*
X102600287Y-86013649D01*
X102695647Y-85938184D01*
X102730171Y-85904327D01*
X102903421Y-85731076D01*
X102903421Y-82782927D01*
X104463198Y-83953174D01*
X104865860Y-84252001D01*
X105238955Y-84522661D01*
X105567851Y-84755029D01*
X105837921Y-84938981D01*
X106034533Y-85064394D01*
X106143057Y-85121143D01*
X106154303Y-85123421D01*
X106294387Y-85095090D01*
X106383598Y-84996712D01*
X106431084Y-84808210D01*
X106445993Y-84509505D01*
X106446053Y-84483104D01*
X106446053Y-84003209D01*
X106161974Y-83774994D01*
X106032539Y-83674570D01*
X105812801Y-83508072D01*
X105520211Y-83288550D01*
X105172217Y-83029053D01*
X104786271Y-82742631D01*
X104390658Y-82450323D01*
X102903421Y-81353868D01*
X102903421Y-80377631D01*
X106184761Y-80377631D01*
X106348828Y-80213564D01*
X106480394Y-79991945D01*
X106505668Y-79712700D01*
X106438487Y-79443729D01*
X106359720Y-79299618D01*
X106292329Y-79227516D01*
X106212684Y-79218315D01*
X106011257Y-79209615D01*
X105699951Y-79201566D01*
X105290667Y-79194321D01*
X104795306Y-79188033D01*
X104225772Y-79182854D01*
X103593966Y-79178935D01*
X102911789Y-79176430D01*
X102226474Y-79175497D01*
X101392318Y-79175529D01*
X100681747Y-79176267D01*
X100084664Y-79177985D01*
X99590971Y-79180954D01*
X99293948Y-79184287D01*
X99293948Y-80377631D01*
X101633421Y-80377631D01*
X101633421Y-82550000D01*
X101633017Y-83147175D01*
X101631323Y-83624084D01*
X101627615Y-83994147D01*
X101621173Y-84270781D01*
X101611272Y-84467403D01*
X101597192Y-84597432D01*
X101578208Y-84674286D01*
X101553599Y-84711383D01*
X101522642Y-84722141D01*
X101516448Y-84722316D01*
X101341160Y-84683547D01*
X101096785Y-84580217D01*
X100818356Y-84431611D01*
X100540904Y-84257017D01*
X100299461Y-84075721D01*
X100229378Y-84013722D01*
X99906067Y-83670829D01*
X99660230Y-83309350D01*
X99484004Y-82906770D01*
X99369530Y-82440578D01*
X99308945Y-81888259D01*
X99293948Y-81334710D01*
X99293948Y-80377631D01*
X99293948Y-79184287D01*
X99190571Y-79185448D01*
X98873364Y-79191738D01*
X98629255Y-79200097D01*
X98448144Y-79210798D01*
X98319933Y-79224113D01*
X98234526Y-79240314D01*
X98181825Y-79259674D01*
X98151730Y-79282465D01*
X98149106Y-79285507D01*
X98112956Y-79397417D01*
X98085381Y-79619854D01*
X98066185Y-79929946D01*
X98055169Y-80304824D01*
X98052135Y-80721617D01*
X98056886Y-81157456D01*
X98056886Y-81157456D01*
G37*
X98056886Y-81157456D02*
X98069223Y-81589470D01*
X98088949Y-81994790D01*
X98115865Y-82350545D01*
X98149774Y-82633866D01*
X98179383Y-82783947D01*
X98435178Y-83516905D01*
X98795416Y-84171136D01*
X99251746Y-84739669D01*
X99795816Y-85215533D01*
X100419275Y-85591756D01*
X101113770Y-85861368D01*
X101870951Y-86017398D01*
X102078461Y-86038615D01*
X102331820Y-86055596D01*
X102492387Y-86050030D01*
X102600287Y-86013649D01*
X102695647Y-85938184D01*
X102730171Y-85904327D01*
X102903421Y-85731076D01*
X102903421Y-82782927D01*
X104463198Y-83953174D01*
X104865860Y-84252001D01*
X105238955Y-84522661D01*
X105567851Y-84755029D01*
X105837921Y-84938981D01*
X106034533Y-85064394D01*
X106143057Y-85121143D01*
X106154303Y-85123421D01*
X106294387Y-85095090D01*
X106383598Y-84996712D01*
X106431084Y-84808210D01*
X106445993Y-84509505D01*
X106446053Y-84483104D01*
X106446053Y-84003209D01*
X106161974Y-83774994D01*
X106032539Y-83674570D01*
X105812801Y-83508072D01*
X105520211Y-83288550D01*
X105172217Y-83029053D01*
X104786271Y-82742631D01*
X104390658Y-82450323D01*
X102903421Y-81353868D01*
X102903421Y-80377631D01*
X106184761Y-80377631D01*
X106348828Y-80213564D01*
X106480394Y-79991945D01*
X106505668Y-79712700D01*
X106438487Y-79443729D01*
X106359720Y-79299618D01*
X106292329Y-79227516D01*
X106212684Y-79218315D01*
X106011257Y-79209615D01*
X105699951Y-79201566D01*
X105290667Y-79194321D01*
X104795306Y-79188033D01*
X104225772Y-79182854D01*
X103593966Y-79178935D01*
X102911789Y-79176430D01*
X102226474Y-79175497D01*
X101392318Y-79175529D01*
X100681747Y-79176267D01*
X100084664Y-79177985D01*
X99590971Y-79180954D01*
X99293948Y-79184287D01*
X99293948Y-80377631D01*
X101633421Y-80377631D01*
X101633421Y-82550000D01*
X101633017Y-83147175D01*
X101631323Y-83624084D01*
X101627615Y-83994147D01*
X101621173Y-84270781D01*
X101611272Y-84467403D01*
X101597192Y-84597432D01*
X101578208Y-84674286D01*
X101553599Y-84711383D01*
X101522642Y-84722141D01*
X101516448Y-84722316D01*
X101341160Y-84683547D01*
X101096785Y-84580217D01*
X100818356Y-84431611D01*
X100540904Y-84257017D01*
X100299461Y-84075721D01*
X100229378Y-84013722D01*
X99906067Y-83670829D01*
X99660230Y-83309350D01*
X99484004Y-82906770D01*
X99369530Y-82440578D01*
X99308945Y-81888259D01*
X99293948Y-81334710D01*
X99293948Y-80377631D01*
X99293948Y-79184287D01*
X99190571Y-79185448D01*
X98873364Y-79191738D01*
X98629255Y-79200097D01*
X98448144Y-79210798D01*
X98319933Y-79224113D01*
X98234526Y-79240314D01*
X98181825Y-79259674D01*
X98151730Y-79282465D01*
X98149106Y-79285507D01*
X98112956Y-79397417D01*
X98085381Y-79619854D01*
X98066185Y-79929946D01*
X98055169Y-80304824D01*
X98052135Y-80721617D01*
X98056886Y-81157456D01*
G36*
X98092120Y-93450829D02*
X98098681Y-93871062D01*
X98113528Y-94195042D01*
X98139928Y-94435242D01*
X98181145Y-94604136D01*
X98240447Y-94714198D01*
X98321100Y-94777903D01*
X98426369Y-94807723D01*
X98559521Y-94816133D01*
X98723822Y-94815607D01*
X98756859Y-94815526D01*
X98993206Y-94807340D01*
X99132047Y-94776236D01*
X99208916Y-94712396D01*
X99224754Y-94686236D01*
X99245663Y-94578615D01*
X99263143Y-94345272D01*
X99276947Y-93994132D01*
X99286829Y-93533118D01*
X99292543Y-92970157D01*
X99293948Y-92461069D01*
X99295293Y-91805366D01*
X99300768Y-91266275D01*
X99312528Y-90826738D01*
X99332731Y-90469698D01*
X99363531Y-90178096D01*
X99407087Y-89934876D01*
X99465553Y-89722979D01*
X99541088Y-89525349D01*
X99635846Y-89324926D01*
X99707895Y-89186716D01*
X100006708Y-88749965D01*
X100404259Y-88351093D01*
X100865973Y-88018027D01*
X101357273Y-87778689D01*
X101516448Y-87726063D01*
X101700264Y-87672753D01*
X101700264Y-94607419D01*
X101848821Y-94711473D01*
X102033803Y-94783754D01*
X102280376Y-94811954D01*
X102529089Y-94795459D01*
X102720494Y-94733654D01*
X102740251Y-94720683D01*
X102769086Y-94695083D01*
X102793476Y-94656602D01*
X102813923Y-94594249D01*
X102830930Y-94497030D01*
X102845000Y-94353952D01*
X102856637Y-94154023D01*
X102866343Y-93886248D01*
X102874620Y-93539635D01*
X102881973Y-93103192D01*
X102888904Y-92565925D01*
X102895916Y-91916841D01*
X102903421Y-91154314D01*
X102936843Y-87682788D01*
X103248960Y-87773821D01*
X103716385Y-87973187D01*
X104162971Y-88281047D01*
X104561944Y-88672343D01*
X104886530Y-89122017D01*
X105059262Y-89468158D01*
X105099040Y-89571392D01*
X105131396Y-89675820D01*
X105157349Y-89796568D01*
X105177913Y-89948764D01*
X105194105Y-90147535D01*
X105206941Y-90408009D01*
X105217436Y-90745312D01*
X105226607Y-91174573D01*
X105235469Y-91710918D01*
X105242602Y-92197975D01*
X105276316Y-94560161D01*
X105434116Y-94687843D01*
X105647677Y-94790933D01*
X105907715Y-94821596D01*
X106161628Y-94781355D01*
X106356817Y-94671732D01*
X106367559Y-94660823D01*
X106407445Y-94615130D01*
X106439231Y-94562514D01*
X106463795Y-94488438D01*
X106482012Y-94378365D01*
X106494759Y-94217758D01*
X106502912Y-93992080D01*
X106507348Y-93686794D01*
X106508942Y-93287362D01*
X106508572Y-92779249D01*
X106507581Y-92338060D01*
X106503955Y-91648989D01*
X106496468Y-91081476D01*
X106484661Y-90623440D01*
X106468077Y-90262797D01*
X106446258Y-89987466D01*
X106418746Y-89785365D01*
X106408953Y-89735526D01*
X106202308Y-89078962D01*
X105879358Y-88453701D01*
X105457147Y-87881562D01*
X104952719Y-87384367D01*
X104383117Y-86983936D01*
X104171159Y-86870509D01*
X103453034Y-86585065D01*
X102731657Y-86431254D01*
X102015858Y-86407571D01*
X101314467Y-86512513D01*
X100636313Y-86744576D01*
X99990224Y-87102254D01*
X99385030Y-87584043D01*
X99257042Y-87707753D01*
X98988044Y-88001669D01*
X98773454Y-88302430D01*
X98574573Y-88665866D01*
X98531870Y-88753934D01*
X98396195Y-89054347D01*
X98276360Y-89348577D01*
X98190168Y-89591626D01*
X98164854Y-89681573D01*
X98142686Y-89848101D01*
X98124119Y-90139559D01*
X98109402Y-90547234D01*
X98098784Y-91062415D01*
X98092514Y-91676388D01*
X98090790Y-92271704D01*
X98090578Y-92921867D01*
X98092120Y-93450829D01*
X98092120Y-93450829D01*
G37*
X98092120Y-93450829D02*
X98098681Y-93871062D01*
X98113528Y-94195042D01*
X98139928Y-94435242D01*
X98181145Y-94604136D01*
X98240447Y-94714198D01*
X98321100Y-94777903D01*
X98426369Y-94807723D01*
X98559521Y-94816133D01*
X98723822Y-94815607D01*
X98756859Y-94815526D01*
X98993206Y-94807340D01*
X99132047Y-94776236D01*
X99208916Y-94712396D01*
X99224754Y-94686236D01*
X99245663Y-94578615D01*
X99263143Y-94345272D01*
X99276947Y-93994132D01*
X99286829Y-93533118D01*
X99292543Y-92970157D01*
X99293948Y-92461069D01*
X99295293Y-91805366D01*
X99300768Y-91266275D01*
X99312528Y-90826738D01*
X99332731Y-90469698D01*
X99363531Y-90178096D01*
X99407087Y-89934876D01*
X99465553Y-89722979D01*
X99541088Y-89525349D01*
X99635846Y-89324926D01*
X99707895Y-89186716D01*
X100006708Y-88749965D01*
X100404259Y-88351093D01*
X100865973Y-88018027D01*
X101357273Y-87778689D01*
X101516448Y-87726063D01*
X101700264Y-87672753D01*
X101700264Y-94607419D01*
X101848821Y-94711473D01*
X102033803Y-94783754D01*
X102280376Y-94811954D01*
X102529089Y-94795459D01*
X102720494Y-94733654D01*
X102740251Y-94720683D01*
X102769086Y-94695083D01*
X102793476Y-94656602D01*
X102813923Y-94594249D01*
X102830930Y-94497030D01*
X102845000Y-94353952D01*
X102856637Y-94154023D01*
X102866343Y-93886248D01*
X102874620Y-93539635D01*
X102881973Y-93103192D01*
X102888904Y-92565925D01*
X102895916Y-91916841D01*
X102903421Y-91154314D01*
X102936843Y-87682788D01*
X103248960Y-87773821D01*
X103716385Y-87973187D01*
X104162971Y-88281047D01*
X104561944Y-88672343D01*
X104886530Y-89122017D01*
X105059262Y-89468158D01*
X105099040Y-89571392D01*
X105131396Y-89675820D01*
X105157349Y-89796568D01*
X105177913Y-89948764D01*
X105194105Y-90147535D01*
X105206941Y-90408009D01*
X105217436Y-90745312D01*
X105226607Y-91174573D01*
X105235469Y-91710918D01*
X105242602Y-92197975D01*
X105276316Y-94560161D01*
X105434116Y-94687843D01*
X105647677Y-94790933D01*
X105907715Y-94821596D01*
X106161628Y-94781355D01*
X106356817Y-94671732D01*
X106367559Y-94660823D01*
X106407445Y-94615130D01*
X106439231Y-94562514D01*
X106463795Y-94488438D01*
X106482012Y-94378365D01*
X106494759Y-94217758D01*
X106502912Y-93992080D01*
X106507348Y-93686794D01*
X106508942Y-93287362D01*
X106508572Y-92779249D01*
X106507581Y-92338060D01*
X106503955Y-91648989D01*
X106496468Y-91081476D01*
X106484661Y-90623440D01*
X106468077Y-90262797D01*
X106446258Y-89987466D01*
X106418746Y-89785365D01*
X106408953Y-89735526D01*
X106202308Y-89078962D01*
X105879358Y-88453701D01*
X105457147Y-87881562D01*
X104952719Y-87384367D01*
X104383117Y-86983936D01*
X104171159Y-86870509D01*
X103453034Y-86585065D01*
X102731657Y-86431254D01*
X102015858Y-86407571D01*
X101314467Y-86512513D01*
X100636313Y-86744576D01*
X99990224Y-87102254D01*
X99385030Y-87584043D01*
X99257042Y-87707753D01*
X98988044Y-88001669D01*
X98773454Y-88302430D01*
X98574573Y-88665866D01*
X98531870Y-88753934D01*
X98396195Y-89054347D01*
X98276360Y-89348577D01*
X98190168Y-89591626D01*
X98164854Y-89681573D01*
X98142686Y-89848101D01*
X98124119Y-90139559D01*
X98109402Y-90547234D01*
X98098784Y-91062415D01*
X98092514Y-91676388D01*
X98090790Y-92271704D01*
X98090578Y-92921867D01*
X98092120Y-93450829D01*
G36*
X98025980Y-96615958D02*
X98026012Y-96633935D01*
X98036653Y-97351228D01*
X98068454Y-97956680D01*
X98125411Y-98471028D01*
X98211517Y-98915009D01*
X98330769Y-99309361D01*
X98487161Y-99674820D01*
X98678811Y-100022453D01*
X99120376Y-100623759D01*
X99658259Y-101137551D01*
X100279645Y-101553527D01*
X100962048Y-101858024D01*
X101603732Y-102018987D01*
X102279399Y-102075015D01*
X102948190Y-102025209D01*
X103438158Y-101912508D01*
X104134291Y-101630354D01*
X104763446Y-101241087D01*
X105313471Y-100756565D01*
X105772214Y-100188648D01*
X106127524Y-99549193D01*
X106287308Y-99132083D01*
X106345161Y-98944215D01*
X106389212Y-98771665D01*
X106421789Y-98591068D01*
X106445219Y-98379058D01*
X106461831Y-98112268D01*
X106473950Y-97767332D01*
X106483906Y-97320884D01*
X106487573Y-97121579D01*
X106492922Y-96654288D01*
X106491846Y-96241360D01*
X106484778Y-95901660D01*
X106472155Y-95654053D01*
X106454411Y-95517404D01*
X106450277Y-95505027D01*
X106349341Y-95361573D01*
X106266008Y-95296765D01*
X106177717Y-95284419D01*
X105967174Y-95271646D01*
X105645805Y-95258731D01*
X105225042Y-95245961D01*
X104716311Y-95233620D01*
X104131043Y-95221995D01*
X103480666Y-95211370D01*
X102776610Y-95202032D01*
X102244523Y-95196282D01*
X99293948Y-95167353D01*
X99293948Y-96419737D01*
X105242895Y-96419737D01*
X105242895Y-97348485D01*
X105238295Y-97776479D01*
X105222356Y-98104119D01*
X105191869Y-98364489D01*
X105143625Y-98590674D01*
X105111609Y-98702038D01*
X104864715Y-99288316D01*
X104511423Y-99793660D01*
X104051727Y-100218077D01*
X103508467Y-100550305D01*
X103288853Y-100656886D01*
X103115640Y-100727435D01*
X102950724Y-100769381D01*
X102756000Y-100790152D01*
X102493362Y-100797177D01*
X102238467Y-100797895D01*
X101897643Y-100795619D01*
X101652681Y-100784388D01*
X101465780Y-100757590D01*
X101299139Y-100708617D01*
X101114956Y-100630859D01*
X101014562Y-100583903D01*
X100501320Y-100274601D01*
X100059326Y-99875243D01*
X99705748Y-99406808D01*
X99457757Y-98890276D01*
X99368056Y-98572105D01*
X99339745Y-98368210D01*
X99316423Y-98069671D01*
X99300399Y-97715500D01*
X99293978Y-97344708D01*
X99293948Y-97318815D01*
X99293948Y-96419737D01*
X99293948Y-95167353D01*
X98343783Y-95158036D01*
X98183865Y-95317953D01*
X98125998Y-95380424D01*
X98084141Y-95448534D01*
X98055752Y-95543492D01*
X98038284Y-95686505D01*
X98029196Y-95898781D01*
X98025942Y-96201530D01*
X98025980Y-96615958D01*
X98025980Y-96615958D01*
G37*
X98025980Y-96615958D02*
X98026012Y-96633935D01*
X98036653Y-97351228D01*
X98068454Y-97956680D01*
X98125411Y-98471028D01*
X98211517Y-98915009D01*
X98330769Y-99309361D01*
X98487161Y-99674820D01*
X98678811Y-100022453D01*
X99120376Y-100623759D01*
X99658259Y-101137551D01*
X100279645Y-101553527D01*
X100962048Y-101858024D01*
X101603732Y-102018987D01*
X102279399Y-102075015D01*
X102948190Y-102025209D01*
X103438158Y-101912508D01*
X104134291Y-101630354D01*
X104763446Y-101241087D01*
X105313471Y-100756565D01*
X105772214Y-100188648D01*
X106127524Y-99549193D01*
X106287308Y-99132083D01*
X106345161Y-98944215D01*
X106389212Y-98771665D01*
X106421789Y-98591068D01*
X106445219Y-98379058D01*
X106461831Y-98112268D01*
X106473950Y-97767332D01*
X106483906Y-97320884D01*
X106487573Y-97121579D01*
X106492922Y-96654288D01*
X106491846Y-96241360D01*
X106484778Y-95901660D01*
X106472155Y-95654053D01*
X106454411Y-95517404D01*
X106450277Y-95505027D01*
X106349341Y-95361573D01*
X106266008Y-95296765D01*
X106177717Y-95284419D01*
X105967174Y-95271646D01*
X105645805Y-95258731D01*
X105225042Y-95245961D01*
X104716311Y-95233620D01*
X104131043Y-95221995D01*
X103480666Y-95211370D01*
X102776610Y-95202032D01*
X102244523Y-95196282D01*
X99293948Y-95167353D01*
X99293948Y-96419737D01*
X105242895Y-96419737D01*
X105242895Y-97348485D01*
X105238295Y-97776479D01*
X105222356Y-98104119D01*
X105191869Y-98364489D01*
X105143625Y-98590674D01*
X105111609Y-98702038D01*
X104864715Y-99288316D01*
X104511423Y-99793660D01*
X104051727Y-100218077D01*
X103508467Y-100550305D01*
X103288853Y-100656886D01*
X103115640Y-100727435D01*
X102950724Y-100769381D01*
X102756000Y-100790152D01*
X102493362Y-100797177D01*
X102238467Y-100797895D01*
X101897643Y-100795619D01*
X101652681Y-100784388D01*
X101465780Y-100757590D01*
X101299139Y-100708617D01*
X101114956Y-100630859D01*
X101014562Y-100583903D01*
X100501320Y-100274601D01*
X100059326Y-99875243D01*
X99705748Y-99406808D01*
X99457757Y-98890276D01*
X99368056Y-98572105D01*
X99339745Y-98368210D01*
X99316423Y-98069671D01*
X99300399Y-97715500D01*
X99293978Y-97344708D01*
X99293948Y-97318815D01*
X99293948Y-96419737D01*
X99293948Y-95167353D01*
X98343783Y-95158036D01*
X98183865Y-95317953D01*
X98125998Y-95380424D01*
X98084141Y-95448534D01*
X98055752Y-95543492D01*
X98038284Y-95686505D01*
X98029196Y-95898781D01*
X98025942Y-96201530D01*
X98025980Y-96615958D01*
G36*
X98143368Y-107356477D02*
X98324606Y-108055007D01*
X98617710Y-108701180D01*
X99013437Y-109283642D01*
X99502543Y-109791040D01*
X100075783Y-110212021D01*
X100723915Y-110535231D01*
X101437693Y-110749316D01*
X101449848Y-110751844D01*
X101957436Y-110833745D01*
X102410970Y-110850172D01*
X102872806Y-110801377D01*
X103098534Y-110758507D01*
X103807457Y-110544703D01*
X104451723Y-110222067D01*
X105022547Y-109802830D01*
X105511140Y-109299222D01*
X105908717Y-108723475D01*
X106206490Y-108087820D01*
X106395672Y-107404488D01*
X106467476Y-106685709D01*
X106436775Y-106111842D01*
X106297358Y-105469121D01*
X106044017Y-104832089D01*
X105693881Y-104232822D01*
X105264080Y-103703398D01*
X105032022Y-103481325D01*
X104487532Y-103084682D01*
X103874050Y-102776263D01*
X103217603Y-102562711D01*
X102544216Y-102450668D01*
X102436154Y-102450036D01*
X102436154Y-103577326D01*
X103010638Y-103664269D01*
X103013698Y-103665082D01*
X103573836Y-103881561D01*
X104077906Y-104211013D01*
X104512423Y-104639690D01*
X104863904Y-105153846D01*
X105118864Y-105739733D01*
X105151345Y-105844474D01*
X105198438Y-106105532D01*
X105219730Y-106459103D01*
X105216943Y-106765478D01*
X105200015Y-107083124D01*
X105168208Y-107319071D01*
X105109158Y-107525283D01*
X105010499Y-107753722D01*
X104954485Y-107868373D01*
X104719294Y-108294670D01*
X104477869Y-108624385D01*
X104201054Y-108892640D01*
X103953662Y-109073972D01*
X103472746Y-109343602D01*
X102986277Y-109507375D01*
X102454752Y-109575946D01*
X102093818Y-109575670D01*
X101772957Y-109558125D01*
X101535274Y-109527468D01*
X101330270Y-109471601D01*
X101107440Y-109378427D01*
X100946938Y-109300946D01*
X100413172Y-108966753D01*
X99975261Y-108545399D01*
X99640493Y-108049861D01*
X99416157Y-107493115D01*
X99309539Y-106888138D01*
X99312769Y-106391328D01*
X99423559Y-105798905D01*
X99643488Y-105253703D01*
X99957935Y-104766493D01*
X100352278Y-104348047D01*
X100811893Y-104009136D01*
X101322159Y-103760531D01*
X101868454Y-103613004D01*
X102436154Y-103577326D01*
X102436154Y-102450036D01*
X101879917Y-102446779D01*
X101329965Y-102536454D01*
X100909914Y-102674411D01*
X100456087Y-102875572D01*
X100016794Y-103115040D01*
X99640345Y-103367921D01*
X99510329Y-103474139D01*
X98987555Y-104020072D01*
X98580217Y-104631416D01*
X98291771Y-105300557D01*
X98125673Y-106019884D01*
X98083242Y-106616944D01*
X98143368Y-107356477D01*
X98143368Y-107356477D01*
G37*
X98143368Y-107356477D02*
X98324606Y-108055007D01*
X98617710Y-108701180D01*
X99013437Y-109283642D01*
X99502543Y-109791040D01*
X100075783Y-110212021D01*
X100723915Y-110535231D01*
X101437693Y-110749316D01*
X101449848Y-110751844D01*
X101957436Y-110833745D01*
X102410970Y-110850172D01*
X102872806Y-110801377D01*
X103098534Y-110758507D01*
X103807457Y-110544703D01*
X104451723Y-110222067D01*
X105022547Y-109802830D01*
X105511140Y-109299222D01*
X105908717Y-108723475D01*
X106206490Y-108087820D01*
X106395672Y-107404488D01*
X106467476Y-106685709D01*
X106436775Y-106111842D01*
X106297358Y-105469121D01*
X106044017Y-104832089D01*
X105693881Y-104232822D01*
X105264080Y-103703398D01*
X105032022Y-103481325D01*
X104487532Y-103084682D01*
X103874050Y-102776263D01*
X103217603Y-102562711D01*
X102544216Y-102450668D01*
X102436154Y-102450036D01*
X102436154Y-103577326D01*
X103010638Y-103664269D01*
X103013698Y-103665082D01*
X103573836Y-103881561D01*
X104077906Y-104211013D01*
X104512423Y-104639690D01*
X104863904Y-105153846D01*
X105118864Y-105739733D01*
X105151345Y-105844474D01*
X105198438Y-106105532D01*
X105219730Y-106459103D01*
X105216943Y-106765478D01*
X105200015Y-107083124D01*
X105168208Y-107319071D01*
X105109158Y-107525283D01*
X105010499Y-107753722D01*
X104954485Y-107868373D01*
X104719294Y-108294670D01*
X104477869Y-108624385D01*
X104201054Y-108892640D01*
X103953662Y-109073972D01*
X103472746Y-109343602D01*
X102986277Y-109507375D01*
X102454752Y-109575946D01*
X102093818Y-109575670D01*
X101772957Y-109558125D01*
X101535274Y-109527468D01*
X101330270Y-109471601D01*
X101107440Y-109378427D01*
X100946938Y-109300946D01*
X100413172Y-108966753D01*
X99975261Y-108545399D01*
X99640493Y-108049861D01*
X99416157Y-107493115D01*
X99309539Y-106888138D01*
X99312769Y-106391328D01*
X99423559Y-105798905D01*
X99643488Y-105253703D01*
X99957935Y-104766493D01*
X100352278Y-104348047D01*
X100811893Y-104009136D01*
X101322159Y-103760531D01*
X101868454Y-103613004D01*
X102436154Y-103577326D01*
X102436154Y-102450036D01*
X101879917Y-102446779D01*
X101329965Y-102536454D01*
X100909914Y-102674411D01*
X100456087Y-102875572D01*
X100016794Y-103115040D01*
X99640345Y-103367921D01*
X99510329Y-103474139D01*
X98987555Y-104020072D01*
X98580217Y-104631416D01*
X98291771Y-105300557D01*
X98125673Y-106019884D01*
X98083242Y-106616944D01*
X98143368Y-107356477D01*
G36*
X98094914Y-116849034D02*
X98227047Y-117053470D01*
X98355162Y-117139548D01*
X98414074Y-117159740D01*
X98477618Y-117165331D01*
X98558764Y-117149552D01*
X98670483Y-117105630D01*
X98825744Y-117026793D01*
X99037521Y-116906271D01*
X99318782Y-116737292D01*
X99682499Y-116513085D01*
X100141643Y-116226877D01*
X100335141Y-116105893D01*
X100801714Y-115817099D01*
X101223798Y-115561761D01*
X101588622Y-115347208D01*
X101883418Y-115180765D01*
X102095415Y-115069761D01*
X102211842Y-115021523D01*
X102226716Y-115020508D01*
X102309522Y-115061542D01*
X102491451Y-115163248D01*
X102757419Y-115316812D01*
X103092344Y-115513420D01*
X103481141Y-115744259D01*
X103908727Y-116000514D01*
X104063619Y-116093891D01*
X104617231Y-116425607D01*
X105069958Y-116690216D01*
X105433305Y-116892992D01*
X105718780Y-117039210D01*
X105937892Y-117134143D01*
X106102148Y-117183065D01*
X106223055Y-117191250D01*
X106312121Y-117163973D01*
X106346523Y-117140181D01*
X106397330Y-117033276D01*
X106431985Y-116840232D01*
X106448163Y-116607878D01*
X106443539Y-116383041D01*
X106415789Y-116212550D01*
X106394898Y-116165681D01*
X106326372Y-116112535D01*
X106159000Y-116000741D01*
X105908626Y-115840341D01*
X105591093Y-115641373D01*
X105222243Y-115413879D01*
X104875264Y-115202588D01*
X104475016Y-114959740D01*
X104112104Y-114738570D01*
X103802378Y-114548814D01*
X103561687Y-114400212D01*
X103405882Y-114302503D01*
X103351775Y-114266524D01*
X103387129Y-114218690D01*
X103520993Y-114117149D01*
X103734900Y-113972908D01*
X104010383Y-113796971D01*
X104328975Y-113600345D01*
X104672209Y-113394036D01*
X105021619Y-113189050D01*
X105358736Y-112996394D01*
X105665095Y-112827073D01*
X105922227Y-112692093D01*
X106111667Y-112602462D01*
X106193917Y-112572643D01*
X106347650Y-112470459D01*
X106453748Y-112273830D01*
X106504581Y-112015872D01*
X106492515Y-111729698D01*
X106437450Y-111516073D01*
X106329675Y-111362948D01*
X106176147Y-111257633D01*
X106118734Y-111238252D01*
X106055402Y-111232876D01*
X105973533Y-111247762D01*
X105860512Y-111289168D01*
X105703721Y-111363352D01*
X105490545Y-111476573D01*
X105208366Y-111635087D01*
X104844568Y-111845154D01*
X104386535Y-112113031D01*
X104033563Y-112320375D01*
X103570784Y-112591637D01*
X103144592Y-112839932D01*
X102768666Y-113057410D01*
X102456683Y-113236219D01*
X102222322Y-113368510D01*
X102079261Y-113446431D01*
X102040229Y-113464474D01*
X101973228Y-113431247D01*
X101806361Y-113337221D01*
X101554095Y-113190874D01*
X101230896Y-113000688D01*
X100851229Y-112775141D01*
X100429561Y-112522715D01*
X100272800Y-112428421D01*
X99835906Y-112167635D01*
X99431880Y-111930921D01*
X99075943Y-111726849D01*
X98783318Y-111563986D01*
X98569227Y-111450902D01*
X98448894Y-111396166D01*
X98432283Y-111392368D01*
X98300522Y-111439198D01*
X98184702Y-111533070D01*
X98100575Y-111702403D01*
X98058900Y-111942096D01*
X98061362Y-112197073D01*
X98109644Y-112412260D01*
X98155369Y-112492536D01*
X98239142Y-112559213D01*
X98420897Y-112682091D01*
X98683111Y-112850062D01*
X99008263Y-113052018D01*
X99378831Y-113276851D01*
X99610477Y-113415026D01*
X99989822Y-113642444D01*
X100324989Y-113848315D01*
X100600637Y-114022806D01*
X100801422Y-114156080D01*
X100912002Y-114238304D01*
X100928238Y-114259716D01*
X100862899Y-114305114D01*
X100700204Y-114411271D01*
X100456093Y-114567991D01*
X100146508Y-114765074D01*
X99787391Y-114992322D01*
X99506551Y-115169242D01*
X99073770Y-115442316D01*
X98740820Y-115655821D01*
X98493829Y-115820494D01*
X98318922Y-115947073D01*
X98202229Y-116046295D01*
X98129875Y-116128896D01*
X98087988Y-116205614D01*
X98062833Y-116286626D01*
X98036138Y-116581636D01*
X98094914Y-116849034D01*
X98094914Y-116849034D01*
G37*
X98094914Y-116849034D02*
X98227047Y-117053470D01*
X98355162Y-117139548D01*
X98414074Y-117159740D01*
X98477618Y-117165331D01*
X98558764Y-117149552D01*
X98670483Y-117105630D01*
X98825744Y-117026793D01*
X99037521Y-116906271D01*
X99318782Y-116737292D01*
X99682499Y-116513085D01*
X100141643Y-116226877D01*
X100335141Y-116105893D01*
X100801714Y-115817099D01*
X101223798Y-115561761D01*
X101588622Y-115347208D01*
X101883418Y-115180765D01*
X102095415Y-115069761D01*
X102211842Y-115021523D01*
X102226716Y-115020508D01*
X102309522Y-115061542D01*
X102491451Y-115163248D01*
X102757419Y-115316812D01*
X103092344Y-115513420D01*
X103481141Y-115744259D01*
X103908727Y-116000514D01*
X104063619Y-116093891D01*
X104617231Y-116425607D01*
X105069958Y-116690216D01*
X105433305Y-116892992D01*
X105718780Y-117039210D01*
X105937892Y-117134143D01*
X106102148Y-117183065D01*
X106223055Y-117191250D01*
X106312121Y-117163973D01*
X106346523Y-117140181D01*
X106397330Y-117033276D01*
X106431985Y-116840232D01*
X106448163Y-116607878D01*
X106443539Y-116383041D01*
X106415789Y-116212550D01*
X106394898Y-116165681D01*
X106326372Y-116112535D01*
X106159000Y-116000741D01*
X105908626Y-115840341D01*
X105591093Y-115641373D01*
X105222243Y-115413879D01*
X104875264Y-115202588D01*
X104475016Y-114959740D01*
X104112104Y-114738570D01*
X103802378Y-114548814D01*
X103561687Y-114400212D01*
X103405882Y-114302503D01*
X103351775Y-114266524D01*
X103387129Y-114218690D01*
X103520993Y-114117149D01*
X103734900Y-113972908D01*
X104010383Y-113796971D01*
X104328975Y-113600345D01*
X104672209Y-113394036D01*
X105021619Y-113189050D01*
X105358736Y-112996394D01*
X105665095Y-112827073D01*
X105922227Y-112692093D01*
X106111667Y-112602462D01*
X106193917Y-112572643D01*
X106347650Y-112470459D01*
X106453748Y-112273830D01*
X106504581Y-112015872D01*
X106492515Y-111729698D01*
X106437450Y-111516073D01*
X106329675Y-111362948D01*
X106176147Y-111257633D01*
X106118734Y-111238252D01*
X106055402Y-111232876D01*
X105973533Y-111247762D01*
X105860512Y-111289168D01*
X105703721Y-111363352D01*
X105490545Y-111476573D01*
X105208366Y-111635087D01*
X104844568Y-111845154D01*
X104386535Y-112113031D01*
X104033563Y-112320375D01*
X103570784Y-112591637D01*
X103144592Y-112839932D01*
X102768666Y-113057410D01*
X102456683Y-113236219D01*
X102222322Y-113368510D01*
X102079261Y-113446431D01*
X102040229Y-113464474D01*
X101973228Y-113431247D01*
X101806361Y-113337221D01*
X101554095Y-113190874D01*
X101230896Y-113000688D01*
X100851229Y-112775141D01*
X100429561Y-112522715D01*
X100272800Y-112428421D01*
X99835906Y-112167635D01*
X99431880Y-111930921D01*
X99075943Y-111726849D01*
X98783318Y-111563986D01*
X98569227Y-111450902D01*
X98448894Y-111396166D01*
X98432283Y-111392368D01*
X98300522Y-111439198D01*
X98184702Y-111533070D01*
X98100575Y-111702403D01*
X98058900Y-111942096D01*
X98061362Y-112197073D01*
X98109644Y-112412260D01*
X98155369Y-112492536D01*
X98239142Y-112559213D01*
X98420897Y-112682091D01*
X98683111Y-112850062D01*
X99008263Y-113052018D01*
X99378831Y-113276851D01*
X99610477Y-113415026D01*
X99989822Y-113642444D01*
X100324989Y-113848315D01*
X100600637Y-114022806D01*
X100801422Y-114156080D01*
X100912002Y-114238304D01*
X100928238Y-114259716D01*
X100862899Y-114305114D01*
X100700204Y-114411271D01*
X100456093Y-114567991D01*
X100146508Y-114765074D01*
X99787391Y-114992322D01*
X99506551Y-115169242D01*
X99073770Y-115442316D01*
X98740820Y-115655821D01*
X98493829Y-115820494D01*
X98318922Y-115947073D01*
X98202229Y-116046295D01*
X98129875Y-116128896D01*
X98087988Y-116205614D01*
X98062833Y-116286626D01*
X98036138Y-116581636D01*
X98094914Y-116849034D01*
G36*
X98767139Y-123419217D02*
X99847646Y-125295526D01*
X104140035Y-125295526D01*
X104975544Y-123845439D01*
X105221231Y-123418271D01*
X105458954Y-123003551D01*
X105675951Y-122623652D01*
X105859458Y-122300943D01*
X105996715Y-122057797D01*
X106052803Y-121957149D01*
X106294553Y-121518947D01*
X104147295Y-117807417D01*
X103825941Y-117810032D01*
X103825941Y-118408698D01*
X104724447Y-119963823D01*
X105622953Y-121518947D01*
X105449634Y-121824600D01*
X105364657Y-121973744D01*
X105225801Y-122216624D01*
X105045769Y-122531053D01*
X104837269Y-122894843D01*
X104613006Y-123285810D01*
X104541053Y-123411179D01*
X103805790Y-124692105D01*
X100188460Y-124693947D01*
X99295856Y-123139868D01*
X99058689Y-122726763D01*
X98843903Y-122352295D01*
X98660345Y-122031912D01*
X98516859Y-121781065D01*
X98422289Y-121615202D01*
X98385481Y-121549771D01*
X98385474Y-121549757D01*
X98412771Y-121484618D01*
X98498784Y-121319426D01*
X98634972Y-121069656D01*
X98812789Y-120750787D01*
X99023692Y-120378295D01*
X99252615Y-119978968D01*
X100137533Y-118444210D01*
X103825941Y-118408698D01*
X103825941Y-117810032D01*
X101983917Y-117825024D01*
X99820540Y-117842631D01*
X97686632Y-121542909D01*
X98767139Y-123419217D01*
X98767139Y-123419217D01*
G37*
X98767139Y-123419217D02*
X99847646Y-125295526D01*
X104140035Y-125295526D01*
X104975544Y-123845439D01*
X105221231Y-123418271D01*
X105458954Y-123003551D01*
X105675951Y-122623652D01*
X105859458Y-122300943D01*
X105996715Y-122057797D01*
X106052803Y-121957149D01*
X106294553Y-121518947D01*
X104147295Y-117807417D01*
X103825941Y-117810032D01*
X103825941Y-118408698D01*
X104724447Y-119963823D01*
X105622953Y-121518947D01*
X105449634Y-121824600D01*
X105364657Y-121973744D01*
X105225801Y-122216624D01*
X105045769Y-122531053D01*
X104837269Y-122894843D01*
X104613006Y-123285810D01*
X104541053Y-123411179D01*
X103805790Y-124692105D01*
X100188460Y-124693947D01*
X99295856Y-123139868D01*
X99058689Y-122726763D01*
X98843903Y-122352295D01*
X98660345Y-122031912D01*
X98516859Y-121781065D01*
X98422289Y-121615202D01*
X98385481Y-121549771D01*
X98385474Y-121549757D01*
X98412771Y-121484618D01*
X98498784Y-121319426D01*
X98634972Y-121069656D01*
X98812789Y-120750787D01*
X99023692Y-120378295D01*
X99252615Y-119978968D01*
X100137533Y-118444210D01*
X103825941Y-118408698D01*
X103825941Y-117810032D01*
X101983917Y-117825024D01*
X99820540Y-117842631D01*
X97686632Y-121542909D01*
X98767139Y-123419217D01*
G36*
X101231948Y-106940274D02*
X101414537Y-107237898D01*
X101708885Y-107484610D01*
X101735661Y-107500563D01*
X102026808Y-107611303D01*
X102349515Y-107642459D01*
X102658637Y-107596125D01*
X102909026Y-107474395D01*
X102944542Y-107444485D01*
X103175828Y-107148065D01*
X103286274Y-106808104D01*
X103272847Y-106444245D01*
X103150554Y-106109170D01*
X102939936Y-105833167D01*
X102661131Y-105640187D01*
X102344414Y-105538585D01*
X102020062Y-105536720D01*
X101718352Y-105642950D01*
X101642496Y-105692875D01*
X101366393Y-105968039D01*
X101206711Y-106282734D01*
X101162285Y-106614350D01*
X101231948Y-106940274D01*
X101231948Y-106940274D01*
G37*
X101231948Y-106940274D02*
X101414537Y-107237898D01*
X101708885Y-107484610D01*
X101735661Y-107500563D01*
X102026808Y-107611303D01*
X102349515Y-107642459D01*
X102658637Y-107596125D01*
X102909026Y-107474395D01*
X102944542Y-107444485D01*
X103175828Y-107148065D01*
X103286274Y-106808104D01*
X103272847Y-106444245D01*
X103150554Y-106109170D01*
X102939936Y-105833167D01*
X102661131Y-105640187D01*
X102344414Y-105538585D01*
X102020062Y-105536720D01*
X101718352Y-105642950D01*
X101642496Y-105692875D01*
X101366393Y-105968039D01*
X101206711Y-106282734D01*
X101162285Y-106614350D01*
X101231948Y-106940274D01*
G36*
X102935328Y-119264411D02*
X103024856Y-119432100D01*
X103162719Y-119682049D01*
X103339631Y-119997520D01*
X103546305Y-120361776D01*
X103681600Y-120598295D01*
X104459778Y-121954637D01*
X104662155Y-121836443D01*
X104803971Y-121739372D01*
X104882283Y-121658824D01*
X104885144Y-121652019D01*
X104859100Y-121577147D01*
X104774667Y-121404706D01*
X104641264Y-121152341D01*
X104468306Y-120837694D01*
X104265211Y-120478411D01*
X104175818Y-120322992D01*
X103958823Y-119949622D01*
X103761661Y-119614222D01*
X103594958Y-119334554D01*
X103469334Y-119128379D01*
X103395415Y-119013458D01*
X103382857Y-118997173D01*
X103292412Y-118986404D01*
X103146639Y-119027278D01*
X103001102Y-119096783D01*
X102911366Y-119171910D01*
X102903421Y-119195719D01*
X102935328Y-119264411D01*
X102935328Y-119264411D01*
G37*
X102935328Y-119264411D02*
X103024856Y-119432100D01*
X103162719Y-119682049D01*
X103339631Y-119997520D01*
X103546305Y-120361776D01*
X103681600Y-120598295D01*
X104459778Y-121954637D01*
X104662155Y-121836443D01*
X104803971Y-121739372D01*
X104882283Y-121658824D01*
X104885144Y-121652019D01*
X104859100Y-121577147D01*
X104774667Y-121404706D01*
X104641264Y-121152341D01*
X104468306Y-120837694D01*
X104265211Y-120478411D01*
X104175818Y-120322992D01*
X103958823Y-119949622D01*
X103761661Y-119614222D01*
X103594958Y-119334554D01*
X103469334Y-119128379D01*
X103395415Y-119013458D01*
X103382857Y-118997173D01*
X103292412Y-118986404D01*
X103146639Y-119027278D01*
X103001102Y-119096783D01*
X102911366Y-119171910D01*
X102903421Y-119195719D01*
X102935328Y-119264411D01*
G36*
X103571843Y-124025526D02*
X103571843Y-123490789D01*
X100363421Y-123490789D01*
X100363421Y-124025526D01*
X103571843Y-124025526D01*
X103571843Y-124025526D01*
G37*
X103571843Y-124025526D02*
X103571843Y-123490789D01*
X100363421Y-123490789D01*
X100363421Y-124025526D01*
X103571843Y-124025526D01*
G36*
X99529096Y-121939700D02*
X100297180Y-120605577D01*
X100517082Y-120222818D01*
X100714022Y-119878500D01*
X100878361Y-119589600D01*
X101000461Y-119373095D01*
X101070682Y-119245963D01*
X101083722Y-119220220D01*
X101042829Y-119159617D01*
X100918247Y-119071332D01*
X100869124Y-119043477D01*
X100715982Y-118971157D01*
X100620146Y-118944853D01*
X100609169Y-118948458D01*
X100569056Y-119013241D01*
X100473092Y-119175851D01*
X100331866Y-119418111D01*
X100155970Y-119721842D01*
X99955995Y-120068868D01*
X99929328Y-120115263D01*
X99718376Y-120481909D01*
X99522059Y-120822242D01*
X99353232Y-121114041D01*
X99224753Y-121335087D01*
X99149479Y-121463160D01*
X99147976Y-121465668D01*
X99019566Y-121679758D01*
X99529096Y-121939700D01*
X99529096Y-121939700D01*
G37*
X99529096Y-121939700D02*
X100297180Y-120605577D01*
X100517082Y-120222818D01*
X100714022Y-119878500D01*
X100878361Y-119589600D01*
X101000461Y-119373095D01*
X101070682Y-119245963D01*
X101083722Y-119220220D01*
X101042829Y-119159617D01*
X100918247Y-119071332D01*
X100869124Y-119043477D01*
X100715982Y-118971157D01*
X100620146Y-118944853D01*
X100609169Y-118948458D01*
X100569056Y-119013241D01*
X100473092Y-119175851D01*
X100331866Y-119418111D01*
X100155970Y-119721842D01*
X99955995Y-120068868D01*
X99929328Y-120115263D01*
X99718376Y-120481909D01*
X99522059Y-120822242D01*
X99353232Y-121114041D01*
X99224753Y-121335087D01*
X99149479Y-121463160D01*
X99147976Y-121465668D01*
X99019566Y-121679758D01*
X99529096Y-121939700D01*
D15*
G04 #@! TO.C,K44*
X170470286Y-146555308D02*
X168752870Y-146095128D01*
X168752870Y-146095128D02*
X169213050Y-144377712D01*
X171579692Y-135545286D02*
X172039872Y-133827870D01*
X172039872Y-133827870D02*
X173757288Y-134288050D01*
X183846950Y-138832288D02*
X184307130Y-137114872D01*
X184307130Y-137114872D02*
X182589714Y-136654692D01*
X181480308Y-147664714D02*
X181020128Y-149382130D01*
X181020128Y-149382130D02*
X179302712Y-148921950D01*
G04 #@! TO.C,K30*
X86868000Y-130175000D02*
X85090000Y-130175000D01*
X85090000Y-130175000D02*
X85090000Y-128397000D01*
X85090000Y-119253000D02*
X85090000Y-117475000D01*
X85090000Y-117475000D02*
X86868000Y-117475000D01*
X97790000Y-119253000D02*
X97790000Y-117475000D01*
X97790000Y-117475000D02*
X96012000Y-117475000D01*
X97790000Y-128397000D02*
X97790000Y-130175000D01*
X97790000Y-130175000D02*
X96012000Y-130175000D01*
G04 #@! TO.C,K20*
X86868000Y-111125000D02*
X85090000Y-111125000D01*
X85090000Y-111125000D02*
X85090000Y-109347000D01*
X85090000Y-100203000D02*
X85090000Y-98425000D01*
X85090000Y-98425000D02*
X86868000Y-98425000D01*
X97790000Y-100203000D02*
X97790000Y-98425000D01*
X97790000Y-98425000D02*
X96012000Y-98425000D01*
X97790000Y-109347000D02*
X97790000Y-111125000D01*
X97790000Y-111125000D02*
X96012000Y-111125000D01*
G04 #@! TO.C,K10*
X86868000Y-92075000D02*
X85090000Y-92075000D01*
X85090000Y-92075000D02*
X85090000Y-90297000D01*
X85090000Y-81153000D02*
X85090000Y-79375000D01*
X85090000Y-79375000D02*
X86868000Y-79375000D01*
X97790000Y-81153000D02*
X97790000Y-79375000D01*
X97790000Y-79375000D02*
X96012000Y-79375000D01*
X97790000Y-90297000D02*
X97790000Y-92075000D01*
X97790000Y-92075000D02*
X96012000Y-92075000D01*
G04 #@! TO.C,K0*
X96012000Y-60325000D02*
X97790000Y-60325000D01*
X97790000Y-60325000D02*
X97790000Y-62103000D01*
X97790000Y-71247000D02*
X97790000Y-73025000D01*
X97790000Y-73025000D02*
X96012000Y-73025000D01*
X85090000Y-71247000D02*
X85090000Y-73025000D01*
X85090000Y-73025000D02*
X86868000Y-73025000D01*
X85090000Y-62103000D02*
X85090000Y-60325000D01*
X85090000Y-60325000D02*
X86868000Y-60325000D01*
G04 #@! TO.C,K36*
X221465532Y-140373261D02*
X219925739Y-139484261D01*
X219925739Y-139484261D02*
X220814739Y-137944468D01*
X225386739Y-130025532D02*
X226275739Y-128485739D01*
X226275739Y-128485739D02*
X227815532Y-129374739D01*
X236385261Y-136375532D02*
X237274261Y-134835739D01*
X237274261Y-134835739D02*
X235734468Y-133946739D01*
X231813261Y-144294468D02*
X230924261Y-145834261D01*
X230924261Y-145834261D02*
X229384468Y-144945261D01*
G04 #@! TO.C,K43*
X146558000Y-142240000D02*
X144780000Y-142240000D01*
X144780000Y-142240000D02*
X144780000Y-140462000D01*
X144780000Y-131318000D02*
X144780000Y-129540000D01*
X144780000Y-129540000D02*
X146558000Y-129540000D01*
X157480000Y-131318000D02*
X157480000Y-129540000D01*
X157480000Y-129540000D02*
X155702000Y-129540000D01*
X157480000Y-140462000D02*
X157480000Y-142240000D01*
X157480000Y-142240000D02*
X155702000Y-142240000D01*
G04 #@! TO.C,K42*
X127508000Y-144780000D02*
X125730000Y-144780000D01*
X125730000Y-144780000D02*
X125730000Y-143002000D01*
X125730000Y-133858000D02*
X125730000Y-132080000D01*
X125730000Y-132080000D02*
X127508000Y-132080000D01*
X138430000Y-133858000D02*
X138430000Y-132080000D01*
X138430000Y-132080000D02*
X136652000Y-132080000D01*
X138430000Y-143002000D02*
X138430000Y-144780000D01*
X138430000Y-144780000D02*
X136652000Y-144780000D01*
G04 #@! TO.C,K41*
X108458000Y-149225000D02*
X106680000Y-149225000D01*
X106680000Y-149225000D02*
X106680000Y-147447000D01*
X106680000Y-138303000D02*
X106680000Y-136525000D01*
X106680000Y-136525000D02*
X108458000Y-136525000D01*
X119380000Y-138303000D02*
X119380000Y-136525000D01*
X119380000Y-136525000D02*
X117602000Y-136525000D01*
X119380000Y-147447000D02*
X119380000Y-149225000D01*
X119380000Y-149225000D02*
X117602000Y-149225000D01*
G04 #@! TO.C,K40*
X89408000Y-149225000D02*
X87630000Y-149225000D01*
X87630000Y-149225000D02*
X87630000Y-147447000D01*
X87630000Y-138303000D02*
X87630000Y-136525000D01*
X87630000Y-136525000D02*
X89408000Y-136525000D01*
X100330000Y-138303000D02*
X100330000Y-136525000D01*
X100330000Y-136525000D02*
X98552000Y-136525000D01*
X100330000Y-147447000D02*
X100330000Y-149225000D01*
X100330000Y-149225000D02*
X98552000Y-149225000D01*
G04 #@! TO.C,K35*
X184658000Y-127635000D02*
X182880000Y-127635000D01*
X182880000Y-127635000D02*
X182880000Y-125857000D01*
X182880000Y-116713000D02*
X182880000Y-114935000D01*
X182880000Y-114935000D02*
X184658000Y-114935000D01*
X195580000Y-116713000D02*
X195580000Y-114935000D01*
X195580000Y-114935000D02*
X193802000Y-114935000D01*
X195580000Y-125857000D02*
X195580000Y-127635000D01*
X195580000Y-127635000D02*
X193802000Y-127635000D01*
G04 #@! TO.C,K34*
X165608000Y-125730000D02*
X163830000Y-125730000D01*
X163830000Y-125730000D02*
X163830000Y-123952000D01*
X163830000Y-114808000D02*
X163830000Y-113030000D01*
X163830000Y-113030000D02*
X165608000Y-113030000D01*
X176530000Y-114808000D02*
X176530000Y-113030000D01*
X176530000Y-113030000D02*
X174752000Y-113030000D01*
X176530000Y-123952000D02*
X176530000Y-125730000D01*
X176530000Y-125730000D02*
X174752000Y-125730000D01*
G04 #@! TO.C,K33*
X146558000Y-123190000D02*
X144780000Y-123190000D01*
X144780000Y-123190000D02*
X144780000Y-121412000D01*
X144780000Y-112268000D02*
X144780000Y-110490000D01*
X144780000Y-110490000D02*
X146558000Y-110490000D01*
X157480000Y-112268000D02*
X157480000Y-110490000D01*
X157480000Y-110490000D02*
X155702000Y-110490000D01*
X157480000Y-121412000D02*
X157480000Y-123190000D01*
X157480000Y-123190000D02*
X155702000Y-123190000D01*
G04 #@! TO.C,K32*
X127508000Y-125730000D02*
X125730000Y-125730000D01*
X125730000Y-125730000D02*
X125730000Y-123952000D01*
X125730000Y-114808000D02*
X125730000Y-113030000D01*
X125730000Y-113030000D02*
X127508000Y-113030000D01*
X138430000Y-114808000D02*
X138430000Y-113030000D01*
X138430000Y-113030000D02*
X136652000Y-113030000D01*
X138430000Y-123952000D02*
X138430000Y-125730000D01*
X138430000Y-125730000D02*
X136652000Y-125730000D01*
G04 #@! TO.C,K31*
X108458000Y-130175000D02*
X106680000Y-130175000D01*
X106680000Y-130175000D02*
X106680000Y-128397000D01*
X106680000Y-119253000D02*
X106680000Y-117475000D01*
X106680000Y-117475000D02*
X108458000Y-117475000D01*
X119380000Y-119253000D02*
X119380000Y-117475000D01*
X119380000Y-117475000D02*
X117602000Y-117475000D01*
X119380000Y-128397000D02*
X119380000Y-130175000D01*
X119380000Y-130175000D02*
X117602000Y-130175000D01*
G04 #@! TO.C,K26*
X204955532Y-130848261D02*
X203415739Y-129959261D01*
X203415739Y-129959261D02*
X204304739Y-128419468D01*
X208876739Y-120500532D02*
X209765739Y-118960739D01*
X209765739Y-118960739D02*
X211305532Y-119849739D01*
X219875261Y-126850532D02*
X220764261Y-125310739D01*
X220764261Y-125310739D02*
X219224468Y-124421739D01*
X215303261Y-134769468D02*
X214414261Y-136309261D01*
X214414261Y-136309261D02*
X212874468Y-135420261D01*
G04 #@! TO.C,K25*
X184658000Y-108585000D02*
X182880000Y-108585000D01*
X182880000Y-108585000D02*
X182880000Y-106807000D01*
X182880000Y-97663000D02*
X182880000Y-95885000D01*
X182880000Y-95885000D02*
X184658000Y-95885000D01*
X195580000Y-97663000D02*
X195580000Y-95885000D01*
X195580000Y-95885000D02*
X193802000Y-95885000D01*
X195580000Y-106807000D02*
X195580000Y-108585000D01*
X195580000Y-108585000D02*
X193802000Y-108585000D01*
G04 #@! TO.C,K24*
X165608000Y-106680000D02*
X163830000Y-106680000D01*
X163830000Y-106680000D02*
X163830000Y-104902000D01*
X163830000Y-95758000D02*
X163830000Y-93980000D01*
X163830000Y-93980000D02*
X165608000Y-93980000D01*
X176530000Y-95758000D02*
X176530000Y-93980000D01*
X176530000Y-93980000D02*
X174752000Y-93980000D01*
X176530000Y-104902000D02*
X176530000Y-106680000D01*
X176530000Y-106680000D02*
X174752000Y-106680000D01*
G04 #@! TO.C,K23*
X146558000Y-104140000D02*
X144780000Y-104140000D01*
X144780000Y-104140000D02*
X144780000Y-102362000D01*
X144780000Y-93218000D02*
X144780000Y-91440000D01*
X144780000Y-91440000D02*
X146558000Y-91440000D01*
X157480000Y-93218000D02*
X157480000Y-91440000D01*
X157480000Y-91440000D02*
X155702000Y-91440000D01*
X157480000Y-102362000D02*
X157480000Y-104140000D01*
X157480000Y-104140000D02*
X155702000Y-104140000D01*
G04 #@! TO.C,K22*
X127508000Y-106680000D02*
X125730000Y-106680000D01*
X125730000Y-106680000D02*
X125730000Y-104902000D01*
X125730000Y-95758000D02*
X125730000Y-93980000D01*
X125730000Y-93980000D02*
X127508000Y-93980000D01*
X138430000Y-95758000D02*
X138430000Y-93980000D01*
X138430000Y-93980000D02*
X136652000Y-93980000D01*
X138430000Y-104902000D02*
X138430000Y-106680000D01*
X138430000Y-106680000D02*
X136652000Y-106680000D01*
G04 #@! TO.C,K21*
X108458000Y-111125000D02*
X106680000Y-111125000D01*
X106680000Y-111125000D02*
X106680000Y-109347000D01*
X106680000Y-100203000D02*
X106680000Y-98425000D01*
X106680000Y-98425000D02*
X108458000Y-98425000D01*
X119380000Y-100203000D02*
X119380000Y-98425000D01*
X119380000Y-98425000D02*
X117602000Y-98425000D01*
X119380000Y-109347000D02*
X119380000Y-111125000D01*
X119380000Y-111125000D02*
X117602000Y-111125000D01*
G04 #@! TO.C,K15*
X184658000Y-89535000D02*
X182880000Y-89535000D01*
X182880000Y-89535000D02*
X182880000Y-87757000D01*
X182880000Y-78613000D02*
X182880000Y-76835000D01*
X182880000Y-76835000D02*
X184658000Y-76835000D01*
X195580000Y-78613000D02*
X195580000Y-76835000D01*
X195580000Y-76835000D02*
X193802000Y-76835000D01*
X195580000Y-87757000D02*
X195580000Y-89535000D01*
X195580000Y-89535000D02*
X193802000Y-89535000D01*
G04 #@! TO.C,K14*
X165608000Y-87630000D02*
X163830000Y-87630000D01*
X163830000Y-87630000D02*
X163830000Y-85852000D01*
X163830000Y-76708000D02*
X163830000Y-74930000D01*
X163830000Y-74930000D02*
X165608000Y-74930000D01*
X176530000Y-76708000D02*
X176530000Y-74930000D01*
X176530000Y-74930000D02*
X174752000Y-74930000D01*
X176530000Y-85852000D02*
X176530000Y-87630000D01*
X176530000Y-87630000D02*
X174752000Y-87630000D01*
G04 #@! TO.C,K13*
X146558000Y-85090000D02*
X144780000Y-85090000D01*
X144780000Y-85090000D02*
X144780000Y-83312000D01*
X144780000Y-74168000D02*
X144780000Y-72390000D01*
X144780000Y-72390000D02*
X146558000Y-72390000D01*
X157480000Y-74168000D02*
X157480000Y-72390000D01*
X157480000Y-72390000D02*
X155702000Y-72390000D01*
X157480000Y-83312000D02*
X157480000Y-85090000D01*
X157480000Y-85090000D02*
X155702000Y-85090000D01*
G04 #@! TO.C,K12*
X127508000Y-87630000D02*
X125730000Y-87630000D01*
X125730000Y-87630000D02*
X125730000Y-85852000D01*
X125730000Y-76708000D02*
X125730000Y-74930000D01*
X125730000Y-74930000D02*
X127508000Y-74930000D01*
X138430000Y-76708000D02*
X138430000Y-74930000D01*
X138430000Y-74930000D02*
X136652000Y-74930000D01*
X138430000Y-85852000D02*
X138430000Y-87630000D01*
X138430000Y-87630000D02*
X136652000Y-87630000D01*
G04 #@! TO.C,K11*
X108458000Y-92075000D02*
X106680000Y-92075000D01*
X106680000Y-92075000D02*
X106680000Y-90297000D01*
X106680000Y-81153000D02*
X106680000Y-79375000D01*
X106680000Y-79375000D02*
X108458000Y-79375000D01*
X119380000Y-81153000D02*
X119380000Y-79375000D01*
X119380000Y-79375000D02*
X117602000Y-79375000D01*
X119380000Y-90297000D02*
X119380000Y-92075000D01*
X119380000Y-92075000D02*
X117602000Y-92075000D01*
G04 #@! TO.C,K6*
X212852000Y-67310000D02*
X214630000Y-67310000D01*
X214630000Y-67310000D02*
X214630000Y-69088000D01*
X214630000Y-78232000D02*
X214630000Y-80010000D01*
X214630000Y-80010000D02*
X212852000Y-80010000D01*
X201930000Y-78232000D02*
X201930000Y-80010000D01*
X201930000Y-80010000D02*
X203708000Y-80010000D01*
X201930000Y-69088000D02*
X201930000Y-67310000D01*
X201930000Y-67310000D02*
X203708000Y-67310000D01*
G04 #@! TO.C,K5*
X193802000Y-57785000D02*
X195580000Y-57785000D01*
X195580000Y-57785000D02*
X195580000Y-59563000D01*
X195580000Y-68707000D02*
X195580000Y-70485000D01*
X195580000Y-70485000D02*
X193802000Y-70485000D01*
X182880000Y-68707000D02*
X182880000Y-70485000D01*
X182880000Y-70485000D02*
X184658000Y-70485000D01*
X182880000Y-59563000D02*
X182880000Y-57785000D01*
X182880000Y-57785000D02*
X184658000Y-57785000D01*
G04 #@! TO.C,K4*
X174752000Y-55880000D02*
X176530000Y-55880000D01*
X176530000Y-55880000D02*
X176530000Y-57658000D01*
X176530000Y-66802000D02*
X176530000Y-68580000D01*
X176530000Y-68580000D02*
X174752000Y-68580000D01*
X163830000Y-66802000D02*
X163830000Y-68580000D01*
X163830000Y-68580000D02*
X165608000Y-68580000D01*
X163830000Y-57658000D02*
X163830000Y-55880000D01*
X163830000Y-55880000D02*
X165608000Y-55880000D01*
G04 #@! TO.C,K3*
X155702000Y-53340000D02*
X157480000Y-53340000D01*
X157480000Y-53340000D02*
X157480000Y-55118000D01*
X157480000Y-64262000D02*
X157480000Y-66040000D01*
X157480000Y-66040000D02*
X155702000Y-66040000D01*
X144780000Y-64262000D02*
X144780000Y-66040000D01*
X144780000Y-66040000D02*
X146558000Y-66040000D01*
X144780000Y-55118000D02*
X144780000Y-53340000D01*
X144780000Y-53340000D02*
X146558000Y-53340000D01*
G04 #@! TO.C,K2*
X136652000Y-55880000D02*
X138430000Y-55880000D01*
X138430000Y-55880000D02*
X138430000Y-57658000D01*
X138430000Y-66802000D02*
X138430000Y-68580000D01*
X138430000Y-68580000D02*
X136652000Y-68580000D01*
X125730000Y-66802000D02*
X125730000Y-68580000D01*
X125730000Y-68580000D02*
X127508000Y-68580000D01*
X125730000Y-57658000D02*
X125730000Y-55880000D01*
X125730000Y-55880000D02*
X127508000Y-55880000D01*
G04 #@! TO.C,K1*
X117602000Y-60325000D02*
X119380000Y-60325000D01*
X119380000Y-60325000D02*
X119380000Y-62103000D01*
X119380000Y-71247000D02*
X119380000Y-73025000D01*
X119380000Y-73025000D02*
X117602000Y-73025000D01*
X106680000Y-71247000D02*
X106680000Y-73025000D01*
X106680000Y-73025000D02*
X108458000Y-73025000D01*
X106680000Y-62103000D02*
X106680000Y-60325000D01*
X106680000Y-60325000D02*
X108458000Y-60325000D01*
G04 #@! TO.C,K16*
X212852000Y-104140000D02*
X214630000Y-104140000D01*
X201930000Y-104140000D02*
X203708000Y-104140000D01*
X201930000Y-102362000D02*
X201930000Y-104140000D01*
X201930000Y-91440000D02*
X201930000Y-93218000D01*
X203708000Y-91440000D02*
X201930000Y-91440000D01*
X214630000Y-91440000D02*
X212852000Y-91440000D01*
X214630000Y-93218000D02*
X214630000Y-91440000D01*
X214630000Y-104140000D02*
X214630000Y-102362000D01*
G04 #@! TO.C,K46*
X217319468Y-165900261D02*
X218859261Y-166789261D01*
X207860739Y-160439261D02*
X209400532Y-161328261D01*
X208749739Y-158899468D02*
X207860739Y-160439261D01*
X214210739Y-149440739D02*
X213321739Y-150980532D01*
X215750532Y-150329739D02*
X214210739Y-149440739D01*
X225209261Y-155790739D02*
X223669468Y-154901739D01*
X224320261Y-157330532D02*
X225209261Y-155790739D01*
X218859261Y-166789261D02*
X219748261Y-165249468D01*
G04 #@! TO.C,K45*
X200809468Y-156375261D02*
X202349261Y-157264261D01*
X191350739Y-150914261D02*
X192890532Y-151803261D01*
X192239739Y-149374468D02*
X191350739Y-150914261D01*
X197700739Y-139915739D02*
X196811739Y-141455532D01*
X199240532Y-140804739D02*
X197700739Y-139915739D01*
X208699261Y-146265739D02*
X207159468Y-145376739D01*
X207810261Y-147805532D02*
X208699261Y-146265739D01*
X202349261Y-157264261D02*
X203238261Y-155724468D01*
D12*
G04 #@! TO.C,BT_LEFT1*
X96357399Y-49104464D02*
G75*
G03X108362000Y-49108000I6004601J7806464D01*
G01*
X96358646Y-49091470D02*
G75*
G03X93022000Y-50078000I-1306646J-1716530D01*
G01*
X91582000Y-54028000D02*
X93022000Y-50078000D01*
X93662000Y-65198000D02*
X91582000Y-63118000D01*
X111062000Y-65198000D02*
X93662000Y-65198000D01*
X111062000Y-65198000D02*
X113142000Y-63118000D01*
X113142000Y-54028000D02*
X111702000Y-50078000D01*
X111687244Y-50069831D02*
G75*
G03X108362000Y-49108000I-2015244J-738169D01*
G01*
X91582000Y-63118000D02*
X91582000Y-60658000D01*
X91582000Y-54658000D02*
X91582000Y-54028000D01*
X113142000Y-63118000D02*
X113142000Y-60658000D01*
X113142000Y-54658000D02*
X113142000Y-54028000D01*
D14*
G04 #@! TO.C,SW_LEFT1*
X153060000Y-52954000D02*
X154460000Y-52954000D01*
X154460000Y-52954000D02*
X154460000Y-49154000D01*
X145260000Y-49154000D02*
X145260000Y-52954000D01*
X145260000Y-52954000D02*
X146660000Y-52954000D01*
X151660000Y-52954000D02*
X150560000Y-52954000D01*
X150560000Y-52954000D02*
X150560000Y-52954000D01*
X149160000Y-52954000D02*
X148060000Y-52954000D01*
X148060000Y-52954000D02*
X148060000Y-52954000D01*
X154460000Y-49154000D02*
X152760000Y-49154000D01*
X152760000Y-49154000D02*
X152760000Y-48854000D01*
X152760000Y-48854000D02*
X151960000Y-48854000D01*
X151960000Y-48854000D02*
X151960000Y-49154000D01*
X151960000Y-49154000D02*
X150260000Y-49154000D01*
X150260000Y-49154000D02*
X150260000Y-48854000D01*
X150260000Y-48854000D02*
X149460000Y-48854000D01*
X149460000Y-48854000D02*
X149460000Y-49154000D01*
X149460000Y-49154000D02*
X147760000Y-49154000D01*
X147760000Y-49154000D02*
X147760000Y-48854000D01*
X147760000Y-48854000D02*
X146960000Y-48854000D01*
X146960000Y-48854000D02*
X146960000Y-49154000D01*
X146960000Y-49154000D02*
X145260000Y-49154000D01*
X145260000Y-49154000D02*
X145260000Y-49154000D01*
X147860000Y-47254000D02*
X147860000Y-47754000D01*
X147860000Y-47754000D02*
X147860000Y-47754000D01*
X147860000Y-47254000D02*
X148360000Y-47254000D01*
X148360000Y-47254000D02*
X148360000Y-47254000D01*
X151860000Y-47254000D02*
X151360000Y-47254000D01*
X151360000Y-47254000D02*
X151360000Y-47254000D01*
X151860000Y-47254000D02*
X151860000Y-47754000D01*
X151860000Y-47754000D02*
X151860000Y-47754000D01*
X151860000Y-48054000D02*
X151860000Y-48554000D01*
X151860000Y-48554000D02*
X151860000Y-48554000D01*
X147860000Y-48054000D02*
X147860000Y-48554000D01*
X147860000Y-48554000D02*
X147860000Y-48554000D01*
X148660000Y-47254000D02*
X149160000Y-47254000D01*
X149160000Y-47254000D02*
X149160000Y-47254000D01*
X151060000Y-47254000D02*
X150560000Y-47254000D01*
X150560000Y-47254000D02*
X150560000Y-47254000D01*
X150260000Y-47254000D02*
X149460000Y-47254000D01*
X149460000Y-47254000D02*
X149460000Y-47254000D01*
G04 #@! TO.C,U_LEFT1*
D16*
X211671504Y-57413676D02*
X211671504Y-58976380D01*
X211579580Y-59160228D01*
X211487657Y-59252152D01*
X211303809Y-59344076D01*
X210936114Y-59344076D01*
X210752266Y-59252152D01*
X210660342Y-59160228D01*
X210568419Y-58976380D01*
X210568419Y-57413676D01*
X210108800Y-59527923D02*
X208638019Y-59527923D01*
X207259161Y-59344076D02*
X208178400Y-59344076D01*
X208178400Y-57413676D01*
X206615695Y-58332914D02*
X205972228Y-58332914D01*
X205696457Y-59344076D02*
X206615695Y-59344076D01*
X206615695Y-57413676D01*
X205696457Y-57413676D01*
X204225676Y-58332914D02*
X204869142Y-58332914D01*
X204869142Y-59344076D02*
X204869142Y-57413676D01*
X203949904Y-57413676D01*
X203490285Y-57413676D02*
X202387200Y-57413676D01*
X202938742Y-59344076D02*
X202938742Y-57413676D01*
X200732571Y-59344076D02*
X201835657Y-59344076D01*
X201284114Y-59344076D02*
X201284114Y-57413676D01*
X201467961Y-57689447D01*
X201651809Y-57873295D01*
X201835657Y-57965219D01*
X212774590Y-52786038D02*
X212774590Y-53705276D01*
X213418057Y-51774876D02*
X212774590Y-52786038D01*
X212131123Y-51774876D01*
X210936114Y-51774876D02*
X210936114Y-53153733D01*
X211028038Y-53429504D01*
X211211885Y-53613352D01*
X211487657Y-53705276D01*
X211671504Y-53705276D01*
X210016876Y-52969885D02*
X208546095Y-52969885D01*
X206615695Y-53705276D02*
X207718780Y-53705276D01*
X207167238Y-53705276D02*
X207167238Y-51774876D01*
X207351085Y-52050647D01*
X207534933Y-52234495D01*
X207718780Y-52326419D01*
X204961066Y-52418342D02*
X204961066Y-53705276D01*
X205420685Y-51682952D02*
X205880304Y-53061809D01*
X204685295Y-53061809D01*
X203582209Y-51774876D02*
X203398361Y-51774876D01*
X203214514Y-51866800D01*
X203122590Y-51958723D01*
X203030666Y-52142571D01*
X202938742Y-52510266D01*
X202938742Y-52969885D01*
X203030666Y-53337580D01*
X203122590Y-53521428D01*
X203214514Y-53613352D01*
X203398361Y-53705276D01*
X203582209Y-53705276D01*
X203766057Y-53613352D01*
X203857980Y-53521428D01*
X203949904Y-53337580D01*
X204041828Y-52969885D01*
X204041828Y-52510266D01*
X203949904Y-52142571D01*
X203857980Y-51958723D01*
X203766057Y-51866800D01*
X203582209Y-51774876D01*
X201100266Y-53705276D02*
X202203352Y-53705276D01*
X201651809Y-53705276D02*
X201651809Y-51774876D01*
X201835657Y-52050647D01*
X202019504Y-52234495D01*
X202203352Y-52326419D01*
X199353714Y-51774876D02*
X200272952Y-51774876D01*
X200364876Y-52694114D01*
X200272952Y-52602190D01*
X200089104Y-52510266D01*
X199629485Y-52510266D01*
X199445638Y-52602190D01*
X199353714Y-52694114D01*
X199261790Y-52877961D01*
X199261790Y-53337580D01*
X199353714Y-53521428D01*
X199445638Y-53613352D01*
X199629485Y-53705276D01*
X200089104Y-53705276D01*
X200272952Y-53613352D01*
X200364876Y-53521428D01*
G04 #@! TO.C,*
D17*
G04 #@! TO.C,J_PROG_PORT1*
X215860380Y-109022190D02*
X216574666Y-109022190D01*
X216717523Y-108974571D01*
X216812761Y-108879333D01*
X216860380Y-108736476D01*
X216860380Y-108641238D01*
X216955619Y-109260285D02*
X216955619Y-110022190D01*
X216860380Y-110260285D02*
X215860380Y-110260285D01*
X215860380Y-110641238D01*
X215908000Y-110736476D01*
X215955619Y-110784095D01*
X216050857Y-110831714D01*
X216193714Y-110831714D01*
X216288952Y-110784095D01*
X216336571Y-110736476D01*
X216384190Y-110641238D01*
X216384190Y-110260285D01*
X216860380Y-111831714D02*
X216384190Y-111498380D01*
X216860380Y-111260285D02*
X215860380Y-111260285D01*
X215860380Y-111641238D01*
X215908000Y-111736476D01*
X215955619Y-111784095D01*
X216050857Y-111831714D01*
X216193714Y-111831714D01*
X216288952Y-111784095D01*
X216336571Y-111736476D01*
X216384190Y-111641238D01*
X216384190Y-111260285D01*
X215860380Y-112450761D02*
X215860380Y-112641238D01*
X215908000Y-112736476D01*
X216003238Y-112831714D01*
X216193714Y-112879333D01*
X216527047Y-112879333D01*
X216717523Y-112831714D01*
X216812761Y-112736476D01*
X216860380Y-112641238D01*
X216860380Y-112450761D01*
X216812761Y-112355523D01*
X216717523Y-112260285D01*
X216527047Y-112212666D01*
X216193714Y-112212666D01*
X216003238Y-112260285D01*
X215908000Y-112355523D01*
X215860380Y-112450761D01*
X215908000Y-113831714D02*
X215860380Y-113736476D01*
X215860380Y-113593619D01*
X215908000Y-113450761D01*
X216003238Y-113355523D01*
X216098476Y-113307904D01*
X216288952Y-113260285D01*
X216431809Y-113260285D01*
X216622285Y-113307904D01*
X216717523Y-113355523D01*
X216812761Y-113450761D01*
X216860380Y-113593619D01*
X216860380Y-113688857D01*
X216812761Y-113831714D01*
X216765142Y-113879333D01*
X216431809Y-113879333D01*
X216431809Y-113688857D01*
X216955619Y-114069809D02*
X216955619Y-114831714D01*
X216860380Y-115069809D02*
X215860380Y-115069809D01*
X215860380Y-115450761D01*
X215908000Y-115546000D01*
X215955619Y-115593619D01*
X216050857Y-115641238D01*
X216193714Y-115641238D01*
X216288952Y-115593619D01*
X216336571Y-115546000D01*
X216384190Y-115450761D01*
X216384190Y-115069809D01*
X215860380Y-116260285D02*
X215860380Y-116450761D01*
X215908000Y-116546000D01*
X216003238Y-116641238D01*
X216193714Y-116688857D01*
X216527047Y-116688857D01*
X216717523Y-116641238D01*
X216812761Y-116546000D01*
X216860380Y-116450761D01*
X216860380Y-116260285D01*
X216812761Y-116165047D01*
X216717523Y-116069809D01*
X216527047Y-116022190D01*
X216193714Y-116022190D01*
X216003238Y-116069809D01*
X215908000Y-116165047D01*
X215860380Y-116260285D01*
X216860380Y-117688857D02*
X216384190Y-117355523D01*
X216860380Y-117117428D02*
X215860380Y-117117428D01*
X215860380Y-117498380D01*
X215908000Y-117593619D01*
X215955619Y-117641238D01*
X216050857Y-117688857D01*
X216193714Y-117688857D01*
X216288952Y-117641238D01*
X216336571Y-117593619D01*
X216384190Y-117498380D01*
X216384190Y-117117428D01*
X215860380Y-117974571D02*
X215860380Y-118546000D01*
X216860380Y-118260285D02*
X215860380Y-118260285D01*
X216860380Y-119403142D02*
X216860380Y-118831714D01*
X216860380Y-119117428D02*
X215860380Y-119117428D01*
X216003238Y-119022190D01*
X216098476Y-118926952D01*
X216146095Y-118831714D01*
G04 #@! TO.C,BT_LEFT1*
X105195333Y-53776571D02*
X105052476Y-53824190D01*
X105004857Y-53871809D01*
X104957238Y-53967047D01*
X104957238Y-54109904D01*
X105004857Y-54205142D01*
X105052476Y-54252761D01*
X105147714Y-54300380D01*
X105528666Y-54300380D01*
X105528666Y-53300380D01*
X105195333Y-53300380D01*
X105100095Y-53348000D01*
X105052476Y-53395619D01*
X105004857Y-53490857D01*
X105004857Y-53586095D01*
X105052476Y-53681333D01*
X105100095Y-53728952D01*
X105195333Y-53776571D01*
X105528666Y-53776571D01*
X104671523Y-53300380D02*
X104100095Y-53300380D01*
X104385809Y-54300380D02*
X104385809Y-53300380D01*
X104004857Y-54395619D02*
X103242952Y-54395619D01*
X102528666Y-54300380D02*
X103004857Y-54300380D01*
X103004857Y-53300380D01*
X102195333Y-53776571D02*
X101862000Y-53776571D01*
X101719142Y-54300380D02*
X102195333Y-54300380D01*
X102195333Y-53300380D01*
X101719142Y-53300380D01*
X100957238Y-53776571D02*
X101290571Y-53776571D01*
X101290571Y-54300380D02*
X101290571Y-53300380D01*
X100814380Y-53300380D01*
X100576285Y-53300380D02*
X100004857Y-53300380D01*
X100290571Y-54300380D02*
X100290571Y-53300380D01*
X99147714Y-54300380D02*
X99719142Y-54300380D01*
X99433428Y-54300380D02*
X99433428Y-53300380D01*
X99528666Y-53443238D01*
X99623904Y-53538476D01*
X99719142Y-53586095D01*
G04 #@! TO.C,SW_LEFT1*
X164162952Y-51509561D02*
X164020095Y-51557180D01*
X163782000Y-51557180D01*
X163686761Y-51509561D01*
X163639142Y-51461942D01*
X163591523Y-51366704D01*
X163591523Y-51271466D01*
X163639142Y-51176228D01*
X163686761Y-51128609D01*
X163782000Y-51080990D01*
X163972476Y-51033371D01*
X164067714Y-50985752D01*
X164115333Y-50938133D01*
X164162952Y-50842895D01*
X164162952Y-50747657D01*
X164115333Y-50652419D01*
X164067714Y-50604800D01*
X163972476Y-50557180D01*
X163734380Y-50557180D01*
X163591523Y-50604800D01*
X163258190Y-50557180D02*
X163020095Y-51557180D01*
X162829619Y-50842895D01*
X162639142Y-51557180D01*
X162401047Y-50557180D01*
X162258190Y-51652419D02*
X161496285Y-51652419D01*
X160782000Y-51557180D02*
X161258190Y-51557180D01*
X161258190Y-50557180D01*
X160448666Y-51033371D02*
X160115333Y-51033371D01*
X159972476Y-51557180D02*
X160448666Y-51557180D01*
X160448666Y-50557180D01*
X159972476Y-50557180D01*
X159210571Y-51033371D02*
X159543904Y-51033371D01*
X159543904Y-51557180D02*
X159543904Y-50557180D01*
X159067714Y-50557180D01*
X158829619Y-50557180D02*
X158258190Y-50557180D01*
X158543904Y-51557180D02*
X158543904Y-50557180D01*
X157401047Y-51557180D02*
X157972476Y-51557180D01*
X157686761Y-51557180D02*
X157686761Y-50557180D01*
X157782000Y-50700038D01*
X157877238Y-50795276D01*
X157972476Y-50842895D01*
G04 #@! TD*
M02*
